<svg width="161" height="110" viewBox="0 0 161 110" fill="none" xmlns="http://www.w3.org/2000/svg">
<path d="M146.01 102.507C146.238 102.489 146.279 102.473 146.488 102.586C146.513 102.857 146.569 102.998 146.417 103.24C146.233 103.244 146.103 103.259 145.945 103.147C145.94 102.916 145.934 102.729 146.01 102.507Z" fill="white" fill-opacity="0.984314"/>
<path d="M94.6735 102.51C94.802 102.462 94.9338 102.498 95.0656 102.518C95.1979 102.726 95.161 102.912 95.1614 103.152L95.0729 103.197C94.8725 103.277 94.7774 103.237 94.5965 103.155C94.5745 102.917 94.6089 102.739 94.6735 102.51Z" fill="white"/>
<path d="M35.8592 102.352C35.9322 102.368 35.9628 102.389 36.0237 102.43C35.7623 102.786 35.4349 103.263 35.0221 103.411C34.8814 103.374 34.8913 103.379 34.816 103.255L35.2327 102.548C35.3904 102.342 35.6241 102.373 35.8592 102.352Z" fill="white"/>
<path d="M119.966 105.1C120.167 105.055 120.28 105.109 120.466 105.185C120.662 105.449 120.665 105.477 120.669 105.807C120.535 106.042 120.481 106.061 120.239 106.19C120.093 106.203 119.932 106.146 119.807 106.067C119.609 105.942 119.614 105.778 119.579 105.571C119.697 105.308 119.73 105.267 119.966 105.1Z" fill="white"/>
<path d="M43.6825 105.1C43.8988 105.058 44.0099 105.102 44.2106 105.185C44.3534 105.39 44.4047 105.502 44.388 105.754C44.227 106.016 44.1813 106.047 43.9056 106.189C43.7864 106.195 43.6538 106.153 43.5517 106.089C43.3388 105.955 43.3249 105.797 43.2616 105.571C43.3965 105.29 43.4151 105.255 43.6825 105.1Z" fill="white"/>
<path d="M35.0137 103.924C35.1658 103.914 35.2954 103.945 35.4421 103.978C35.5518 104.307 35.4932 104.796 35.4918 105.145L35.4783 107.614L35.3628 107.722C35.1491 107.741 35.0975 107.771 34.9115 107.653C34.8679 106.94 34.7265 104.39 35.0137 103.924Z" fill="white"/>
<path d="M145.955 104.001C145.997 103.982 146.016 103.971 146.067 103.962C146.255 103.932 146.384 103.919 146.526 104.04C146.551 105.208 146.665 106.547 146.496 107.696L146.103 107.763L145.964 107.652L145.955 104.001Z" fill="white"/>
<path d="M94.7373 103.923C94.8942 103.896 95.0121 103.934 95.1615 103.975L95.1758 104.044C95.229 104.315 95.1924 104.64 95.1928 104.919L95.193 106.718C95.1928 107.056 95.2669 107.458 95.0827 107.74C94.9252 107.757 94.8093 107.746 94.6527 107.719C94.5045 107.453 94.5726 107.014 94.5718 106.707L94.5738 104.08L94.7373 103.923Z" fill="white"/>
<path d="M92.3883 102.51C92.5309 102.477 92.6946 102.485 92.8422 102.479C93.1019 102.77 92.9647 106.941 92.9603 107.559L92.8399 107.741C92.6251 107.749 92.564 107.777 92.3824 107.653L92.3883 102.51Z" fill="white"/>
<path d="M23.0708 102.509C23.2103 102.471 23.3614 102.477 23.5054 102.471C23.7838 102.792 23.6405 106.88 23.6232 107.627L23.4944 107.729C23.2788 107.748 23.2322 107.79 23.0595 107.649C22.9972 106.759 23.0309 105.849 23.0303 104.957C23.0297 104.147 22.9893 103.314 23.0708 102.509Z" fill="white"/>
<path d="M144.483 103.843L144.638 103.83L144.745 103.922C144.765 104.063 144.811 104.347 144.688 104.46C144.659 104.486 144.427 104.534 144.375 104.551C143.993 104.673 143.696 104.854 143.555 105.251C143.376 105.75 143.456 106.516 143.448 107.053C143.445 107.293 143.475 107.521 143.351 107.735L142.958 107.75L142.845 107.534L142.856 104C143.07 103.916 143.147 103.946 143.369 103.982C143.395 104.187 143.423 104.349 143.509 104.538C143.747 104.122 144.045 103.974 144.483 103.843Z" fill="white"/>
<path d="M72.9417 102.51C73.1886 102.481 73.2579 102.435 73.4733 102.572L73.4977 105.629C73.4986 106.305 73.5474 107.024 73.4564 107.692C73.3194 107.732 73.1737 107.733 73.0317 107.745L72.8873 107.614L72.8734 104.17C72.8744 103.653 72.7987 102.997 72.9417 102.51Z" fill="white"/>
<path d="M66.7452 103.844L66.9791 103.828C67.0153 103.884 67.0513 103.933 67.0585 104.001C67.0641 104.055 67.0646 104.381 67.0403 104.423C66.9814 104.523 66.5325 104.584 66.405 104.639C66.0994 104.772 65.956 104.996 65.8386 105.293C65.6395 105.799 65.7352 106.596 65.7323 107.149C65.7314 107.354 65.7716 107.557 65.6422 107.73C65.4322 107.739 65.3316 107.771 65.1466 107.664L65.1152 107.378L65.1172 104.045L65.2491 103.95C65.4754 103.956 65.558 103.912 65.7186 104.08L65.6729 104.512L65.7523 104.551C66.0321 104.159 66.2966 103.995 66.7452 103.844Z" fill="white"/>
<path d="M77.8683 102.51C78.1205 102.488 78.2791 102.436 78.5088 102.563L78.5305 105.692C78.5319 106.348 78.5802 107.048 78.4955 107.698C78.2524 107.721 78.0539 107.8 77.854 107.65L77.8683 102.51Z" fill="white"/>
<path d="M111.116 102.823C111.257 102.783 111.355 102.805 111.497 102.823C111.676 103.064 111.592 103.438 111.619 103.726C111.653 104.082 112.134 103.866 112.411 104.08C112.298 104.729 111.981 104.291 111.626 104.59L111.626 106.384C111.634 106.712 111.571 106.911 111.814 107.142C111.999 107.152 112.207 107.135 112.354 107.26L112.378 107.576L112.289 107.714C112.016 107.735 111.761 107.745 111.492 107.681C111.407 107.66 111.191 107.588 111.134 107.515C111.048 107.405 111.031 107.094 111.024 106.954C110.997 106.356 111.026 105.753 111.033 105.155C111.036 104.933 111.081 104.696 110.963 104.501C110.748 104.501 110.596 104.501 110.401 104.406L110.372 104.119C110.552 103.865 110.741 104.048 110.969 103.887C111.011 103.858 111.075 102.981 111.116 102.823Z" fill="white"/>
<path d="M62.5739 102.824C62.7082 102.777 62.7949 102.805 62.9299 102.832C63.1465 103.092 63.047 103.403 63.0964 103.727C63.1455 104.048 63.5848 103.904 63.8509 104.08L63.7947 104.387C63.5985 104.501 63.3868 104.489 63.1658 104.5C63.0549 104.707 63.0935 104.971 63.0931 105.201L63.1364 107.025C63.3137 107.182 63.5105 107.173 63.7398 107.208C63.8572 107.418 63.8205 107.462 63.7812 107.692C63.5708 107.742 63.2281 107.764 63.0195 107.712C61.8912 107.429 62.8572 105.241 62.4189 104.507C62.2159 104.511 62.0615 104.52 61.8761 104.43C61.8287 104.229 61.8186 104.205 61.8933 104.002C62.0361 103.977 62.2219 103.959 62.3523 103.895C62.5274 103.809 62.4874 103.07 62.5739 102.824Z" fill="white"/>
<path d="M85.214 102.824C85.3483 102.777 85.435 102.805 85.5704 102.832C85.7874 103.092 85.6881 103.402 85.7371 103.727C85.7852 104.048 86.2274 103.905 86.4944 104.08L86.4538 104.352C86.3222 104.461 86.25 104.47 86.0784 104.481C85.9524 104.49 85.8706 104.487 85.7587 104.552C85.7007 105.057 85.6157 106.769 85.8679 107.143L86.3849 107.206C86.4956 107.416 86.461 107.464 86.4227 107.692C86.1895 107.753 85.8181 107.762 85.5877 107.694C84.589 107.402 85.4748 105.204 85.0594 104.507C84.8568 104.511 84.7018 104.52 84.5164 104.431C84.4688 104.23 84.4585 104.206 84.534 104.002C84.6764 103.977 84.8634 103.96 84.9932 103.895C85.1679 103.807 85.1277 103.071 85.214 102.824Z" fill="white"/>
<path d="M10.3681 103.822L10.7381 103.838C11.1596 103.876 11.5684 104.035 11.8375 104.372C11.9898 104.563 12.1203 104.861 12.096 105.101C11.8837 105.167 11.745 105.142 11.5291 105.101C11.3773 104.854 11.2104 104.563 10.925 104.456C10.6544 104.354 10.2842 104.383 10.0309 104.519C9.76019 104.663 9.62046 104.92 9.53582 105.205C9.38833 105.7 9.37985 106.327 9.6557 106.783C9.79491 107.013 10.0484 107.192 10.3135 107.241C10.6919 107.312 10.9591 107.163 11.2476 106.948C11.3456 106.772 11.4393 106.583 11.5713 106.43C11.6785 106.307 11.8684 106.344 12.0278 106.334L12.1194 106.436C12.0684 106.69 11.9639 106.948 11.8313 107.172C11.631 107.509 11.3742 107.648 11.0058 107.74C10.5185 107.862 9.9873 107.832 9.55658 107.562C9.17672 107.324 8.90446 106.86 8.81655 106.425C8.69843 105.841 8.77421 105.008 9.13421 104.516C9.48113 104.041 9.80538 103.923 10.3681 103.822Z" fill="white"/>
<path d="M0 102.473C0.628877 102.475 3.75925 102.353 4.06749 102.588L4.06084 103.002C3.75693 103.182 2.74559 103.057 2.37351 103.045C2.37599 103.734 2.51148 107.43 2.27978 107.743L1.84741 107.757C1.67529 107.593 1.72879 107.377 1.72323 107.148L1.73218 103.055L0 103.068V102.473Z" fill="white"/>
<path d="M107.72 103.82C108.019 103.839 108.355 103.844 108.623 103.989C108.912 104.145 109.023 104.372 109.098 104.677C109.268 105.363 109.188 106.203 109.178 106.908C109.175 107.176 109.216 107.501 109.076 107.735L108.683 107.761C108.525 107.542 108.575 107.303 108.573 107.037C108.568 106.363 108.737 105.008 108.25 104.513C107.928 104.357 107.672 104.393 107.341 104.492L107.268 104.515C106.513 105.004 106.704 106.206 106.696 107.007C106.693 107.268 106.733 107.5 106.6 107.731L106.246 107.745C106.041 107.518 106.123 106.976 106.121 106.663L106.131 104.001C106.327 103.919 106.431 103.954 106.639 103.979L106.709 104.394L106.9 104.237C107.178 104.006 107.367 103.907 107.72 103.82Z" fill="white"/>
<path d="M81.9041 103.822C82.2416 103.849 82.5766 103.866 82.8572 104.08C83.1018 104.266 83.1798 104.555 83.2258 104.844C83.3346 105.53 83.2699 106.314 83.2635 107.01C83.2614 107.231 83.3061 107.544 83.1728 107.726L82.8191 107.763C82.3492 107.365 82.8616 105.437 82.5698 104.803C82.498 104.647 82.3769 104.521 82.2172 104.463C81.8991 104.347 81.6027 104.402 81.3091 104.548L81.2468 104.581C80.6297 105.102 80.7996 106.253 80.7953 106.989C80.7938 107.261 80.8358 107.5 80.6966 107.741C80.4714 107.738 80.3882 107.782 80.2249 107.618C80.1709 106.742 80.196 105.852 80.196 104.974C80.196 104.707 80.1252 104.202 80.2641 103.974L80.5786 103.938C80.9519 104.1 80.6305 104.151 80.8044 104.407C81.1529 104.026 81.4107 103.913 81.9041 103.822Z" fill="white"/>
<path d="M140.809 103.923C140.996 103.908 141.075 103.924 141.246 104.001C141.244 105.213 141.352 106.501 141.229 107.702C141.043 107.74 140.921 107.752 140.735 107.713C140.676 107.558 140.634 107.411 140.6 107.249L140.466 107.378C140.29 107.551 140.16 107.679 139.912 107.737C139.393 107.859 138.994 107.818 138.535 107.535C138.077 106.896 138.188 106.163 138.193 105.415C138.193 105.047 138.087 104.236 138.281 103.952C138.424 103.94 138.562 103.917 138.7 103.968C138.798 104.005 138.79 104.096 138.795 104.189C138.834 105 138.63 106.2 138.901 106.946C139.099 107.146 139.263 107.261 139.559 107.256C139.823 107.251 140.084 107.179 140.27 106.985C140.84 106.391 140.635 104.845 140.641 104.043L140.809 103.923Z" fill="white"/>
<path d="M59.3763 103.828C59.6285 103.86 59.9636 103.876 60.1721 104.032C60.4801 104.261 60.578 104.636 60.6102 105C60.6672 105.641 60.622 106.319 60.6167 106.964C60.6156 107.11 60.6587 107.49 60.6107 107.614C60.5891 107.67 60.5322 107.706 60.4929 107.752L60.1392 107.75C59.9824 107.549 60.0234 107.373 60.0155 107.121L59.9917 105.415C59.9882 105.216 60.0167 104.944 59.9228 104.763C59.823 104.569 59.6262 104.446 59.4149 104.409C59.1408 104.361 58.8256 104.446 58.598 104.597L58.551 104.63C58.0015 105.174 58.1772 106.341 58.1779 107.068C58.1781 107.332 58.2379 107.549 58.056 107.751C57.8418 107.744 57.7468 107.779 57.5843 107.632C57.5138 106.718 57.5583 105.775 57.5574 104.856C57.5572 104.708 57.5024 104.196 57.5568 104.08C57.5806 104.03 57.6276 103.994 57.6628 103.951L57.9773 103.942C58.2911 104.143 58.0015 104.164 58.1628 104.407C58.5506 103.989 58.8198 103.904 59.3763 103.828Z" fill="white"/>
<path d="M15.2437 103.818C15.5359 103.824 15.9519 103.896 16.1847 104.084C16.4179 104.273 16.5394 104.623 16.5679 104.915C16.6334 105.586 16.5859 106.304 16.5832 106.979C16.5826 107.129 16.6254 107.481 16.5798 107.612C16.5611 107.666 16.5063 107.699 16.4695 107.742L16.0764 107.737C15.9067 107.542 15.967 107.259 15.9663 107.004C15.9644 106.323 16.0619 105.459 15.8905 104.804C15.8572 104.676 15.6895 104.518 15.5726 104.464C15.2941 104.334 14.9521 104.404 14.6847 104.525L14.6319 104.55C13.6659 105.159 14.4514 106.854 14.0696 107.72C13.8907 107.758 13.7793 107.775 13.6014 107.726C13.4482 107.447 13.5169 106.965 13.5158 106.65C13.5126 105.775 13.4661 104.871 13.5442 104L13.7555 103.918C14.2892 104.057 13.9 104.06 14.1504 104.352L14.4074 104.157C14.6883 103.946 14.9079 103.886 15.2437 103.818Z" fill="white"/>
<path d="M49.1351 102.346C49.4702 102.368 49.7938 102.411 50.1005 102.553C50.7425 102.85 50.9873 103.28 51.2147 103.924L51.1381 104.062C50.9508 104.067 50.7737 104.06 50.5877 104.039C50.4761 103.789 50.3261 103.494 50.1225 103.305C49.8634 103.065 49.4433 102.94 49.094 102.946C48.6304 102.954 48.2631 103.089 47.946 103.429C47.4846 103.922 47.3648 104.662 47.4037 105.318C47.4391 105.915 47.6129 106.488 48.0764 106.89C48.363 107.139 48.8227 107.275 49.2009 107.244C49.6672 107.205 49.9474 107.05 50.2423 106.696C50.4086 106.402 50.4894 105.959 50.7449 105.745C50.973 105.726 51.0398 105.71 51.2532 105.808C51.1888 106.307 51.0392 106.784 50.7232 107.184C50.3894 107.606 49.835 107.769 49.3222 107.833C48.7134 107.909 48.0226 107.74 47.5469 107.345C47.0577 106.939 46.781 106.196 46.722 105.581C46.6392 104.719 46.7901 103.791 47.3598 103.11C47.8589 102.512 48.3926 102.414 49.1351 102.346Z" fill="white"/>
<path d="M115.071 103.818C115.524 103.859 115.927 103.906 116.284 104.22C116.782 104.657 116.861 105.401 116.913 106.021C116.058 106.013 114.992 105.881 114.163 106.043C114.154 106.109 114.148 106.136 114.151 106.198C114.166 106.511 114.344 106.841 114.579 107.044C114.799 107.233 115.176 107.283 115.453 107.238C115.885 107.168 116.009 106.928 116.247 106.592C116.396 106.486 116.565 106.504 116.741 106.499L116.811 106.632C116.64 107.055 116.468 107.316 116.137 107.631C115.561 107.794 114.957 107.913 114.398 107.614C113.967 107.384 113.689 106.965 113.57 106.499C113.411 105.878 113.456 105.159 113.801 104.606C114.101 104.125 114.538 103.931 115.071 103.818ZM115.125 104.394C114.832 104.463 114.575 104.509 114.404 104.78L114.06 105.453L115.424 105.45L116.151 105.436C116.228 105.267 116.211 105.225 116.147 105.046C116.071 104.834 115.79 104.57 115.588 104.478C115.444 104.413 115.28 104.402 115.125 104.394Z" fill="white"/>
<path d="M89.1247 103.82C89.5312 103.848 89.932 103.87 90.2701 104.124C90.8403 104.552 90.9553 105.362 91.0489 106.015L88.9842 106.002C88.7572 106.001 88.4356 105.951 88.2434 106.079L88.2446 106.154C88.2597 106.462 88.4087 106.832 88.6541 107.026C88.8983 107.218 89.2031 107.286 89.509 107.244C89.9351 107.185 90.0947 106.934 90.345 106.618C90.5 106.486 90.5988 106.507 90.7983 106.489L90.9023 106.592L90.7424 107.029C90.5863 107.343 90.2859 107.627 89.9444 107.715C89.4761 107.837 88.8561 107.861 88.43 107.597C88.0025 107.332 87.7424 106.864 87.6319 106.386C87.5021 105.824 87.5667 105.084 87.8924 104.593C88.1939 104.139 88.6076 103.936 89.1247 103.82ZM89.1951 104.375C88.8286 104.481 88.5602 104.613 88.3684 104.967C88.2887 105.114 88.2593 105.249 88.252 105.414C88.6394 105.492 89.085 105.451 89.4815 105.45L90.2381 105.427L90.3068 105.296C90.2091 104.991 90.0994 104.704 89.8157 104.522C89.6499 104.416 89.3877 104.398 89.1951 104.375Z" fill="white"/>
<path d="M5.79894 103.822C6.22276 103.849 6.61956 103.87 6.96793 104.141C7.53137 104.58 7.62168 105.39 7.70605 106.046C6.81835 105.939 5.84939 106 4.95261 106.02L4.89389 106.161C4.98781 106.537 5.0817 106.919 5.44933 107.125C5.70114 107.266 6.04845 107.282 6.32151 107.212L6.40695 107.187C6.67138 107.113 6.79352 106.885 6.9433 106.671C7.15037 106.49 7.25943 106.498 7.52588 106.492C7.5496 106.702 7.50266 106.833 7.40459 107.016C7.22065 107.359 7.00321 107.591 6.62315 107.705C6.15629 107.844 5.56048 107.852 5.12827 107.605C4.68429 107.351 4.45325 106.967 4.32629 106.48C4.1753 105.9 4.21307 105.166 4.53857 104.647C4.85686 104.139 5.22776 103.95 5.79894 103.822ZM5.8531 104.394C5.45393 104.493 5.25417 104.591 5.04203 104.951C4.96023 105.09 4.91619 105.217 4.89386 105.376C5.12847 105.544 5.89089 105.453 6.19689 105.451L6.90059 105.428C6.97234 105.295 6.97778 105.298 6.93352 105.15C6.84403 104.852 6.6284 104.617 6.34742 104.482C6.19283 104.408 6.02175 104.401 5.8531 104.394Z" fill="white"/>
<path d="M102.969 103.82C103.295 103.842 103.645 103.868 103.935 104.031C104.359 104.268 104.607 104.832 104.718 105.286C104.775 105.519 104.839 105.809 104.713 106.015L102.119 106.006L102.023 106.12L102.092 106.499C102.152 106.759 102.349 106.981 102.581 107.109C102.856 107.262 103.178 107.295 103.478 107.201C103.809 107.097 103.96 106.874 104.124 106.591C104.275 106.478 104.453 106.491 104.634 106.48L104.697 106.591L104.517 107.062C104.345 107.384 104.028 107.623 103.679 107.719C103.196 107.852 102.635 107.837 102.197 107.574C101.763 107.313 101.533 106.842 101.42 106.367C101.29 105.814 101.363 105.077 101.684 104.594C102.013 104.101 102.416 103.932 102.969 103.82ZM102.991 104.371C102.6 104.483 102.359 104.588 102.152 104.968C102.077 105.107 102.041 105.218 102.026 105.374C102.3 105.524 102.879 105.449 103.206 105.45L104.005 105.438L104.088 105.335C104.015 105.006 103.874 104.728 103.584 104.537C103.406 104.419 103.198 104.396 102.991 104.371Z" fill="white"/>
<path d="M130.128 103.82C130.398 103.824 130.72 103.84 130.977 103.928C131.336 104.052 131.599 104.311 131.755 104.651L131.781 104.707C131.983 105.148 132.047 105.566 132.106 106.045C131.494 105.967 130.836 106.005 130.218 106.001C129.947 105.999 129.568 105.95 129.315 106.042L129.339 106.372C129.373 106.645 129.539 106.895 129.766 107.051C130.014 107.22 130.345 107.296 130.639 107.229C131.047 107.134 131.188 106.923 131.398 106.592C131.516 106.479 131.718 106.492 131.874 106.476L131.956 106.571L131.834 106.944C131.703 107.258 131.436 107.552 131.115 107.669C130.64 107.842 130.018 107.861 129.561 107.627C129.136 107.41 128.869 107 128.739 106.551C128.553 105.909 128.584 105.255 128.917 104.666C129.194 104.176 129.601 103.965 130.128 103.82ZM129.921 104.472C129.647 104.628 129.454 104.805 129.358 105.116C129.328 105.215 129.315 105.311 129.309 105.414C129.802 105.516 130.403 105.45 130.91 105.45L131.323 105.433C131.365 105.22 131.318 105.05 131.2 104.864C131.06 104.644 130.795 104.454 130.537 104.415C130.327 104.384 130.124 104.414 129.921 104.472Z" fill="white"/>
<path d="M38.3696 103.827C38.708 103.811 39.2574 103.83 39.5424 104.027C40.3085 104.557 39.7855 106.19 39.9699 107.006C40.0191 107.224 40.1715 107.265 40.3471 107.378C40.3234 107.602 40.3175 107.619 40.1654 107.785L39.7781 107.805C39.5374 107.776 39.4563 107.543 39.3458 107.36C38.8472 107.678 38.2446 107.922 37.6414 107.765C37.3258 107.683 37.1025 107.505 36.943 107.221C36.8447 106.961 36.8174 106.63 36.8836 106.357C37.118 105.392 38.6091 105.694 39.2673 105.263C39.2971 105.178 39.3362 105.074 39.3336 104.983C39.3284 104.79 39.2613 104.629 39.1005 104.525C38.8327 104.351 38.3829 104.359 38.088 104.454C37.9028 104.513 37.8082 104.621 37.7167 104.787C37.6623 104.886 37.6234 104.966 37.5431 105.048C37.4351 105.157 37.2555 105.117 37.1054 105.12L37.0005 104.983C37.0411 104.778 37.0866 104.582 37.2052 104.406C37.4775 104.002 37.9187 103.906 38.3696 103.827ZM39.0952 105.886C38.5463 105.968 37.9566 105.958 37.5764 106.396C37.5172 106.673 37.5172 106.738 37.5977 107.008L37.8521 107.18C38.1873 107.278 38.5619 107.271 38.875 107.096C39.0457 107.001 39.2197 106.849 39.2711 106.653C39.3296 106.43 39.3112 106.155 39.3095 105.925C39.2063 105.877 39.2173 105.868 39.0952 105.886Z" fill="white"/>
<path d="M154.259 103.831C154.647 103.793 155.269 103.819 155.59 104.052C156.319 104.583 155.797 106.266 155.987 107.061C156.03 107.238 156.175 107.268 156.323 107.35V107.602C156.143 107.817 156.095 107.786 155.812 107.82C155.528 107.701 155.471 107.569 155.301 107.323L155.174 107.416L154.956 107.591C154.651 107.8 154.064 107.835 153.701 107.771C153.327 107.705 153.132 107.519 152.927 107.221C152.874 106.988 152.82 106.761 152.872 106.523C153.155 105.238 154.431 105.83 155.198 105.303C155.332 105.211 155.313 105.095 155.341 104.942C155.274 104.746 155.26 104.647 155.084 104.521C154.844 104.348 154.457 104.373 154.178 104.434C153.942 104.485 153.831 104.606 153.712 104.808L153.609 104.982C153.478 105.162 153.3 105.125 153.099 105.136L152.992 104.982C153.042 104.779 153.096 104.575 153.213 104.4C153.453 104.042 153.862 103.922 154.259 103.831ZM155.093 105.884C154.503 105.978 153.959 105.957 153.554 106.434C153.528 106.644 153.5 106.788 153.591 106.984C153.686 107.057 153.777 107.137 153.885 107.189C154.299 107.289 154.637 107.231 155.005 107.014C155.126 106.943 155.252 106.718 155.289 106.585C155.35 106.365 155.338 106.112 155.333 105.884C155.252 105.882 155.174 105.878 155.093 105.884Z" fill="white"/>
<path d="M125.214 102.34C125.544 102.361 125.882 102.381 126.196 102.492C126.551 102.617 126.867 102.928 127.01 103.277C127.111 103.526 127.201 103.766 127.106 104.018C126.849 104.027 126.763 104.053 126.536 103.923L126.349 103.512C126.206 103.253 125.944 103.053 125.657 102.984C125.201 102.874 124.78 102.985 124.386 103.216C124.258 103.397 124.105 103.61 124.138 103.845C124.261 104.717 126.189 104.72 126.867 105.188C127.199 105.417 127.336 105.703 127.393 106.096C127.446 106.461 127.327 106.922 127.092 107.211C126.671 107.732 125.89 107.805 125.276 107.866C124.867 107.826 124.404 107.726 124.054 107.503C123.642 107.241 123.443 106.901 123.335 106.433C123.29 106.238 123.252 106.202 123.36 106.029C123.543 106.011 123.734 105.956 123.893 106.082C123.912 106.098 123.984 106.366 123.999 106.405C124.089 106.649 124.198 106.797 124.406 106.951C124.771 107.224 125.321 107.285 125.761 107.22C126.081 107.172 126.352 107.098 126.54 106.816C126.67 106.621 126.737 106.366 126.688 106.135C126.511 105.304 124.602 105.278 123.91 104.831C123.672 104.677 123.561 104.527 123.502 104.248C123.428 103.895 123.453 103.367 123.672 103.06C124.045 102.535 124.618 102.425 125.214 102.34Z" fill="white"/>
<path d="M19.5756 103.82C19.9516 103.838 20.3815 103.864 20.7144 104.052C21.1304 104.288 21.3996 104.712 21.5099 105.17C21.6486 105.745 21.6128 106.497 21.2926 107.01C20.9882 107.497 20.6281 107.674 20.0833 107.8C19.6868 107.824 19.1962 107.794 18.8496 107.582C18.4455 107.335 18.1681 106.899 18.0591 106.443C17.9209 105.865 17.9766 105.11 18.3103 104.604C18.6377 104.107 19.0105 103.942 19.5756 103.82ZM19.7391 104.367C19.3083 104.495 19.0331 104.591 18.813 105.022C18.6039 105.431 18.5946 106.09 18.7581 106.515C18.8688 106.803 19.1343 107.072 19.4198 107.189C19.5618 107.248 19.6984 107.257 19.8498 107.253C20.2465 107.147 20.5209 107.042 20.7281 106.654C20.9605 106.22 20.9849 105.638 20.8198 105.178C20.7117 104.876 20.5389 104.642 20.2428 104.495C20.1362 104.442 20.0152 104.423 19.8999 104.399L19.7997 104.377L19.7391 104.367Z" fill="white"/>
<path d="M26.5115 103.828C26.9144 103.81 27.3845 103.852 27.7367 104.057C28.1492 104.296 28.4232 104.707 28.5355 105.164C28.6926 105.803 28.6167 106.543 28.2615 107.105C27.9696 107.566 27.5863 107.687 27.0878 107.801C26.6795 107.83 26.1814 107.773 25.8244 107.554C25.4695 107.336 25.1899 106.86 25.0904 106.466C24.935 105.851 25.0076 105.12 25.3437 104.577C25.6106 104.146 26.0344 103.943 26.5115 103.828ZM26.7389 104.371C26.3525 104.484 26.0522 104.622 25.8554 105.002C25.6408 105.416 25.6241 106.083 25.7925 106.514C25.907 106.808 26.1189 107.055 26.414 107.178C26.57 107.243 26.7619 107.264 26.9297 107.274C27.3189 107.137 27.6014 107.02 27.7903 106.62C27.9985 106.18 28.0205 105.582 27.8321 105.132C27.7305 104.889 27.4835 104.585 27.2341 104.476C27.0874 104.412 26.8976 104.391 26.7389 104.371Z" fill="white"/>
<path d="M54.1419 103.824C54.5862 103.843 54.9839 103.877 55.3725 104.117C55.7723 104.364 55.9892 104.816 56.0855 105.261C56.234 105.947 56.1142 106.606 55.7245 107.188C55.4189 107.645 54.9986 107.702 54.498 107.801C54.1839 107.813 53.7137 107.764 53.4457 107.602C52.9884 107.325 52.7105 106.889 52.5997 106.374C52.4789 105.814 52.5492 105.037 52.8892 104.558C53.2139 104.101 53.6069 103.929 54.1419 103.824ZM54.2708 104.363C53.8979 104.471 53.6096 104.6 53.4155 104.956C53.1815 105.386 53.1587 106.029 53.3096 106.489C53.4002 106.765 53.6218 107.023 53.8848 107.149C54.0761 107.241 54.3093 107.263 54.5183 107.238C54.8784 107.139 55.1176 106.976 55.304 106.645C55.5447 106.218 55.5275 105.634 55.391 105.175C55.32 104.937 55.0671 104.596 54.8364 104.489C54.6689 104.412 54.4521 104.391 54.2708 104.363Z" fill="white"/>
<path d="M69.4825 103.822C69.8767 103.844 70.2832 103.886 70.6285 104.096C71.0495 104.353 71.2554 104.745 71.3692 105.213C71.5161 105.816 71.4716 106.53 71.1254 107.063C70.8208 107.532 70.3674 107.687 69.8459 107.8C69.4775 107.822 69.0523 107.781 68.7265 107.596C68.3274 107.37 67.9842 106.859 67.8828 106.416C67.7541 105.854 67.8346 105.036 68.1767 104.551C68.5209 104.063 68.919 103.918 69.4825 103.822ZM69.5448 104.394C69.2021 104.465 68.9575 104.591 68.7586 104.889C68.5101 105.262 68.4519 105.863 68.5527 106.291C68.6324 106.629 68.825 106.978 69.147 107.142C69.302 107.221 69.5175 107.258 69.6907 107.252C70.0541 107.172 70.3098 107.106 70.5255 106.771C70.7895 106.361 70.8286 105.787 70.7208 105.317C70.6468 104.996 70.4814 104.71 70.1942 104.534C69.9951 104.412 69.7745 104.388 69.5448 104.394Z" fill="white"/>
<path d="M150.827 102.51C151.048 102.489 151.197 102.428 151.382 102.567L151.406 106.611C151.405 106.811 151.471 107.46 151.404 107.614C151.381 107.668 151.329 107.705 151.291 107.751L150.868 107.709C150.816 107.615 150.766 107.525 150.702 107.438C150.56 107.532 150.414 107.628 150.252 107.684C149.63 107.896 149.172 107.799 148.612 107.516C148.288 107.198 148.064 106.837 147.966 106.393C147.826 105.758 147.919 105.018 148.285 104.473C148.502 104.15 148.82 103.943 149.202 103.87C149.848 103.749 150.254 103.925 150.771 104.286L150.82 102.574L150.827 102.51ZM149.595 104.372C149.259 104.468 149.009 104.531 148.823 104.855C148.586 105.268 148.492 105.872 148.629 106.332C148.726 106.658 148.877 106.969 149.19 107.135C149.354 107.222 149.552 107.25 149.734 107.282C150.128 107.179 150.376 107.11 150.592 106.732C150.82 106.334 150.871 105.717 150.74 105.277C150.659 105.007 150.492 104.671 150.234 104.53C150.054 104.432 149.796 104.402 149.595 104.372Z" fill="white"/>
<path d="M160.909 107.562L160.764 107.718C160.571 107.737 160.477 107.744 160.31 107.64L160.253 107.394C159.993 107.569 159.764 107.693 159.45 107.757C158.993 107.85 158.512 107.793 158.122 107.518C157.734 107.245 157.506 106.732 157.422 106.277C157.308 105.665 157.45 104.924 157.816 104.417C158.075 104.06 158.404 103.908 158.832 103.843C159.411 103.754 159.834 103.99 160.281 104.316L160.304 102.589C160.502 102.433 160.623 102.486 160.861 102.503L161 102.488V107.597L160.909 107.562ZM159.109 104.382C158.816 104.45 158.543 104.498 158.365 104.767C158.09 105.184 157.995 105.779 158.101 106.267C158.172 106.591 158.346 106.939 158.639 107.112C158.791 107.201 158.964 107.229 159.135 107.26L159.238 107.28C159.623 107.173 159.867 107.097 160.084 106.732C160.328 106.322 160.353 105.655 160.209 105.206C160.129 104.958 159.934 104.645 159.695 104.52C159.526 104.431 159.297 104.41 159.109 104.382ZM160.861 102.503L160.884 106.069C160.884 106.501 160.798 107.156 160.909 107.562L161 107.597V102.488L160.861 102.503Z" fill="white"/>
<path d="M160.861 102.502L161 102.486V107.596L160.909 107.56C160.798 107.154 160.884 106.499 160.884 106.068L160.861 102.502Z" fill="white" fill-opacity="0.0196078"/>
<path d="M98.1981 103.822C98.7645 103.85 98.9015 104.09 99.356 104.315L99.3732 104.001C99.5689 103.929 99.6741 103.929 99.8783 103.965L99.9083 104.021C100.013 104.29 99.9377 104.86 99.9362 105.156L99.9313 107.108C99.9276 107.558 99.9621 107.994 99.775 108.415C99.6194 108.766 99.332 109.025 98.9704 109.147C98.4837 109.311 97.8279 109.308 97.3642 109.077C96.9766 108.883 96.8516 108.692 96.7193 108.28L96.8123 108.157L97.1268 108.163C97.3557 108.241 97.4511 108.509 97.6655 108.629C97.9225 108.772 98.3325 108.794 98.6137 108.711C98.8782 108.633 99.0613 108.448 99.1904 108.209C99.3332 107.946 99.4117 107.515 99.328 107.226C99.0965 107.451 98.8682 107.644 98.5419 107.718C98.1383 107.809 97.6752 107.767 97.3263 107.533C96.931 107.267 96.6705 106.755 96.5956 106.295C96.4985 105.699 96.5913 104.912 96.9695 104.423C97.306 103.987 97.6855 103.899 98.1981 103.822ZM98.201 104.393C97.8968 104.462 97.6382 104.525 97.4639 104.811C97.1941 105.253 97.1589 105.902 97.3033 106.396C97.3929 106.702 97.5074 106.957 97.8062 107.107C98.0185 107.213 98.2335 107.198 98.4632 107.181C98.8082 107.037 99.0102 106.932 99.1726 106.573C99.3914 106.088 99.3835 105.413 99.1642 104.931C99.0748 104.734 98.9506 104.572 98.7439 104.489C98.5816 104.424 98.3745 104.369 98.201 104.393Z" fill="white"/>
<path d="M134.764 103.824C135.167 103.851 135.443 103.926 135.761 104.173L135.842 104.237L135.917 104.294L135.962 104.329L136.01 104.001C136.241 103.919 136.287 103.932 136.529 103.985C136.642 104.682 136.561 105.508 136.56 106.218C136.559 106.82 136.659 107.693 136.447 108.256C136.299 108.652 136.099 108.933 135.696 109.109C135.168 109.339 134.479 109.313 133.957 109.076C133.579 108.904 133.463 108.654 133.332 108.281L133.406 108.182L133.646 108.163L133.873 108.22C134.072 108.462 134.248 108.66 134.567 108.732C134.861 108.798 135.238 108.769 135.49 108.599C135.926 108.305 135.971 107.613 136.061 107.134C135.795 107.38 135.557 107.62 135.192 107.705C134.75 107.808 134.333 107.77 133.942 107.529C133.566 107.298 133.309 106.842 133.227 106.417C133.102 105.767 133.186 105 133.569 104.448C133.877 104.005 134.266 103.91 134.764 103.824ZM134.902 104.374C134.549 104.461 134.241 104.524 134.049 104.87C133.774 105.364 133.768 105.958 133.942 106.485C134.029 106.752 134.203 107.017 134.466 107.138C134.59 107.196 134.727 107.196 134.861 107.193C135.113 107.166 135.287 107.133 135.504 106.998C135.851 106.539 135.997 106.036 135.92 105.456C135.874 105.116 135.749 104.756 135.456 104.551C135.304 104.445 135.082 104.405 134.902 104.374Z" fill="white"/>
<path d="M31.3543 103.822C31.837 103.855 32.122 103.924 32.5044 104.229L32.5853 104.294C32.6199 104.214 32.641 104.152 32.6541 104.064L32.6638 103.987C32.8885 103.931 32.9961 103.914 33.2134 104.001L33.2339 106.083C33.236 106.87 33.3516 107.918 32.9282 108.612C32.7449 108.913 32.4717 109.105 32.1293 109.186C31.5806 109.315 30.9433 109.296 30.4547 108.986C30.1583 108.799 30.081 108.615 30.0017 108.28L30.1068 108.163L30.3841 108.173C30.6223 108.237 30.7655 108.522 30.9888 108.642C31.2222 108.768 31.6038 108.803 31.8602 108.723C32.1537 108.631 32.3447 108.472 32.4732 108.186C32.5854 107.935 32.6853 107.5 32.5853 107.236C32.3621 107.446 32.1688 107.61 31.8656 107.695C31.4737 107.805 31.0155 107.783 30.6593 107.574C30.2465 107.331 29.9973 106.882 29.8899 106.429C29.7527 105.851 29.8295 105.071 30.1495 104.56C30.4621 104.062 30.8125 103.947 31.3543 103.822ZM31.5366 104.368C31.1999 104.438 30.9073 104.512 30.7111 104.827C30.4547 105.24 30.4214 105.92 30.558 106.374C30.644 106.66 30.8115 106.97 31.0823 107.114C31.2553 107.206 31.4596 107.214 31.6514 107.224C32.0434 107.073 32.2309 107.009 32.4175 106.595C32.6203 106.144 32.6754 105.554 32.492 105.09C32.3939 104.842 32.2573 104.591 31.9974 104.489L31.5366 104.368Z" fill="white"/>
<path d="M41.1151 78.0018C43.3157 77.8155 45.509 78.2539 47.3179 79.5705C48.9308 80.7441 49.4767 82.5571 49.761 84.4349L45.9479 84.428C45.8939 84.0837 45.7942 83.7183 45.6686 83.3937C45.3093 82.4651 44.745 81.8184 43.8268 81.4173C42.808 80.9721 41.3065 80.985 40.278 81.3972C39.2977 81.79 38.4828 82.7914 38.0856 83.7424C37.1892 85.8885 37.1378 88.7282 38.0498 90.8711C38.4933 91.9132 39.1719 92.9148 40.272 93.3333C41.3089 93.7278 42.6551 93.7232 43.6639 93.2452C44.7316 92.7392 45.2874 91.7928 45.676 90.7284L45.9649 89.5762L49.7298 89.5714C49.5005 91.1896 48.9579 92.8294 47.9464 94.1315C46.7345 95.6919 44.9635 96.4584 43.0384 96.6871C40.9394 96.9368 38.554 96.4883 36.8752 95.1532C35.1096 93.7489 33.9882 91.5016 33.7331 89.2792C33.386 86.2523 33.8498 83.0905 35.8006 80.6504C37.1888 78.914 38.9672 78.2437 41.1151 78.0018Z" fill="white"/>
<path d="M0.103078 71.5953C0.706713 71.4937 1.36155 71.5474 1.97511 71.547L5.40844 71.5463L19.1884 71.5362L19.1886 75.3144L11.7178 75.3045L11.7402 96.2793L7.55957 96.2735L7.55694 75.302L2.08472 75.2931C1.62636 75.2933 0.528879 75.4228 0.135833 75.2359L0 75.2852V71.5838L0.103078 71.5953ZM0 71.5838V75.2852L0.135833 75.2359C0.0679766 74.8344 0.10912 74.3543 0.107789 73.9435L0.103078 71.5953L0 71.5838Z" fill="white"/>
<path d="M0 71.584L0.103078 71.5956L0.107789 73.9437C0.10912 74.3545 0.0679766 74.8347 0.135833 75.2362L0 75.2854V71.584Z" fill="white" fill-opacity="0.0352941"/>
<path d="M161 91.8396C160.723 92.7531 160.505 93.5526 159.886 94.3079C158.705 95.751 156.276 96.5345 154.468 96.7015C152.188 96.9119 149.571 96.5264 147.774 95.0081C146.393 93.8421 145.91 92.2907 145.769 90.5508C146.042 90.4589 146.491 90.5193 146.794 90.5186L149.563 90.5131C149.662 91.3324 149.948 92.2268 150.629 92.7477C151.731 93.5907 153.085 93.7428 154.431 93.5673C155.29 93.4552 156.327 93.2158 156.87 92.4832C157.192 92.05 157.309 91.3776 157.203 90.8519C156.806 88.8909 152.627 88.5843 151.045 88.1689C150.048 87.9069 149.079 87.5465 148.2 87.0016C147.258 86.4181 146.545 85.339 146.309 84.2641C146.036 83.0252 146.161 81.6059 146.873 80.5277C147.727 79.2336 149.273 78.4441 150.762 78.1378C153.068 77.6639 156.044 77.8304 158.052 79.1559C159.623 80.1929 160.13 81.682 160.475 83.4439C159.964 83.369 156.627 83.4818 156.525 83.3972C156.498 83.3746 156.422 83.067 156.405 83.0171C156.192 82.3822 155.857 81.8039 155.248 81.4793C154.064 80.8485 152.374 80.9793 151.134 81.3447C150.731 81.4635 150.346 81.7491 150.148 82.1252C149.962 82.4781 149.911 82.9862 150.038 83.3651C150.156 83.7175 150.372 83.9647 150.663 84.1872C151.191 84.5915 151.797 84.7715 152.424 84.9622C153.594 85.3181 154.798 85.5343 155.987 85.8163C156.806 86.0102 157.625 86.2295 158.373 86.6239C159.84 87.3971 160.506 88.3907 161 89.9389V91.8396Z" fill="white"/>
<path d="M129.935 71.5479L133.678 71.5352C133.773 71.7558 133.717 72.206 133.717 72.456L133.716 74.9093L133.726 85.5808L140.467 78.369L145.113 78.3501C144.549 79.1077 143.703 79.7992 143.032 80.472L138.629 84.8893C138.724 85.2116 138.967 85.5252 139.146 85.8094L140.178 87.4361L143.773 93.1195L145.745 96.1907L145.803 96.2647L141.162 96.257C140.478 95.3411 139.924 94.2483 139.335 93.2642L135.949 87.625L134.626 88.9544C134.405 89.1824 133.867 89.6101 133.753 89.858C133.62 90.1477 133.713 91.0191 133.712 91.3684L133.728 96.2829L129.934 96.2647L129.935 71.5479Z" fill="white"/>
<path d="M52.0365 71.5371L55.8008 71.5381L55.7971 80.8119L56.4582 79.9265C57.4532 78.7638 58.8981 78.0848 60.4185 77.9795C62.0614 77.8659 63.9421 78.1723 65.2112 79.2932C66.1147 80.0914 66.5832 81.0972 66.8403 82.2589C67.1436 83.6288 67.029 85.1318 67.0302 86.5301L67.0263 92.8079C67.0238 93.9618 66.9723 95.1323 67.0404 96.2836L63.2536 96.2753L63.2345 87.7477C63.2401 86.1769 63.45 84.2469 62.824 82.7863C62.5407 82.1252 62.0523 81.6041 61.3768 81.3361C60.4406 80.9649 59.1319 81.0043 58.2154 81.4217C57.1598 81.9022 56.3254 83.1109 56.0179 84.1999C55.6439 85.5256 55.8051 87.1455 55.8039 88.5247L55.8035 94.1782L55.806 95.6194C55.8064 95.8236 55.8411 96.0916 55.771 96.2852L52.0303 96.2775L52.0365 71.5371Z" fill="white"/>
<path d="M101.307 78.0006C101.786 77.9453 102.303 77.9538 102.785 77.9896C104.877 78.1441 106.66 79.0376 108.027 80.6258C109.922 82.8279 110.36 85.5602 110.154 88.3649L97.5782 88.3469C97.6779 89.2479 97.7659 90.037 98.1129 90.8885C98.5258 91.9019 99.2983 92.8577 100.334 93.2753C101.42 93.7133 102.952 93.763 104.031 93.3008C105.302 92.7557 105.859 91.8696 106.362 90.6427L107.678 90.6278L109.949 90.6257C109.654 91.7255 109.263 92.7741 108.58 93.6969C107.322 95.397 105.523 96.3631 103.44 96.6593C101.322 96.9603 98.8931 96.5147 97.1746 95.2034C95.3236 93.7908 94.2578 91.5379 93.9625 89.2635C93.5863 86.3659 94.0403 83.3662 95.8535 81.0061C97.2806 79.1481 99.0125 78.2981 101.307 78.0006ZM101.425 81.1316C100.083 81.4396 99.1077 81.9886 98.3569 83.1896C97.8805 83.952 97.7123 84.8547 97.6022 85.7325L102.708 85.7283L106.369 85.7356C106.177 84.2018 105.763 82.8489 104.49 81.8494C103.616 81.1626 102.498 81.0383 101.425 81.1316Z" fill="white"/>
<path d="M23.5215 78.0002C23.9255 77.9532 24.3414 77.9621 24.7477 77.9756C26.721 78.0413 28.6237 78.8598 29.9622 80.3155C32.093 82.6329 32.5239 85.3436 32.3798 88.368L19.8477 88.3483C19.6377 88.8321 20.058 90.223 20.2392 90.6856C20.6688 91.7825 21.3946 92.7973 22.5139 93.261C23.6327 93.7245 25.1584 93.7545 26.2765 93.2811C27.5234 92.7534 28.0823 91.835 28.575 90.6346L29.9905 90.6274L32.1402 90.6222C31.8606 91.792 31.449 92.8427 30.7208 93.812C29.5094 95.4242 27.6134 96.3882 25.6406 96.6683C23.4592 96.9779 21.0575 96.4759 19.2962 95.1315C17.548 93.7972 16.4849 91.5506 16.1953 89.4117C15.7959 86.4619 16.2087 83.422 18.0669 81.0097C19.5011 79.1477 21.217 78.2987 23.5215 78.0002ZM23.6877 81.1295C22.3593 81.4004 21.4203 81.9059 20.6432 83.0628C20.1153 83.849 19.9301 84.8109 19.8026 85.7344L24.8025 85.7279L28.5715 85.7335C28.4362 84.2324 27.9614 82.9119 26.7751 81.9126C25.8138 81.1029 24.8453 81.1581 23.6877 81.1295Z" fill="white"/>
<path d="M118.91 78.0015C119.346 77.9493 119.815 77.957 120.253 77.9837C122.184 78.101 124.08 78.8982 125.372 80.3546C127.433 82.6769 127.922 85.3479 127.743 88.37L115.187 88.343C115.227 89.1541 115.308 89.9177 115.608 90.6832C116.035 91.7726 116.737 92.7709 117.843 93.2456C118.994 93.7393 120.544 93.7497 121.693 93.2723C122.895 92.7732 123.465 91.7756 123.941 90.6368L125.248 90.6287L127.497 90.6318C127.215 91.7812 126.808 92.8457 126.099 93.8044C124.865 95.4724 122.916 96.4039 120.893 96.6808C118.781 96.9699 116.377 96.4638 114.681 95.1519C112.828 93.7188 111.817 91.4485 111.53 89.1732C111.15 86.1542 111.677 83.2334 113.589 80.8095C114.958 79.0738 116.746 78.2447 118.91 78.0015ZM119.044 81.1329C117.75 81.3999 116.772 81.8994 116.029 83.0487C115.494 83.8746 115.316 84.7812 115.175 85.7347L120.239 85.7297L123.953 85.7345C123.731 84.195 123.313 82.7565 121.982 81.7908C121.114 81.1615 120.084 81.0396 119.044 81.1329Z" fill="white"/>
<path d="M79.9886 71.0135C82.5597 70.7336 85.3277 71.4373 87.4447 72.9088C89.7409 74.5049 90.6035 76.7967 91.0825 79.4372L87.024 79.4225C86.8731 79.0334 86.8206 78.5936 86.6989 78.1917C86.5439 77.6789 86.2757 77.1595 85.9535 76.7312C84.9898 75.4494 83.4744 74.7662 81.9126 74.5527C80.2295 74.3224 78.2609 74.7403 76.9191 75.7979C75.0972 77.2341 74.1452 79.8831 73.8762 82.1144C73.5081 85.1672 74.0604 88.6978 76.0352 91.1544C77.0315 92.3937 78.4927 93.1074 80.0685 93.2597C81.8403 93.4308 83.9518 93.0819 85.3465 91.9199C87.0176 90.5272 87.3793 88.6157 87.5316 86.5703L81.2264 86.5811L81.2295 84.8229L81.2344 83.2739L91.3184 83.2638L91.3418 96.2472C90.5203 96.3948 89.4849 96.2754 88.6396 96.2742L88.0144 93.4042C87.8603 93.4591 87.5223 93.9547 87.3787 94.1017C85.961 95.5537 84.1099 96.5662 82.0823 96.8023C79.438 97.1101 76.4187 96.3469 74.323 94.6904C71.5895 92.5303 70.1227 89.2311 69.7331 85.8303C69.2852 81.9179 70.1372 77.88 72.6244 74.7718C74.5451 72.3716 76.9948 71.3542 79.9886 71.0135Z" fill="white"/>
<path d="M65.5796 33.0033C66.2784 32.8884 66.9386 32.9753 67.5681 33.3026C68.3348 33.7012 68.8126 34.3556 69.0549 35.1724C69.2892 35.963 69.0994 36.7873 68.7 37.4927C68.3029 38.1941 67.583 38.555 66.8429 38.777C66.0984 38.88 65.2385 38.8263 64.5985 38.3915C63.8649 37.8932 63.4245 37.1752 63.2589 36.3148C63.1449 35.7226 63.2889 35.0966 63.5544 34.561C63.9824 33.6975 64.697 33.2889 65.5796 33.0033Z" fill="#2D6CB6"/>
<path d="M112.907 3.17383C113.839 3.24688 114.793 3.22178 115.728 3.2498L120.468 3.49047C128.739 4.09953 137.186 5.31986 145.002 8.19115C148.204 9.36754 151.294 10.8157 154.076 12.8113C154.85 13.3663 155.559 14.0266 156.274 14.6522C158.315 16.4354 159.896 19.0454 160.646 21.6327C160.75 21.9897 160.913 22.3951 160.92 22.7661C160.928 23.1568 160.729 23.3397 160.471 23.5946C160.259 23.7036 160.063 23.7704 159.821 23.7177C159.453 23.6373 159.035 23.3573 158.724 23.151C157.795 22.5356 156.971 21.7789 156.087 21.1036C153.937 19.4611 151.696 18.1484 149.182 17.1384C146.144 15.9174 142.91 15.1293 139.692 14.5562C134.041 13.5496 128.307 13.2549 122.574 13.255L112.898 13.5276L112.907 3.17383Z" fill="#4094F6"/>
<path d="M92.642 0H96.2763L96.3663 0.0176343L106.414 1.22674L106.359 9.73836L106.361 24.4146L106.359 29.5286C106.358 31.4569 106.39 33.2792 105.902 35.1686C105.194 37.9078 103.553 40.5476 101.455 42.4442C95.2323 48.0697 87.173 49.6681 79.0456 50.1875C75.867 50.3908 72.629 50.4675 69.446 50.2998C67.0842 50.1751 64.6684 49.8994 62.3839 49.2744C60.4677 48.75 58.6437 47.9972 57.2903 46.4942C56.994 46.1651 56.7568 45.6869 56.5879 45.2814C56.1267 44.1742 55.7995 42.9751 55.385 41.844L52.0238 32.5836L50.3333 27.9986L53.7158 23.8336L58.672 37.2364L59.786 40.3281C60.0242 41.0005 60.2448 41.7376 60.5773 42.3684C60.8395 42.8654 61.194 43.2462 61.7122 43.4877C62.6761 43.9371 64.1407 43.9619 65.1901 44.094C69.4712 44.6339 73.907 44.699 78.181 44.0535C80.5362 43.6978 82.8912 43.2193 85.1056 42.3141C89.7899 40.3996 93.7512 37.3031 95.7465 32.5343C97.7089 27.8438 97.5461 23.0051 97.5467 18.0308L97.5446 9.34745L97.5438 4.88628C97.1692 4.8629 93.9381 4.73729 93.9211 4.72189L93.6757 4.61215L93.5892 4.59255L93.828 4.53579L93.8077 4.29807C93.3947 4.15447 92.9547 4.28928 92.5369 4.10833L92.5824 3.95166L92.9412 3.9857L92.9079 3.82332C92.6145 3.79156 92.5551 3.69321 92.3808 3.48007L92.4413 3.15081L92.3094 3.07569L92.303 2.47657C92.1077 2.25908 92.0278 1.97063 91.9852 1.68774L91.9761 1.62111C91.6499 1.45873 91.6189 1.1787 91.3521 1.02004C91.1313 0.888711 90.8184 0.9162 90.5738 0.813954C90.662 0.664661 90.7849 0.549651 90.9054 0.426579C91.1885 0.489202 91.4074 0.449784 91.6853 0.396897L91.7414 0.156771C92.0212 0.0663892 92.2778 0.14297 92.5803 0.0252477L92.642 0Z" fill="url(#paint0_linear_477_208)"/>
<path d="M26.4825 47.364C27.1735 47.3167 27.8247 47.4656 28.4098 47.8343C29.0523 48.2389 29.5349 48.8834 29.6949 49.6316C29.8606 50.406 29.7491 51.2223 29.305 51.8945C28.7727 52.7008 28.0582 53.048 27.1379 53.2385C26.4629 53.2619 25.8402 53.1508 25.256 52.7953C24.6089 52.4017 24.0849 51.6799 23.9225 50.9408C23.7534 50.1718 23.9249 49.3014 24.3574 48.6452C24.8614 47.8799 25.6144 47.534 26.4825 47.364Z" fill="#2D6CB6"/>
<path d="M89.958 0H92.6419L92.5802 0.0252477C92.2778 0.14297 92.0212 0.0663892 91.7413 0.156771L91.6852 0.396897C91.4073 0.449784 91.1885 0.489202 90.9054 0.426579C90.7848 0.549651 90.6619 0.664661 90.5737 0.813954C90.8183 0.9162 91.1312 0.888711 91.352 1.02004C91.6188 1.1787 91.6498 1.45873 91.9761 1.62111L91.9852 1.68774C92.0277 1.97063 92.1077 2.25908 92.3029 2.47657L92.3093 3.07569L92.4413 3.15081L92.3807 3.48007C92.5551 3.69321 92.6145 3.79156 92.9078 3.82332L92.9411 3.9857L92.5823 3.95166L92.5369 4.10833C92.9546 4.28928 93.3947 4.15447 93.8076 4.29807L93.828 4.53579L93.5892 4.59255L93.6757 4.61215L93.921 4.72189C91.5395 4.77362 89.1599 4.83444 86.789 5.08199C76.5011 6.15612 66.5075 9.57902 57.6109 14.8305C54.2777 16.7981 50.9625 18.9884 48.2715 21.7954C42.2722 28.0534 38.6489 36.867 38.8424 45.5743C38.8707 46.8429 38.9529 48.1011 38.8941 49.3725C38.7346 52.821 37.799 56.0133 35.3828 58.5578C34.4939 59.4939 33.3738 60.273 32.3072 60.9947C29.2735 63.0474 25.9589 64.6872 22.3655 65.4863C21.3025 65.7227 20.2345 65.9315 19.1423 65.9591C15.6379 66.0476 12.4226 63.9565 9.99013 61.6128C5.71008 57.4891 2.52538 52.2837 0 46.942V45.7692C0.171286 45.3791 0.369563 45.0176 0.626054 44.677C2.41517 42.3014 4.64437 40.1588 6.85208 38.1762C12.4855 33.1172 19.0638 28.9598 26.4065 26.9106C28.4082 26.352 30.4501 26.0051 32.5052 25.7146C33.4135 27.0392 34.079 28.648 34.6883 30.1321L31.4252 30.5583C29.7527 30.7855 28.0343 31.2407 26.4351 31.7612C20.0824 33.8289 14.4054 37.6201 9.51672 42.119C8.31989 43.2203 6.92851 44.4177 5.96246 45.723C5.64506 46.1518 5.46916 46.8495 5.55734 47.3737C5.70708 48.2638 6.43677 49.2574 6.9087 50.0171C8.30547 52.2655 9.80608 54.5488 11.5716 56.5277C12.6247 57.708 13.7927 58.8544 15.0862 59.7704C16.0688 60.4662 17.2645 61.0872 18.479 61.19C19.1063 61.2431 19.7488 61.144 20.3667 61.0374C23.6113 60.4782 26.6292 59.0646 29.3649 57.2685C31.1245 56.1132 32.8105 54.8699 33.6116 52.8477C34.145 51.5019 34.1283 50.1446 34.1121 48.727L34.1194 45.3656C34.3536 37.339 36.6871 28.9975 41.3623 22.4125C44.3241 18.2403 48.3524 15.0651 52.6122 12.299C60.578 7.12625 69.4202 3.45662 78.7129 1.47896C80.8806 1.01762 83.1232 0.62579 85.3281 0.407719C86.8183 0.260335 88.4124 0.273735 89.8788 0.0144479L89.958 0Z" fill="url(#paint1_linear_477_208)"/>
<defs>
<linearGradient id="paint0_linear_477_208" x1="56.0992" y1="44.2056" x2="112.363" y2="12.4781" gradientUnits="userSpaceOnUse">
<stop stop-color="#2F70BC"/>
<stop offset="1" stop-color="#3C8CE9"/>
</linearGradient>
<linearGradient id="paint1_linear_477_208" x1="5.33858" y1="56.6151" x2="96.002" y2="6.42166" gradientUnits="userSpaceOnUse">
<stop stop-color="#255B9A"/>
<stop offset="1" stop-color="#3A87E1"/>
</linearGradient>
</defs>
</svg>
