<?xml version="1.0" encoding="utf-8" ?>
<svg xmlns="http://www.w3.org/2000/svg" xmlns:xlink="http://www.w3.org/1999/xlink" width="832" height="573">
	<path fill="#2C2C2C" fill-opacity="0.98431373" d="M754.534 530.533C755.714 530.436 755.927 530.353 757.006 530.939C757.136 532.342 757.423 533.071 756.641 534.326C755.69 534.343 755.018 534.422 754.203 533.841C754.173 532.649 754.144 531.679 754.534 530.533Z"/>
	<path fill="#2C2C2C" d="M489.245 530.533C489.909 530.283 490.59 530.471 491.271 530.574C491.955 531.651 491.764 532.61 491.766 533.853L491.309 534.089C490.273 534.501 489.782 534.294 488.847 533.872C488.733 532.64 488.911 531.718 489.245 530.533Z"/>
	<path fill="#2C2C2C" d="M185.31 529.72C185.687 529.806 185.845 529.915 186.16 530.127C184.809 531.966 183.117 534.436 180.984 535.201C180.257 535.013 180.308 535.039 179.919 534.394L182.072 530.736C182.887 529.668 184.095 529.83 185.31 529.72Z"/>
	<path fill="#2C2C2C" d="M619.951 543.944C620.986 543.711 621.57 543.991 622.53 544.384C623.545 545.749 623.563 545.894 623.579 547.601C622.888 548.815 622.611 548.918 621.359 549.583C620.604 549.651 619.771 549.357 619.125 548.947C618.104 548.299 618.13 547.453 617.951 546.382C618.559 545.018 618.731 544.804 619.951 543.944Z"/>
	<path fill="#2C2C2C" d="M225.738 543.944C226.856 543.729 227.43 543.956 228.467 544.387C229.205 545.448 229.47 546.024 229.384 547.327C228.552 548.687 228.316 548.848 226.891 549.581C226.275 549.611 225.59 549.393 225.062 549.062C223.962 548.372 223.89 547.55 223.563 546.382C224.26 544.93 224.356 544.749 225.738 543.944Z"/>
	<path fill="#2C2C2C" d="M180.94 537.848C181.726 537.8 182.396 537.96 183.154 538.132C183.721 539.833 183.418 542.363 183.411 544.168L183.341 556.948L182.744 557.509C181.64 557.604 181.373 557.761 180.412 557.151C180.187 553.459 179.456 540.262 180.94 537.848Z"/>
	<path fill="#2C2C2C" d="M754.251 538.254C754.471 538.156 754.568 538.1 754.831 538.056C755.802 537.896 756.469 537.829 757.205 538.457C757.333 544.502 757.92 551.432 757.047 557.377L755.016 557.724L754.296 557.151L754.251 538.254Z"/>
	<path fill="#2C2C2C" d="M489.574 537.848C490.385 537.711 490.994 537.908 491.766 538.12L491.84 538.474C492.115 539.877 491.926 541.56 491.928 543.002L491.929 552.317C491.928 554.063 492.311 556.146 491.359 557.604C490.545 557.691 489.946 557.635 489.137 557.494C488.371 556.116 488.723 553.845 488.719 552.26L488.729 538.661L489.574 537.848Z"/>
	<path fill="#2C2C2C" d="M477.435 530.533C478.172 530.363 479.018 530.404 479.781 530.371C481.123 531.878 480.414 553.468 480.391 556.666L479.769 557.606C478.659 557.647 478.343 557.794 477.405 557.151L477.435 530.533Z"/>
	<path fill="#2C2C2C" d="M119.223 530.533C119.944 530.341 120.725 530.371 121.469 530.337C122.908 531.998 122.167 553.157 122.078 557.025L121.412 557.554C120.298 557.651 120.057 557.865 119.165 557.136C118.843 552.532 119.017 547.823 119.014 543.205C119.011 539.015 118.802 534.7 119.223 530.533Z"/>
	<path fill="#2C2C2C" d="M746.647 537.441L747.446 537.373L747.996 537.848C748.104 538.577 748.342 540.05 747.703 540.632C747.556 540.766 746.354 541.015 746.085 541.102C744.112 541.738 742.579 542.674 741.847 544.726C740.924 547.31 741.336 551.272 741.296 554.055C741.278 555.293 741.436 556.478 740.797 557.583L738.766 557.659L738.181 556.541L738.238 538.254C739.343 537.817 739.738 537.975 740.89 538.158C741.02 539.22 741.169 540.058 741.609 541.037C742.842 538.886 744.383 538.116 746.647 537.441Z"/>
	<path fill="#2C2C2C" d="M376.941 530.533C378.217 530.38 378.575 530.146 379.688 530.852L379.814 546.675C379.819 550.173 380.071 553.894 379.601 557.354C378.893 557.561 378.14 557.566 377.406 557.625L376.66 556.948L376.588 539.124C376.593 536.449 376.202 533.053 376.941 530.533Z"/>
	<path fill="#2C2C2C" d="M344.919 537.441L346.128 537.357C346.315 537.646 346.501 537.899 346.538 538.254C346.567 538.53 346.57 540.221 346.444 540.436C346.14 540.953 343.82 541.268 343.161 541.555C341.582 542.24 340.841 543.399 340.234 544.941C339.205 547.557 339.7 551.68 339.685 554.542C339.68 555.605 339.888 556.655 339.219 557.552C338.134 557.6 337.614 557.761 336.658 557.21L336.496 555.729L336.506 538.481L337.188 537.987C338.357 538.017 338.784 537.791 339.614 538.661L339.378 540.896L339.788 541.099C341.234 539.07 342.601 538.222 344.919 537.441Z"/>
	<path fill="#2C2C2C" d="M402.4 530.533C403.703 530.416 404.523 530.146 405.71 530.805L405.822 546.998C405.829 550.395 406.079 554.019 405.641 557.379C404.385 557.503 403.359 557.912 402.326 557.131L402.4 530.533Z"/>
	<path fill="#2C2C2C" d="M574.213 532.159C574.941 531.952 575.449 532.066 576.183 532.159C577.11 533.406 576.673 535.34 576.814 536.832C576.989 538.675 579.475 537.555 580.905 538.661C580.325 542.022 578.686 539.757 576.85 541.302L576.852 550.589C576.893 552.287 576.565 553.314 577.824 554.51C578.775 554.563 579.851 554.476 580.611 555.119L580.734 556.756L580.277 557.47C578.867 557.579 577.548 557.633 576.16 557.3C575.716 557.194 574.601 556.82 574.305 556.439C573.865 555.874 573.775 554.265 573.741 553.539C573.597 550.445 573.748 547.323 573.788 544.226C573.803 543.079 574.033 541.854 573.422 540.843C572.313 540.841 571.528 540.844 570.521 540.351L570.37 538.864C571.301 537.55 572.278 538.497 573.455 537.667C573.674 537.512 574.004 532.976 574.213 532.159Z"/>
	<path fill="#2C2C2C" d="M323.363 532.159C324.057 531.918 324.505 532.06 325.203 532.2C326.322 533.545 325.808 535.156 326.063 536.832C326.317 538.496 328.587 537.749 329.962 538.661L329.672 540.249C328.658 540.838 327.564 540.777 326.422 540.831C325.849 541.904 326.048 543.269 326.046 544.459L326.27 553.9C327.186 554.716 328.203 554.669 329.388 554.851C329.995 555.936 329.805 556.164 329.602 557.354C328.515 557.612 326.744 557.725 325.666 557.455C319.835 555.995 324.827 544.669 322.562 540.868C321.513 540.888 320.715 540.938 319.757 540.473C319.512 539.433 319.46 539.309 319.846 538.254C320.584 538.126 321.544 538.035 322.218 537.702C323.123 537.255 322.916 533.435 323.363 532.159Z"/>
	<path fill="#2C2C2C" d="M440.361 532.159C441.055 531.917 441.503 532.058 442.203 532.197C443.324 533.544 442.811 535.152 443.064 536.832C443.313 538.491 445.598 537.755 446.978 538.661L446.768 540.066C446.088 540.628 445.715 540.676 444.828 540.736C444.177 540.78 443.754 540.764 443.176 541.099C442.876 543.715 442.437 552.578 443.74 554.51L446.412 554.835C446.984 555.926 446.805 556.173 446.607 557.354C445.402 557.669 443.483 557.713 442.292 557.365C437.131 555.854 441.709 544.476 439.562 540.87C438.515 540.888 437.714 540.937 436.756 540.476C436.51 539.433 436.457 539.311 436.847 538.254C437.583 538.127 438.549 538.037 439.22 537.701C440.123 537.248 439.915 533.434 440.361 532.159Z"/>
	<path fill="#2C2C2C" d="M53.5793 537.327L55.4911 537.408C57.6694 537.607 59.7818 538.426 61.1724 540.174C61.9594 541.163 62.6338 542.703 62.5082 543.944C61.4115 544.287 60.6945 544.159 59.5788 543.944C58.7942 542.666 57.9321 541.159 56.4571 540.605C55.0589 540.079 53.1458 540.23 51.8367 540.931C50.4377 541.679 49.7156 543.011 49.2782 544.483C48.516 547.047 48.4722 550.291 49.8977 552.65C50.6171 553.84 51.927 554.768 53.2968 555.023C55.2523 555.388 56.6334 554.618 58.124 553.502C58.6304 552.596 59.1149 551.613 59.797 550.826C60.3509 550.188 61.3323 550.377 62.1562 550.329L62.6292 550.852C62.366 552.169 61.8259 553.505 61.1406 554.662C60.1055 556.409 58.7784 557.127 56.8748 557.603C54.3562 558.234 51.6113 558.078 49.3855 556.683C47.4225 555.453 46.0155 553.049 45.5612 550.799C44.9508 547.777 45.3424 543.465 47.2028 540.915C48.9956 538.457 50.6712 537.848 53.5793 537.327Z"/>
	<path fill="#2C2C2C" d="M0 530.344C3.24985 530.353 19.4267 529.723 21.0196 530.939L20.9852 533.078C19.4147 534.012 14.1884 533.365 12.2656 533.302C12.2784 536.869 12.9786 555.999 11.7812 557.618L9.54688 557.69C8.65741 556.842 8.93389 555.724 8.90515 554.536L8.9514 533.353L-0 533.42L0 530.344Z"/>
	<path fill="#2C2C2C" d="M556.666 537.319C558.208 537.415 559.944 537.44 561.329 538.191C562.824 539.001 563.398 540.172 563.787 541.753C564.663 545.305 564.249 549.651 564.2 553.302C564.182 554.686 564.395 556.369 563.672 557.579L561.641 557.715C560.824 556.58 561.081 555.343 561.071 553.969C561.047 550.48 561.918 543.466 559.406 540.905C557.74 540.095 556.416 540.284 554.708 540.795L554.328 540.913C550.43 543.447 551.416 549.664 551.372 553.811C551.358 555.161 551.565 556.365 550.875 557.558L549.047 557.629C547.988 556.457 548.411 553.649 548.402 552.034L548.456 538.254C549.467 537.83 550.004 538.012 551.078 538.142L551.44 540.286L552.427 539.473C553.863 538.28 554.843 537.77 556.666 537.319Z"/>
	<path fill="#2C2C2C" d="M423.256 537.328C425 537.467 426.731 537.554 428.181 538.661C429.445 539.625 429.848 541.118 430.086 542.617C430.648 546.169 430.314 550.223 430.281 553.828C430.27 554.971 430.501 556.592 429.812 557.534L427.984 557.724C425.556 555.665 428.204 545.685 426.696 542.406C426.325 541.598 425.699 540.943 424.874 540.642C423.23 540.043 421.698 540.329 420.181 541.086L419.859 541.254C416.67 543.952 417.548 549.907 417.526 553.716C417.518 555.126 417.735 556.364 417.016 557.608C415.852 557.594 415.422 557.821 414.578 556.973C414.299 552.439 414.429 547.832 414.429 543.289C414.429 541.905 414.063 539.294 414.781 538.112L416.406 537.928C418.335 538.767 416.674 539.031 417.573 540.355C419.374 538.383 420.706 537.797 423.256 537.328Z"/>
	<path fill="#2C2C2C" d="M727.658 537.848C728.627 537.773 729.033 537.852 729.918 538.254C729.906 544.526 730.467 551.192 729.828 557.406C728.867 557.606 728.239 557.667 727.275 557.462C726.97 556.66 726.754 555.902 726.578 555.062L725.888 555.729C724.976 556.627 724.306 557.288 723.022 557.59C720.341 558.221 718.279 558.005 715.908 556.541C713.538 553.235 714.112 549.444 714.138 545.569C714.14 543.665 713.594 539.469 714.594 538.001C715.335 537.936 716.047 537.817 716.761 538.084C717.268 538.274 717.227 538.742 717.251 539.227C717.455 543.425 716.4 549.634 717.797 553.494C718.823 554.53 719.667 555.123 721.201 555.097C722.562 555.074 723.911 554.702 724.873 553.697C727.819 550.62 726.762 542.622 726.793 538.47L727.658 537.848Z"/>
	<path fill="#2C2C2C" d="M306.839 537.355C308.142 537.522 309.874 537.604 310.951 538.408C312.543 539.597 313.049 541.536 313.215 543.419C313.51 546.738 313.276 550.248 313.249 553.584C313.243 554.34 313.466 556.306 313.218 556.948C313.106 557.24 312.812 557.424 312.609 557.662L310.781 557.652C309.971 556.61 310.183 555.701 310.142 554.397L310.019 545.568C310.001 544.537 310.148 543.131 309.663 542.193C309.147 541.192 308.13 540.555 307.038 540.362C305.622 540.112 303.993 540.555 302.817 541.334L302.574 541.505C299.734 544.319 300.642 550.358 300.646 554.123C300.647 555.491 300.956 556.612 300.016 557.659C298.909 557.62 298.418 557.803 297.578 557.044C297.214 552.311 297.444 547.433 297.439 542.676C297.438 541.911 297.155 539.258 297.436 538.661C297.559 538.4 297.802 538.215 297.984 537.992L299.609 537.945C301.231 538.985 299.734 539.091 300.568 540.352C302.572 538.187 303.963 537.749 306.839 537.355Z"/>
	<path fill="#2C2C2C" d="M78.775 537.314C80.2848 537.342 82.4347 537.715 83.6373 538.69C84.8428 539.668 85.4705 541.48 85.6177 542.99C85.9561 546.46 85.7109 550.181 85.697 553.674C85.6939 554.449 85.915 556.271 85.6794 556.948C85.5826 557.226 85.2994 557.398 85.1094 557.623L83.0781 557.596C82.2008 556.587 82.5128 555.122 82.509 553.8C82.4991 550.279 83.0031 545.804 82.1173 542.414C81.9452 541.755 81.0786 540.936 80.4745 540.654C79.0354 539.982 77.2681 540.346 75.8862 540.97L75.6132 541.099C70.6211 544.255 74.6806 553.027 72.7076 557.505C71.7829 557.703 71.2074 557.793 70.2879 557.54C69.4959 556.094 69.8512 553.602 69.8454 551.97C69.8291 547.44 69.5884 542.762 69.9921 538.254L71.0842 537.832C73.842 538.55 71.831 538.563 73.125 540.076L74.453 539.067C75.9045 537.976 77.0393 537.665 78.775 537.314Z"/>
	<path fill="#2C2C2C" d="M253.915 529.68C255.647 529.796 257.319 530.018 258.904 530.753C262.222 532.29 263.487 534.518 264.662 537.848L264.266 538.563C263.298 538.591 262.383 538.552 261.422 538.442C260.845 537.152 260.07 535.625 259.018 534.647C257.679 533.403 255.508 532.758 253.703 532.788C251.307 532.827 249.409 533.528 247.77 535.286C245.386 537.84 244.767 541.67 244.968 545.061C245.151 548.155 246.049 551.121 248.444 553.2C249.925 554.486 252.301 555.191 254.255 555.029C256.665 554.83 258.113 554.026 259.637 552.194C260.496 550.676 260.914 548.38 262.234 547.271C263.413 547.177 263.758 547.094 264.861 547.601C264.528 550.18 263.755 552.65 262.122 554.721C260.397 556.907 257.532 557.75 254.882 558.08C251.736 558.471 248.166 557.596 245.708 555.553C243.18 553.452 241.75 549.608 241.445 546.423C241.017 541.963 241.797 537.162 244.741 533.635C247.32 530.543 250.078 530.031 253.915 529.68Z"/>
	<path fill="#2C2C2C" d="M594.655 537.308C596.995 537.517 599.077 537.76 600.923 539.385C603.493 541.647 603.901 545.501 604.174 548.706C599.751 548.666 594.246 547.985 589.959 548.82C589.916 549.163 589.881 549.301 589.897 549.626C589.976 551.246 590.897 552.953 592.109 554.001C593.246 554.983 595.194 555.238 596.625 555.006C598.861 554.642 599.502 553.404 600.73 551.665C601.502 551.117 602.374 551.207 603.281 551.182L603.647 551.868C602.762 554.058 601.873 555.409 600.164 557.04C597.183 557.883 594.064 558.5 591.175 556.954C588.95 555.763 587.512 553.591 586.898 551.184C586.076 547.967 586.308 544.249 588.089 541.387C589.641 538.894 591.897 537.89 594.655 537.308ZM594.93 540.286C593.416 540.642 592.09 540.882 591.206 542.284L589.427 545.767L596.477 545.755L600.234 545.679C600.631 544.804 600.545 544.589 600.213 543.664C599.819 542.567 598.367 541.199 597.323 540.722C596.582 540.384 595.732 540.329 594.93 540.286Z"/>
	<path fill="#2C2C2C" d="M460.57 537.321C462.671 537.462 464.742 537.578 466.489 538.893C469.436 541.11 470.03 545.302 470.514 548.68L459.844 548.614C458.671 548.608 457.009 548.35 456.016 549.01L456.022 549.401C456.1 550.994 456.87 552.907 458.138 553.91C459.4 554.908 460.975 555.259 462.556 555.041C464.758 554.737 465.583 553.436 466.876 551.803C467.677 551.118 468.188 551.228 469.219 551.133L469.756 551.665L468.93 553.928C468.123 555.554 466.571 557.021 464.806 557.48C462.386 558.109 459.182 558.233 456.98 556.866C454.771 555.494 453.427 553.072 452.856 550.599C452.185 547.69 452.519 543.862 454.202 541.321C455.76 538.971 457.898 537.92 460.57 537.321ZM460.934 540.192C459.04 540.74 457.653 541.425 456.662 543.257C456.25 544.018 456.098 544.715 456.06 545.569C458.062 545.974 460.365 545.763 462.414 545.753L466.324 545.638L466.679 544.96C466.174 543.379 465.607 541.894 464.141 540.954C463.284 540.405 461.929 540.31 460.934 540.192Z"/>
	<path fill="#2C2C2C" d="M29.9674 537.326C32.1576 537.462 34.2081 537.574 36.0084 538.978C38.9201 541.248 39.3868 545.442 39.8228 548.836C35.2354 548.282 30.2281 548.595 25.5938 548.699L25.2904 549.43C25.7757 551.376 26.2609 553.355 28.1607 554.421C29.462 555.151 31.2568 555.233 32.6679 554.869L33.1094 554.741C34.4759 554.355 35.1071 553.177 35.8811 552.071C36.9512 551.134 37.5148 551.176 38.8917 551.141C39.0143 552.229 38.7717 552.908 38.2649 553.854C37.3144 555.629 36.1907 556.833 34.2267 557.419C31.8141 558.139 28.7351 558.183 26.5016 556.903C24.2072 555.589 23.0133 553.604 22.3572 551.08C21.5769 548.078 21.7721 544.278 23.4542 541.593C25.099 538.967 27.0157 537.986 29.9674 537.326ZM30.2473 540.286C28.1845 540.799 27.1522 541.306 26.0559 543.168C25.6332 543.886 25.4056 544.547 25.2902 545.366C26.5026 546.239 30.4426 545.768 32.0239 545.757L35.6604 545.634C36.0312 544.947 36.0593 544.963 35.8306 544.199C35.3681 542.656 34.2538 541.439 32.8018 540.743C32.0029 540.359 31.1188 540.322 30.2473 540.286Z"/>
	<path fill="#2C2C2C" d="M532.115 537.323C533.798 537.437 535.608 537.572 537.108 538.412C539.299 539.639 540.579 542.557 541.151 544.91C541.444 546.117 541.777 547.615 541.125 548.684L527.719 548.635L527.224 549.227L527.579 551.186C527.891 552.533 528.912 553.68 530.107 554.345C531.527 555.134 533.195 555.304 534.744 554.819C536.456 554.283 537.235 553.128 538.082 551.665C538.861 551.078 539.783 551.145 540.719 551.09L541.042 551.665L540.115 554.103C539.222 555.767 537.587 557.006 535.781 557.502C533.286 558.189 530.389 558.109 528.125 556.75C525.879 555.402 524.693 552.962 524.111 550.502C523.435 547.64 523.812 543.827 525.474 541.328C527.173 538.774 529.254 537.902 532.115 537.323ZM532.229 540.171C530.206 540.752 528.963 541.298 527.893 543.264C527.502 543.983 527.319 544.559 527.242 545.366C528.658 546.143 531.649 545.752 533.337 545.758L537.469 545.696L537.898 545.163C537.521 543.457 536.789 542.023 535.29 541.03C534.372 540.422 533.295 540.305 532.229 540.171Z"/>
	<path fill="#2C2C2C" d="M672.461 537.321C673.861 537.339 675.52 537.422 676.85 537.88C678.708 538.519 680.064 539.859 680.873 541.621L681.004 541.912C682.051 544.192 682.38 546.357 682.683 548.836C679.521 548.433 676.122 548.627 672.93 548.605C671.527 548.596 669.568 548.341 668.261 548.82L668.386 550.528C668.56 551.941 669.421 553.236 670.594 554.039C671.874 554.915 673.587 555.312 675.105 554.961C677.213 554.473 677.941 553.377 679.028 551.665C679.635 551.08 680.682 551.146 681.484 551.067L681.91 551.559L681.279 553.489C680.602 555.111 679.224 556.637 677.564 557.242C675.108 558.137 671.893 558.232 669.531 557.024C667.337 555.902 665.958 553.776 665.286 551.452C664.325 548.13 664.484 544.745 666.204 541.698C667.636 539.16 669.738 538.069 672.461 537.321ZM671.393 540.693C669.979 541.501 668.98 542.418 668.484 544.026C668.327 544.538 668.26 545.037 668.232 545.569C670.78 546.096 673.886 545.758 676.504 545.755L678.641 545.669C678.858 544.566 678.612 543.683 678.003 542.724C677.279 541.585 675.909 540.6 674.578 540.4C673.489 540.236 672.44 540.392 671.393 540.693Z"/>
	<path fill="#2C2C2C" d="M198.283 537.348C200.032 537.267 202.871 537.368 204.344 538.387C208.303 541.127 205.6 549.579 206.553 553.804C206.807 554.931 207.595 555.145 208.502 555.729C208.38 556.889 208.349 556.975 207.563 557.836L205.562 557.938C204.318 557.788 203.899 556.584 203.328 555.635C200.751 557.281 197.637 558.543 194.52 557.732C192.889 557.307 191.735 556.384 190.911 554.916C190.403 553.572 190.262 551.857 190.604 550.446C191.815 545.45 199.521 547.014 202.922 544.785C203.076 544.343 203.278 543.806 203.265 543.334C203.238 542.337 202.891 541.502 202.06 540.962C200.676 540.065 198.352 540.102 196.828 540.594C195.871 540.903 195.382 541.462 194.909 542.321C194.628 542.832 194.427 543.248 194.012 543.669C193.454 544.233 192.526 544.026 191.75 544.042L191.208 543.334C191.418 542.275 191.653 541.259 192.266 540.348C193.673 538.258 195.953 537.762 198.283 537.348ZM202.033 548.007C199.196 548.434 196.149 548.378 194.184 550.649C193.878 552.078 193.878 552.418 194.294 553.816L195.609 554.706C197.341 555.209 199.277 555.176 200.895 554.27C201.777 553.776 202.676 552.991 202.942 551.975C203.244 550.825 203.149 549.399 203.14 548.211C202.607 547.963 202.664 547.916 202.033 548.007Z"/>
	<path fill="#2C2C2C" d="M797.165 537.378C799.167 537.181 802.383 537.317 804.042 538.525C807.809 541.269 805.111 549.984 806.095 554.096C806.314 555.012 807.064 555.166 807.828 555.591L807.828 556.898C806.898 558.007 806.653 557.85 805.188 558.024C803.72 557.409 803.429 556.727 802.547 555.451L801.895 555.932L800.767 556.838C799.189 557.919 796.159 558.104 794.28 557.77C792.348 557.427 791.34 556.466 790.279 554.922C790.009 553.718 789.727 552.545 789.998 551.311C791.457 544.664 798.054 547.726 802.019 544.997C802.709 544.523 802.612 543.922 802.756 543.131C802.41 542.115 802.336 541.603 801.428 540.948C800.187 540.053 798.186 540.184 796.746 540.499C795.524 540.766 794.954 541.391 794.335 542.435L793.807 543.334C793.128 544.267 792.207 544.075 791.172 544.132L790.618 543.334C790.877 542.287 791.155 541.23 791.761 540.322C792.997 538.471 795.114 537.85 797.165 537.378ZM801.474 548.007C798.426 548.493 795.616 548.383 793.522 550.852C793.385 551.937 793.243 552.684 793.711 553.697C794.203 554.076 794.671 554.491 795.234 554.757C797.373 555.275 799.116 554.975 801.017 553.855C801.644 553.486 802.294 552.321 802.486 551.635C802.804 550.495 802.738 549.184 802.716 548.007C802.298 547.995 801.891 547.974 801.474 548.007Z"/>
	<path fill="#2C2C2C" d="M647.069 529.653C648.774 529.765 650.519 529.867 652.142 530.441C653.977 531.09 655.612 532.698 656.348 534.504C656.873 535.79 657.335 537.034 656.844 538.337C655.52 538.385 655.072 538.521 653.9 537.848L652.932 535.722C652.196 534.38 650.84 533.346 649.356 532.986C646.999 532.415 644.824 532.99 642.791 534.19C642.13 535.123 641.339 536.225 641.509 537.441C642.143 541.958 652.105 541.973 655.611 544.396C657.324 545.581 658.034 547.06 658.328 549.092C658.601 550.981 657.987 553.367 656.776 554.865C654.6 557.558 650.564 557.937 647.39 558.253C645.277 558.046 642.882 557.529 641.072 556.374C638.947 555.017 637.916 553.258 637.36 550.838C637.128 549.826 636.927 549.642 637.489 548.746C638.433 548.652 639.421 548.371 640.243 549.023C640.342 549.102 640.713 550.488 640.79 550.695C641.256 551.954 641.818 552.72 642.891 553.52C644.779 554.929 647.624 555.246 649.896 554.908C651.551 554.661 652.951 554.277 653.92 552.819C654.591 551.809 654.939 550.491 654.685 549.297C653.77 544.993 643.908 544.862 640.331 542.544C639.1 541.747 638.525 540.972 638.221 539.528C637.837 537.701 637.969 534.968 639.099 533.379C641.03 530.662 643.988 530.092 647.069 529.653Z"/>
	<path fill="#2C2C2C" d="M101.161 537.32C103.104 537.41 105.326 537.546 107.046 538.521C109.196 539.74 110.587 541.937 111.157 544.303C111.874 547.283 111.689 551.174 110.034 553.827C108.461 556.349 106.6 557.265 103.785 557.915C101.736 558.041 99.2007 557.884 97.4093 556.787C95.3212 555.508 93.8877 553.254 93.3245 550.894C92.6101 547.9 92.8979 543.994 94.6224 541.375C96.3142 538.806 98.2409 537.951 101.161 537.32ZM102.006 540.148C99.7799 540.812 98.3576 541.309 97.2204 543.537C96.1395 545.655 96.0915 549.065 96.9364 551.266C97.5088 552.757 98.8804 554.15 100.356 554.756C101.09 555.058 101.796 555.106 102.578 555.087C104.628 554.539 106.046 553.992 107.117 551.987C108.318 549.739 108.444 546.729 107.591 544.348C107.032 542.786 106.139 541.574 104.609 540.814C104.058 540.54 103.433 540.438 102.837 540.315L102.319 540.203L102.006 540.148Z"/>
	<path fill="#2C2C2C" d="M137.004 537.355C139.086 537.261 141.515 537.481 143.335 538.538C145.467 539.777 146.883 541.905 147.463 544.272C148.275 547.578 147.883 551.407 146.047 554.314C144.539 556.702 142.558 557.327 139.982 557.918C137.872 558.07 135.298 557.774 133.453 556.64C131.619 555.511 130.174 553.046 129.66 551.008C128.857 547.824 129.232 544.042 130.969 541.231C132.348 538.999 134.538 537.952 137.004 537.355ZM138.179 540.163C136.182 540.751 134.63 541.466 133.613 543.43C132.504 545.572 132.418 549.024 133.288 551.259C133.88 552.779 134.975 554.054 136.5 554.691C137.306 555.028 138.298 555.139 139.165 555.189C141.176 554.482 142.636 553.875 143.612 551.807C144.688 549.529 144.802 546.433 143.828 544.103C143.303 542.846 142.027 541.274 140.738 540.709C139.98 540.377 138.999 540.267 138.179 540.163Z"/>
	<path fill="#2C2C2C" d="M279.789 537.343C282.085 537.441 284.14 537.615 286.148 538.858C288.214 540.136 289.335 542.478 289.833 544.781C290.6 548.327 289.981 551.742 287.967 554.755C286.388 557.118 284.216 557.415 281.629 557.925C280.006 557.985 277.576 557.731 276.191 556.893C273.828 555.463 272.392 553.207 271.819 550.539C271.195 547.639 271.558 543.619 273.315 541.14C274.993 538.773 277.024 537.883 279.789 537.343ZM280.455 540.132C278.528 540.69 277.038 541.357 276.035 543.201C274.826 545.426 274.708 548.754 275.488 551.136C275.956 552.564 277.101 553.9 278.46 554.553C279.449 555.029 280.654 555.14 281.734 555.009C283.595 554.498 284.831 553.653 285.794 551.942C287.038 549.733 286.949 546.709 286.244 544.336C285.877 543.101 284.57 541.336 283.378 540.786C282.512 540.387 281.392 540.277 280.455 540.132Z"/>
	<path fill="#2C2C2C" d="M359.065 537.329C361.102 537.443 363.203 537.657 364.987 538.747C367.163 540.077 368.227 542.107 368.815 544.527C369.574 547.65 369.344 551.344 367.555 554.103C365.981 556.53 363.638 557.333 360.943 557.917C359.039 558.032 356.842 557.818 355.158 556.861C353.096 555.69 351.322 553.047 350.798 550.753C350.133 547.844 350.549 543.61 352.317 541.099C354.096 538.573 356.153 537.826 359.065 537.329ZM359.387 540.286C357.616 540.655 356.352 541.307 355.324 542.852C354.04 544.782 353.739 547.889 354.26 550.104C354.672 551.855 355.667 553.661 357.331 554.51C358.132 554.918 359.246 555.112 360.141 555.082C362.019 554.667 363.34 554.322 364.455 552.588C365.819 550.467 366.021 547.495 365.464 545.067C365.082 543.403 364.227 541.921 362.743 541.012C361.714 540.382 360.574 540.257 359.387 540.286Z"/>
	<path fill="#2C2C2C" d="M779.429 530.533C780.572 530.423 781.341 530.107 782.297 530.828L782.419 551.756C782.418 552.793 782.759 556.153 782.413 556.948C782.291 557.228 782.023 557.419 781.828 557.655L779.642 557.441C779.372 556.955 779.112 556.486 778.781 556.038C778.047 556.521 777.295 557.022 776.458 557.308C773.245 558.407 770.877 557.907 767.983 556.441C766.309 554.797 765.151 552.925 764.644 550.627C763.919 547.344 764.402 543.513 766.292 540.693C767.414 539.018 769.055 537.946 771.034 537.573C774.369 536.943 776.47 537.855 779.139 539.726L779.395 530.864L779.429 530.533ZM773.064 540.167C771.326 540.665 770.035 540.994 769.075 542.667C767.849 544.805 767.364 547.932 768.072 550.313C768.574 552.001 769.351 553.608 770.97 554.467C771.819 554.917 772.842 555.066 773.779 555.228C775.819 554.697 777.096 554.341 778.216 552.384C779.395 550.322 779.657 547.131 778.977 544.852C778.56 543.453 777.699 541.715 776.365 540.985C775.436 540.477 774.1 540.324 773.064 540.167Z"/>
	<path fill="#2C2C2C" d="M831.528 556.677L830.781 557.488C829.783 557.585 829.299 557.618 828.433 557.082L828.141 555.81C826.794 556.716 825.611 557.356 823.991 557.687C821.628 558.17 819.141 557.875 817.125 556.452C815.121 555.037 813.944 552.382 813.508 550.029C812.921 546.86 813.656 543.024 815.547 540.403C816.884 538.551 818.584 537.765 820.794 537.428C823.79 536.972 825.977 538.191 828.285 539.878L828.401 530.939C829.426 530.132 830.051 530.408 831.282 530.495L832 530.416L832 556.86L831.528 556.677ZM822.23 540.22C820.714 540.572 819.305 540.818 818.384 542.215C816.962 544.371 816.469 547.452 817.021 549.976C817.387 551.651 818.284 553.454 819.801 554.349C820.583 554.81 821.481 554.953 822.36 555.115L822.894 555.217C824.883 554.667 826.145 554.27 827.267 552.381C828.525 550.261 828.654 546.81 827.912 544.487C827.501 543.2 826.489 541.579 825.256 540.933C824.383 540.476 823.198 540.366 822.23 540.22ZM831.282 530.495L831.402 548.951C831.402 551.186 830.958 554.576 831.528 556.677L832 556.86L832 530.416L831.282 530.495Z"/>
	<path fill="#2C2C2C" fill-opacity="0.019607844" d="M831.282 530.495L832 530.416L832 556.86L831.528 556.677C830.958 554.576 831.402 551.186 831.402 548.951L831.282 530.495Z"/>
	<path fill="#2C2C2C" d="M507.458 537.331C510.385 537.476 511.093 538.716 513.442 539.88L513.531 538.254C514.542 537.885 515.086 537.881 516.141 538.07L516.296 538.361C516.838 539.751 516.448 542.702 516.44 544.234L516.415 554.339C516.396 556.667 516.574 558.922 515.607 561.102C514.803 562.918 513.318 564.259 511.449 564.889C508.934 565.738 505.545 565.722 503.149 564.525C501.146 563.525 500.5 562.537 499.816 560.402L500.297 559.766L501.922 559.797C503.105 560.199 503.598 561.588 504.706 562.207C506.034 562.948 508.153 563.064 509.606 562.634C510.973 562.23 511.919 561.271 512.586 560.037C513.324 558.672 513.73 556.442 513.297 554.946C512.101 556.113 510.921 557.112 509.235 557.493C507.149 557.965 504.756 557.749 502.953 556.535C500.91 555.16 499.564 552.507 499.177 550.131C498.675 547.044 499.155 542.973 501.109 540.439C502.848 538.185 504.809 537.729 507.458 537.331ZM507.473 540.286C505.901 540.64 504.565 540.966 503.664 542.446C502.27 544.737 502.088 548.096 502.834 550.649C503.297 552.237 503.889 553.557 505.433 554.332C506.53 554.882 507.641 554.802 508.828 554.714C510.611 553.97 511.655 553.428 512.494 551.568C513.625 549.058 513.584 545.566 512.451 543.068C511.989 542.051 511.347 541.211 510.279 540.783C509.44 540.447 508.37 540.163 507.473 540.286Z"/>
	<path fill="#2C2C2C" d="M696.418 537.338C698.5 537.477 699.928 537.863 701.573 539.145L701.99 539.473L702.38 539.768L702.609 539.951L702.861 538.254C704.052 537.831 704.291 537.895 705.54 538.168C706.124 541.778 705.707 546.05 705.7 549.727C705.695 552.844 706.211 557.36 705.118 560.277C704.352 562.323 703.317 563.78 701.235 564.688C698.508 565.879 694.947 565.748 692.25 564.52C690.295 563.629 689.699 562.336 689.019 560.402L689.404 559.891L690.645 559.793L691.817 560.09C692.842 561.342 693.752 562.366 695.402 562.739C696.92 563.082 698.868 562.928 700.172 562.048C702.427 560.528 702.66 556.945 703.121 554.47C701.749 555.742 700.517 556.985 698.633 557.423C696.35 557.954 694.195 557.761 692.173 556.514C690.23 555.316 688.903 552.955 688.479 550.757C687.831 547.392 688.265 543.425 690.245 540.567C691.835 538.272 693.849 537.781 696.418 537.338ZM697.132 540.181C695.308 540.632 693.715 540.962 692.724 542.748C691.306 545.305 691.274 548.379 692.17 551.108C692.624 552.492 693.519 553.863 694.879 554.49C695.522 554.787 696.228 554.79 696.922 554.774C698.224 554.632 699.123 554.465 700.242 553.764C702.038 551.388 702.793 548.783 702.393 545.781C702.158 544.024 701.51 542.161 699.994 541.099C699.21 540.55 698.061 540.343 697.132 540.181Z"/>
	<path fill="#2C2C2C" d="M162.03 537.329C164.524 537.496 165.997 537.857 167.973 539.434L168.391 539.771C168.57 539.355 168.679 539.034 168.747 538.579L168.797 538.179C169.958 537.893 170.514 537.805 171.637 538.254L171.743 549.027C171.754 553.105 172.351 558.527 170.163 562.12C169.216 563.675 167.804 564.672 166.035 565.09C163.199 565.759 159.906 565.656 157.381 564.056C155.849 563.087 155.45 562.136 155.04 560.402L155.583 559.793L157.016 559.847C158.247 560.179 158.987 561.651 160.141 562.274C161.347 562.924 163.319 563.107 164.644 562.692C166.161 562.217 167.148 561.394 167.812 559.912C168.392 558.615 168.908 556.365 168.391 554.997C167.238 556.082 166.239 556.933 164.672 557.374C162.647 557.944 160.279 557.827 158.438 556.744C156.305 555.49 155.017 553.166 154.462 550.821C153.753 547.83 154.15 543.791 155.804 541.148C157.419 538.569 159.23 537.976 162.03 537.329ZM162.972 540.156C161.232 540.518 159.72 540.898 158.706 542.531C157.381 544.665 157.209 548.188 157.915 550.537C158.359 552.015 159.225 553.618 160.624 554.366C161.518 554.844 162.574 554.885 163.565 554.937C165.591 554.154 166.56 553.821 167.524 551.677C168.572 549.347 168.857 546.291 167.909 543.889C167.402 542.605 166.696 541.31 165.353 540.778L162.972 540.156Z"/>
	<path fill="#2D6CB6" d="M338.896 170.813C342.507 170.218 345.919 170.668 349.172 172.362C353.134 174.425 355.603 177.812 356.855 182.039C358.066 186.131 357.085 190.397 355.021 194.048C352.969 197.678 349.249 199.546 345.424 200.695C341.577 201.228 337.133 200.95 333.826 198.7C330.035 196.121 327.759 192.405 326.903 187.952C326.314 184.887 327.058 181.647 328.43 178.875C330.642 174.406 334.335 172.291 338.896 170.813Z"/>
	<path fill="#2C2C2C" d="M212.471 403.693C223.843 402.729 235.177 404.998 244.525 411.812C252.86 417.886 255.681 427.269 257.15 436.988L237.445 436.952C237.166 435.17 236.651 433.279 236.002 431.599C234.145 426.793 231.229 423.446 226.484 421.37C221.219 419.066 213.46 419.133 208.145 421.266C203.079 423.299 198.868 428.482 196.815 433.404C192.183 444.511 191.917 459.208 196.63 470.299C198.922 475.692 202.429 480.876 208.114 483.042C213.472 485.084 220.429 485.06 225.642 482.586C231.16 479.967 234.032 475.069 236.04 469.56L237.533 463.597L256.989 463.572C255.804 471.947 253 480.434 247.773 487.173C241.51 495.249 232.358 499.216 222.41 500.4C211.563 501.692 199.236 499.371 190.56 492.461C181.436 485.193 175.641 473.562 174.323 462.06C172.529 446.394 174.926 430.03 185.007 417.401C192.181 408.414 201.371 404.945 212.471 403.693Z"/>
	<path fill="#2C2C2C" d="M0.532676 370.539C3.65208 370.013 7.03609 370.291 10.2068 370.289L27.9492 370.285L99.1599 370.233L99.1611 389.787L60.5539 389.736L60.6697 498.292L39.0656 498.262L39.052 389.723L10.7732 389.677C8.40452 389.678 2.73309 390.348 0.701945 389.381L0 389.636L0 370.479L0.532676 370.539ZM0 370.479L0 389.636L0.701945 389.381C0.351283 387.303 0.563902 384.818 0.557019 382.692L0.532676 370.539L0 370.479Z"/>
	<path fill="#2C2C2C" fill-opacity="0.035294119" d="M0 370.479L0.532676 370.539L0.557019 382.692C0.563902 384.818 0.351283 387.303 0.701945 389.381L0 389.636L0 370.479Z"/>
	<path fill="#2C2C2C" d="M832 475.31C830.57 480.038 829.44 484.176 826.246 488.085C820.142 495.554 807.587 499.609 798.245 500.473C786.464 501.562 772.94 499.567 763.65 491.709C756.514 485.674 754.022 477.645 753.29 468.64C754.704 468.164 757.023 468.477 758.587 468.473L772.899 468.445C773.411 472.685 774.887 477.314 778.406 480.01C784.102 484.373 791.099 485.16 798.055 484.252C802.494 483.672 807.851 482.433 810.66 478.641C812.322 476.399 812.925 472.919 812.376 470.198C810.327 460.049 788.73 458.462 780.558 456.312C775.403 454.956 770.398 453.091 765.853 450.271C760.986 447.251 757.303 441.666 756.081 436.103C754.672 429.691 755.317 422.345 758.994 416.765C763.408 410.067 771.397 405.981 779.094 404.396C791.012 401.943 806.388 402.805 816.766 409.665C824.885 415.032 827.505 422.739 829.286 431.858C826.648 431.47 809.403 432.054 808.876 431.616C808.736 431.499 808.34 429.907 808.253 429.649C807.152 426.363 805.425 423.37 802.277 421.69C796.159 418.425 787.422 419.102 781.016 420.993C778.932 421.608 776.942 423.086 775.92 425.033C774.96 426.859 774.695 429.489 775.351 431.45C775.961 433.274 777.077 434.553 778.581 435.705C781.311 437.797 784.442 438.729 787.68 439.716C793.73 441.558 799.952 442.677 806.097 444.136C810.327 445.14 814.557 446.275 818.423 448.316C826.005 452.318 829.448 457.46 832 465.473L832 475.31Z"/>
	<path fill="#2C2C2C" d="M671.466 370.297L690.807 370.231C691.3 371.373 691.01 373.703 691.009 374.997L691.005 387.694L691.058 442.925L725.894 405.6L749.899 405.502C746.984 409.423 742.615 413.002 739.147 416.484L716.394 439.346C716.884 441.014 718.139 442.637 719.065 444.108L724.397 452.527L742.978 481.942L753.169 497.837L753.464 498.22L729.484 498.18C725.947 493.44 723.087 487.784 720.042 482.691L702.544 453.505L695.709 460.385C694.565 461.565 691.787 463.779 691.197 465.062C690.507 466.561 690.989 471.071 690.986 472.879L691.068 498.314L671.46 498.22L671.466 370.297Z"/>
	<path fill="#2C2C2C" d="M268.909 370.234L288.362 370.239L288.343 418.236L291.759 413.654C296.901 407.636 304.368 404.122 312.225 403.577C320.715 402.989 330.434 404.575 336.992 410.376C341.661 414.507 344.082 419.713 345.411 425.725C346.978 432.815 346.386 440.594 346.392 447.831L346.372 480.322C346.359 486.294 346.093 492.352 346.445 498.311L326.876 498.268L326.777 454.133C326.806 446.003 327.891 436.014 324.656 428.455C323.192 425.033 320.668 422.336 317.177 420.949C312.339 419.028 305.576 419.232 300.84 421.392C295.385 423.879 291.073 430.135 289.484 435.771C287.551 442.632 288.384 451.016 288.378 458.154L288.376 487.414L288.389 494.873C288.391 495.93 288.57 497.317 288.208 498.319L268.877 498.279L268.909 370.234Z"/>
	<path fill="#2C2C2C" d="M523.522 403.686C525.998 403.4 528.671 403.444 531.161 403.629C541.975 404.429 551.187 409.053 558.25 417.273C568.045 428.67 570.308 442.811 569.245 457.327L504.255 457.234C504.77 461.897 505.225 465.981 507.018 470.388C509.152 475.633 513.144 480.58 518.496 482.741C524.108 485.008 532.027 485.265 537.6 482.873C544.168 480.052 547.049 475.466 549.649 469.116L556.446 469.039L568.184 469.028C566.661 474.72 564.639 480.147 561.111 484.923C554.61 493.722 545.311 498.722 534.547 500.255C523.603 501.813 511.05 499.507 502.169 492.72C492.604 485.409 487.096 473.749 485.57 461.978C483.626 446.981 485.972 431.456 495.342 419.241C502.717 409.625 511.667 405.226 523.522 403.686ZM524.133 419.891C517.201 421.485 512.159 424.326 508.279 430.542C505.817 434.488 504.948 439.16 504.379 443.703L530.766 443.681L549.685 443.719C548.691 435.781 546.552 428.779 539.975 423.606C535.454 420.051 529.679 419.408 524.133 419.891Z"/>
	<path fill="#2C2C2C" d="M121.552 403.686C123.64 403.443 125.789 403.489 127.889 403.559C138.086 403.899 147.919 408.135 154.836 415.669C165.847 427.663 168.074 441.692 167.329 457.345L102.567 457.243C101.482 459.747 103.654 466.946 104.59 469.34C106.81 475.017 110.561 480.269 116.345 482.669C122.127 485.068 130.011 485.223 135.789 482.773C142.233 480.042 145.121 475.289 147.667 469.076L154.982 469.039L166.091 469.012C164.646 475.066 162.519 480.504 158.756 485.521C152.496 493.865 142.698 498.854 132.503 500.304C121.23 501.906 108.819 499.308 99.7171 492.35C90.683 485.444 85.1891 473.817 83.6926 462.747C81.6285 447.48 83.7619 431.747 93.3644 419.262C100.776 409.625 109.643 405.231 121.552 403.686ZM122.411 419.882C115.546 421.284 110.694 423.9 106.678 429.888C103.95 433.957 102.993 438.935 102.334 443.715L128.172 443.681L147.649 443.71C146.95 435.941 144.496 429.107 138.366 423.935C133.398 419.744 128.393 420.03 122.411 419.882Z"/>
	<path fill="#2C2C2C" d="M614.49 403.683C616.742 403.413 619.167 403.453 621.433 403.591C631.411 404.198 641.206 408.324 647.886 415.862C658.538 427.881 661.061 441.705 660.137 457.346L595.25 457.206C595.458 461.404 595.876 465.356 597.427 469.318C599.635 474.956 603.261 480.123 608.979 482.58C614.924 485.135 622.936 485.189 628.875 482.718C635.084 480.135 638.028 474.972 640.488 469.078L647.244 469.036L658.865 469.052C657.407 475.001 655.308 480.51 651.642 485.472C645.263 494.105 635.192 498.926 624.739 500.359C613.824 501.855 601.403 499.236 592.636 492.446C583.059 485.029 577.838 473.279 576.356 461.503C574.389 445.878 577.112 430.761 586.992 418.216C594.066 409.233 603.306 404.942 614.49 403.683ZM615.183 419.89C608.495 421.272 603.444 423.857 599.601 429.805C596.839 434.08 595.921 438.772 595.189 443.707L621.359 443.681L640.551 443.706C639.407 435.738 637.244 428.293 630.366 423.295C625.883 420.038 620.558 419.407 615.183 419.89Z"/>
	<path fill="#2C2C2C" d="M413.357 367.524C426.644 366.075 440.948 369.717 451.888 377.333C463.754 385.594 468.212 397.455 470.687 411.121L449.714 411.045C448.934 409.031 448.663 406.755 448.034 404.675C447.233 402.021 445.847 399.333 444.182 397.116C439.202 390.482 431.371 386.946 423.3 385.841C414.602 384.649 404.429 386.812 397.495 392.286C388.08 399.719 383.16 413.429 381.77 424.977C379.868 440.777 382.722 459.05 392.927 471.764C398.076 478.178 405.627 481.872 413.77 482.66C422.926 483.546 433.838 481.74 441.045 475.726C449.681 468.518 451.55 458.625 452.337 448.039L419.754 448.095L419.77 438.995L419.795 430.978L471.906 430.926L472.027 498.122C467.782 498.886 462.431 498.268 458.063 498.262L454.832 483.408C454.036 483.692 452.289 486.257 451.547 487.018C444.221 494.533 434.655 499.773 424.177 500.995C410.512 502.588 394.909 498.638 384.079 490.065C369.953 478.885 362.373 461.81 360.36 444.209C358.045 423.96 362.448 403.062 375.301 386.975C385.227 374.553 397.886 369.287 413.357 367.524Z"/>
	<path fill="#4094F6" d="M583.472 16.4193C588.285 16.7974 593.216 16.6675 598.047 16.8125L622.545 18.0581C665.285 21.2103 708.938 27.5262 749.327 42.3867C765.874 48.4752 781.84 55.97 796.221 66.2987C800.221 69.1711 803.88 72.5884 807.579 75.8263C818.122 85.0553 826.296 98.5632 830.172 111.954C830.706 113.802 831.552 115.9 831.588 117.82C831.626 119.842 830.597 120.789 829.268 122.108C828.169 122.672 827.156 123.018 825.906 122.745C824.005 122.329 821.845 120.88 820.237 119.812C815.438 116.627 811.178 112.711 806.609 109.216C795.5 100.715 783.919 93.921 770.93 88.6938C755.227 82.3744 738.518 78.2957 721.887 75.3291C692.682 70.1197 663.051 68.5943 633.425 68.5949L583.424 70.0059L583.472 16.4193Z"/>
	<defs>
		<linearGradient id="gradient_0" gradientUnits="userSpaceOnUse" x1="289.90384" y1="228.78816" x2="580.87268" y2="64.95916">
			<stop offset="0" stop-color="#2F70BC"/>
			<stop offset="1" stop-color="#3C8CE9"/>
		</linearGradient>
	</defs>
	<path fill="url(#gradient_0)" d="M478.746 0L497.527 0L497.992 0.0912672L549.915 6.34906L549.632 50.4014L549.642 126.359L549.633 152.827C549.625 162.807 549.789 172.238 547.268 182.017C543.613 196.194 535.129 209.856 524.287 219.672C492.132 248.787 450.484 257.06 408.484 259.748C392.058 260.8 375.325 261.197 358.876 260.329C346.671 259.684 334.187 258.257 322.381 255.022C312.479 252.308 303.053 248.412 296.059 240.633C294.528 238.93 293.302 236.455 292.429 234.356C290.046 228.626 288.355 222.42 286.213 216.566L268.843 168.638L260.107 144.908L277.587 123.352L303.199 192.719L308.956 208.72C310.187 212.2 311.327 216.015 313.045 219.28C314.4 221.852 316.232 223.823 318.91 225.073C323.891 227.399 331.46 227.527 336.883 228.211C359.006 231.005 381.929 231.342 404.016 228.001C416.187 226.16 428.357 223.684 439.8 218.999C464.007 209.09 484.478 193.064 494.789 168.383C504.93 144.107 504.089 119.064 504.092 93.3194L504.081 48.3782L504.077 25.2892C502.141 25.1682 485.444 24.5181 485.356 24.4384L484.088 23.8704L483.641 23.769L484.875 23.4752L484.77 22.2449C482.636 21.5017 480.362 22.1994 478.203 21.2629L478.438 20.452L480.292 20.6282L480.12 19.7878C478.604 19.6234 478.297 19.1144 477.396 18.0113L477.709 16.3072L477.027 15.9184L476.994 12.8176C475.985 11.692 475.572 10.1991 475.352 8.73497L475.305 8.39012C473.619 7.54975 473.459 6.10043 472.08 5.27925C470.939 4.59957 469.322 4.74184 468.058 4.21266C468.514 3.43999 469.149 2.84475 469.772 2.20778C471.235 2.53189 472.366 2.32788 473.802 2.05416L474.092 0.811379C475.538 0.343601 476.864 0.73995 478.427 0.130671L478.746 0Z"/>
	<path fill="#2D6CB6" d="M136.853 245.137C140.424 244.892 143.789 245.663 146.813 247.571C150.133 249.665 152.627 253.001 153.454 256.873C154.31 260.881 153.734 265.106 151.439 268.585C148.688 272.758 144.996 274.555 140.24 275.541C136.752 275.662 133.534 275.087 130.515 273.247C127.171 271.21 124.463 267.474 123.624 263.649C122.75 259.669 123.636 255.164 125.871 251.768C128.476 247.807 132.367 246.017 136.853 245.137Z"/>
	<defs>
		<linearGradient id="gradient_1" gradientUnits="userSpaceOnUse" x1="27.588219" y1="293.01447" x2="496.44324" y2="33.838661">
			<stop offset="0" stop-color="#255B9A"/>
			<stop offset="1" stop-color="#3A87E1"/>
		</linearGradient>
	</defs>
	<path fill="url(#gradient_1)" d="M464.876 0L478.746 0L478.427 0.130671C476.864 0.73995 475.538 0.343601 474.092 0.811379L473.802 2.05416C472.366 2.32788 471.235 2.53189 469.772 2.20778C469.149 2.84475 468.514 3.43999 468.058 4.21266C469.322 4.74184 470.939 4.59957 472.08 5.27925C473.459 6.10043 473.619 7.54975 475.305 8.39012L475.352 8.73497C475.572 10.1991 475.985 11.692 476.994 12.8176L477.027 15.9184L477.709 16.3072L477.396 18.0113C478.297 19.1144 478.604 19.6234 480.12 19.7878L480.292 20.6282L478.438 20.452L478.203 21.2629C480.362 22.1994 482.636 21.5017 484.77 22.2449L484.875 23.4752L483.641 23.769L484.088 23.8704L485.356 24.4384C473.049 24.7061 460.752 25.0209 448.5 26.3021C395.335 31.8613 343.691 49.5767 297.716 76.7562C280.491 86.9393 263.359 98.2756 249.453 112.803C218.45 145.192 199.726 190.807 200.726 235.872C200.872 242.438 201.297 248.95 200.993 255.53C200.169 273.378 195.334 289.9 182.848 303.069C178.254 307.914 172.466 311.946 166.954 315.681C151.277 326.305 134.148 334.792 115.578 338.928C110.085 340.151 104.566 341.232 98.9219 341.375C80.8118 341.833 64.1965 331.01 51.626 318.88C29.508 297.538 13.0504 270.597 0 242.951L0 236.881C0.885155 234.862 1.90979 232.991 3.23526 231.228C12.4809 218.933 24.0007 207.844 35.4095 197.583C64.5213 171.4 98.5161 149.883 136.461 139.277C146.805 136.386 157.357 134.591 167.977 133.087C172.671 139.943 176.11 148.269 179.259 155.95L162.396 158.156C153.753 159.332 144.873 161.688 136.609 164.382C103.78 175.083 74.4427 194.705 49.1796 217.989C42.9947 223.689 35.8045 229.886 30.8122 236.642C29.172 238.861 28.263 242.472 28.7187 245.185C29.4925 249.792 33.2633 254.934 35.7021 258.866C42.9202 270.503 50.6749 282.32 59.7986 292.562C65.2409 298.671 71.2766 304.604 77.9611 309.345C83.0388 312.946 89.218 316.16 95.4938 316.692C98.7355 316.967 102.056 316.454 105.249 315.902C122.016 313.008 137.612 305.692 151.749 296.396C160.842 290.417 169.555 283.982 173.695 273.516C176.451 266.551 176.365 259.526 176.281 252.189L176.319 234.792C177.529 193.25 189.588 150.078 213.748 115.997C229.054 94.4036 249.871 77.9703 271.884 63.6541C313.049 36.8823 358.743 17.8899 406.765 7.65442C417.967 5.26674 429.556 3.23881 440.95 2.11017C448.651 1.34738 456.889 1.41673 464.467 0.0747759L464.876 0Z"/>
</svg>
