<svg width="161" height="110" viewBox="0 0 161 110" fill="none" xmlns="http://www.w3.org/2000/svg">
<path d="M93.718 25.2897L93.7767 25.2372C93.7767 25.2372 93.4596 25.2537 92.9191 25.2465C92.8583 25.2465 92.7997 25.2372 92.7389 25.2372C92.7121 25.2372 92.6864 25.2372 92.6607 25.2372C90.1199 25.1744 83.878 24.5969 80.7185 20.59C80.7185 20.59 75.9982 15.8008 76.444 9.26552C76.444 6.80815 75.4678 4.45143 73.7302 2.71381C71.9925 0.976186 69.6358 0 67.1784 0C64.7211 0 62.3644 0.976186 60.6267 2.71381C58.8891 4.45143 57.9129 6.80815 57.9129 9.26552C57.9129 9.26552 57.8429 16.1766 53.8176 20.59C53.8176 20.59 49.9559 24.8687 42.2655 25.2331C39.8082 25.2331 37.4514 26.2093 35.7138 27.9469C33.9762 29.6845 33 32.0412 33 34.4986C33 36.956 33.9762 39.3127 35.7138 41.0503C37.4514 42.7879 39.8082 43.7641 42.2655 43.7641C42.2655 43.7641 49.9868 44.6454 53.4253 48.0819C53.4253 48.0819 57.6566 52.3564 58.0179 58.4191C57.9523 58.855 57.9179 59.295 57.915 59.7358C57.9156 60.0722 57.9349 60.4084 57.9726 60.7427C58.2361 63.0937 59.3888 65.255 61.1946 66.7834C63.0005 68.3118 65.3225 69.0915 67.6848 68.9628C70.0471 68.834 72.2706 67.8065 73.8996 66.0909C75.5286 64.3753 76.4397 62.1016 76.446 59.7358C76.446 57.7736 75.6173 55.9823 74.6187 54.3423C73.6581 52.764 71.7958 52.1082 70.1002 51.4977C67.5985 50.5969 65.0803 50.46 62.5611 49.7476C60.2006 49.0768 58.027 47.8694 56.2101 46.2199C54.3932 44.5703 52.9821 42.5232 52.087 40.2382C51.1919 37.9533 50.837 35.4924 51.05 33.0476C51.263 30.6029 52.0381 28.2404 53.3149 26.1447C54.5917 24.049 56.3355 22.2767 58.4103 20.9662C60.4852 19.6557 62.8348 18.8425 65.2758 18.59C67.7168 18.3375 70.1831 18.6526 72.4822 19.5106C74.7813 20.3687 76.851 21.7465 78.5297 23.5365C82.0383 27.2787 82.9391 32.3902 84.3248 37.1619C84.9034 39.1509 85.5499 40.7158 87.2465 41.9615C88.3925 42.806 89.7176 43.3751 91.1191 43.6246C92.5206 43.8742 93.9607 43.7974 95.3277 43.4004C96.6947 43.0033 97.9519 42.2966 99.0016 41.3351C100.051 40.3736 100.865 39.1832 101.381 37.8562C101.896 36.5292 102.098 35.1013 101.973 33.6833C101.847 32.2654 101.396 30.8955 100.655 29.68C99.914 28.4645 98.9029 27.4361 97.7003 26.6745C96.4976 25.913 95.1356 25.4387 93.72 25.2887L93.718 25.2897Z" fill="url(#paint0_linear_1601_126)"/>
<path d="M66.3601 43.7092L66.3014 43.7617C66.3014 43.7617 66.6185 43.7463 67.159 43.7535C67.2197 43.7535 67.2784 43.7617 67.3391 43.7617C67.3659 43.7617 67.3916 43.7617 67.4174 43.7617C69.9582 43.8255 76.2001 44.4021 79.3596 48.4089C79.3596 48.4089 84.0799 53.1981 83.6341 59.7334C83.6341 62.1908 84.6103 64.5475 86.3479 66.2851C88.0855 68.0227 90.4422 68.9989 92.8996 68.9989C95.357 68.9989 97.7137 68.0227 99.4513 66.2851C101.189 64.5475 102.165 62.1908 102.165 59.7334C102.165 59.7334 102.235 52.8224 106.26 48.4089C106.26 48.4089 110.122 44.1303 117.813 43.7658C120.27 43.7658 122.627 42.7897 124.364 41.052C126.102 39.3144 127.078 36.9577 127.078 34.5003C127.078 32.043 126.102 29.6862 124.364 27.9486C122.627 26.211 120.27 25.2348 117.813 25.2348C117.813 25.2348 110.091 24.3535 106.653 20.9181C106.653 20.9181 102.421 16.6426 102.06 10.5798C102.126 10.1439 102.16 9.70391 102.163 9.26311C102.162 8.92703 102.143 8.59124 102.105 8.25729C101.842 5.9063 100.689 3.74511 98.8836 2.21673C97.0779 0.688345 94.756 -0.0914632 92.3938 0.0371518C90.0316 0.165767 87.8081 1.19306 86.179 2.90846C84.5499 4.62386 83.6386 6.89742 83.632 9.26311C83.632 11.2253 84.4608 13.0167 85.4594 14.6567C86.4199 16.2349 88.2823 16.8907 89.9779 17.5012C92.4796 18.402 94.9977 18.5389 97.5169 19.2513C99.8781 19.9217 102.052 21.1289 103.87 22.7784C105.687 24.428 107.099 26.4753 107.995 28.7606C108.89 31.0459 109.245 33.5073 109.032 35.9525C108.82 38.3977 108.044 40.7607 106.767 42.8568C105.49 44.9529 103.746 46.7255 101.671 48.0361C99.5955 49.3467 97.2453 50.1599 94.8038 50.4122C92.3624 50.6644 89.8956 50.3489 87.5962 49.4903C85.2968 48.6317 83.2269 47.2532 81.5483 45.4625C78.0398 41.7202 77.139 36.6087 75.7533 31.837C75.1747 29.848 74.5282 28.2832 72.8315 27.0375C71.6853 26.1947 70.3603 25.6272 68.9594 25.3789C67.5585 25.1307 66.1192 25.2085 64.7532 25.6061C63.3871 26.0038 62.131 26.7107 61.0822 27.672C60.0334 28.6334 59.2201 29.8233 58.7052 31.1497C58.1904 32.476 57.988 33.9031 58.1136 35.3203C58.2392 36.7375 58.6894 38.1067 59.4295 39.3218C60.1695 40.537 61.1794 41.5653 62.381 42.3273C63.5825 43.0892 64.9433 43.5642 66.358 43.7154L66.3601 43.7092Z" fill="url(#paint1_linear_1601_126)"/>
<path d="M145.058 102.923C145.282 102.905 145.323 102.889 145.527 103C145.552 103.266 145.606 103.404 145.458 103.641C145.278 103.644 145.15 103.659 144.996 103.549C144.99 103.324 144.984 103.14 145.058 102.923Z" fill="white" fill-opacity="0.984314"/>
<path d="M94.761 102.922C94.8868 102.875 95.016 102.91 95.1451 102.93C95.2748 103.134 95.2386 103.315 95.2389 103.55L95.1523 103.595C94.9559 103.673 94.8628 103.634 94.6855 103.554C94.6639 103.321 94.6976 103.146 94.761 102.922Z" fill="white"/>
<path d="M37.1347 102.762C37.2062 102.778 37.2361 102.799 37.2958 102.839C37.0397 103.187 36.7189 103.655 36.3145 103.799C36.1766 103.764 36.1863 103.769 36.1125 103.647L36.5208 102.954C36.6753 102.752 36.9043 102.783 37.1347 102.762Z" fill="white"/>
<path d="M119.543 105.454C119.739 105.409 119.849 105.462 120.032 105.537C120.224 105.795 120.227 105.823 120.23 106.146C120.099 106.376 120.047 106.395 119.809 106.521C119.666 106.534 119.508 106.478 119.386 106.401C119.192 106.278 119.197 106.118 119.163 105.915C119.279 105.657 119.311 105.616 119.543 105.454Z" fill="white"/>
<path d="M44.8001 105.453C45.012 105.412 45.1209 105.455 45.3175 105.537C45.4574 105.738 45.5077 105.847 45.4914 106.094C45.3336 106.351 45.2889 106.381 45.0187 106.52C44.9019 106.526 44.772 106.485 44.6719 106.422C44.4633 106.291 44.4497 106.136 44.3877 105.915C44.5198 105.64 44.538 105.605 44.8001 105.453Z" fill="white"/>
<path d="M36.3063 104.302C36.4553 104.293 36.5823 104.324 36.726 104.356C36.8335 104.678 36.7761 105.157 36.7748 105.499L36.7615 107.918L36.6483 108.024C36.439 108.042 36.3884 108.072 36.2061 107.957C36.1635 107.258 36.0249 104.759 36.3063 104.302Z" fill="white"/>
<path d="M145.006 104.375C145.048 104.356 145.066 104.345 145.116 104.337C145.3 104.307 145.426 104.294 145.566 104.413C145.59 105.557 145.702 106.869 145.536 107.995L145.151 108.06L145.014 107.952L145.006 104.375Z" fill="white"/>
<path d="M94.823 104.298C94.9768 104.272 95.0922 104.309 95.2386 104.349L95.2526 104.416C95.3048 104.682 95.2689 105 95.2693 105.273L95.2695 107.037C95.2693 107.367 95.3419 107.762 95.1614 108.038C95.0071 108.054 94.8935 108.044 94.7401 108.017C94.5949 107.756 94.6617 107.326 94.6609 107.026L94.6628 104.452L94.823 104.298Z" fill="white"/>
<path d="M92.5216 102.913C92.6613 102.881 92.8217 102.889 92.9664 102.883C93.2208 103.168 93.0864 107.255 93.082 107.861L92.9641 108.039C92.7536 108.046 92.6937 108.074 92.5159 107.953L92.5216 102.913Z" fill="white"/>
<path d="M24.6044 102.92C24.7411 102.884 24.8892 102.889 25.0302 102.883C25.3031 103.197 25.1626 107.203 25.1457 107.935L25.0194 108.035C24.8082 108.054 24.7625 108.094 24.5934 107.956C24.5324 107.085 24.5653 106.193 24.5648 105.319C24.5642 104.526 24.5246 103.709 24.6044 102.92Z" fill="white"/>
<path d="M143.564 104.22L143.716 104.207L143.82 104.297C143.841 104.435 143.886 104.714 143.765 104.824C143.737 104.849 143.509 104.897 143.458 104.913C143.084 105.033 142.793 105.211 142.654 105.599C142.479 106.088 142.557 106.838 142.55 107.365C142.546 107.6 142.576 107.824 142.455 108.033L142.07 108.047L141.959 107.836L141.97 104.374C142.18 104.291 142.254 104.321 142.473 104.356C142.497 104.557 142.526 104.715 142.609 104.901C142.843 104.493 143.135 104.348 143.564 104.22Z" fill="white"/>
<path d="M73.4685 102.914C73.7104 102.885 73.7783 102.84 73.9893 102.974L74.0132 105.97C74.0142 106.632 74.0619 107.336 73.9728 107.991C73.8386 108.03 73.6958 108.031 73.5567 108.043L73.4152 107.914L73.4016 104.54C73.4025 104.034 73.3284 103.391 73.4685 102.914Z" fill="white"/>
<path d="M67.3961 104.223L67.6253 104.207C67.6607 104.262 67.696 104.31 67.703 104.377C67.7085 104.429 67.7091 104.749 67.6852 104.79C67.6276 104.888 67.1877 104.947 67.0628 105.002C66.7634 105.131 66.6229 105.351 66.5078 105.643C66.3127 106.138 66.4065 106.919 66.4037 107.46C66.4028 107.662 66.4422 107.86 66.3154 108.03C66.1096 108.039 66.011 108.07 65.8298 107.965L65.7991 107.685L65.801 104.42L65.9303 104.326C66.1519 104.332 66.2329 104.289 66.3902 104.454L66.3455 104.877L66.4232 104.915C66.6974 104.531 66.9566 104.371 67.3961 104.223Z" fill="white"/>
<path d="M78.2943 102.912C78.5414 102.89 78.6968 102.839 78.9219 102.964L78.9431 106.029C78.9444 106.672 78.9918 107.358 78.9088 107.994C78.6707 108.018 78.4761 108.095 78.2803 107.947L78.2943 102.912Z" fill="white"/>
<path d="M110.871 103.229C111.009 103.19 111.105 103.211 111.244 103.229C111.42 103.465 111.337 103.831 111.364 104.114C111.397 104.463 111.869 104.251 112.14 104.46C112.03 105.096 111.719 104.667 111.371 104.96L111.371 106.718C111.379 107.04 111.317 107.234 111.556 107.46C111.736 107.47 111.94 107.454 112.084 107.576L112.107 107.886L112.021 108.021C111.753 108.041 111.503 108.052 111.24 107.989C111.156 107.968 110.945 107.898 110.888 107.826C110.805 107.719 110.788 107.414 110.781 107.277C110.754 106.691 110.783 106.1 110.79 105.513C110.793 105.296 110.837 105.064 110.721 104.873C110.511 104.873 110.362 104.873 110.171 104.78L110.142 104.498C110.319 104.25 110.504 104.429 110.727 104.272C110.769 104.242 110.831 103.384 110.871 103.229Z" fill="white"/>
<path d="M63.3098 103.224C63.4413 103.178 63.5263 103.205 63.6586 103.232C63.8708 103.486 63.7733 103.791 63.8217 104.108C63.8698 104.424 64.3002 104.282 64.5609 104.455L64.5059 104.755C64.3137 104.867 64.1063 104.855 63.8897 104.866C63.7811 105.069 63.8188 105.327 63.8185 105.552L63.8609 107.34C64.0346 107.494 64.2274 107.485 64.4521 107.52C64.5672 107.725 64.5312 107.768 64.4927 107.994C64.2866 108.042 63.9508 108.064 63.7464 108.013C62.6409 107.736 63.5873 105.592 63.1579 104.873C62.959 104.876 62.8077 104.886 62.6261 104.798C62.5796 104.601 62.5698 104.577 62.6429 104.378C62.7829 104.353 62.9649 104.336 63.0927 104.273C63.2643 104.189 63.225 103.465 63.3098 103.224Z" fill="white"/>
<path d="M85.4926 103.224C85.6242 103.178 85.7091 103.205 85.8418 103.231C86.0544 103.486 85.9571 103.791 86.0051 104.109C86.0523 104.423 86.4855 104.283 86.7472 104.455L86.7074 104.721C86.5784 104.827 86.5077 104.836 86.3395 104.848C86.2161 104.856 86.1359 104.853 86.0263 104.917C85.9694 105.412 85.8862 107.09 86.1333 107.455L86.6399 107.517C86.7483 107.723 86.7144 107.77 86.6768 107.994C86.4484 108.053 86.0845 108.062 85.8587 107.996C84.8802 107.71 85.7482 105.556 85.3411 104.873C85.1426 104.877 84.9907 104.886 84.8091 104.799C84.7625 104.601 84.7524 104.578 84.8263 104.378C84.9659 104.354 85.149 104.337 85.2763 104.273C85.4475 104.187 85.408 103.465 85.4926 103.224Z" fill="white"/>
<path d="M12.1585 104.203L12.521 104.218C12.934 104.256 13.3345 104.411 13.5981 104.742C13.7473 104.929 13.8752 105.221 13.8514 105.456C13.6435 105.521 13.5075 105.496 13.296 105.456C13.1472 105.214 12.9838 104.929 12.7041 104.824C12.439 104.724 12.0763 104.753 11.8281 104.885C11.5628 105.027 11.4259 105.279 11.343 105.558C11.1985 106.043 11.1902 106.657 11.4605 107.104C11.5969 107.329 11.8452 107.505 12.1049 107.553C12.4757 107.622 12.7375 107.477 13.0202 107.265C13.1162 107.094 13.208 106.908 13.3374 106.759C13.4424 106.638 13.6284 106.674 13.7847 106.665L13.8743 106.764C13.8244 107.013 13.722 107.266 13.5921 107.485C13.3958 107.816 13.1442 107.952 12.7833 108.042C12.3058 108.161 11.7854 108.132 11.3633 107.867C10.9912 107.635 10.7244 107.179 10.6383 106.754C10.5225 106.181 10.5968 105.365 10.9495 104.882C11.2894 104.417 11.6071 104.302 12.1585 104.203Z" fill="white"/>
<path d="M2 102.877C2.61617 102.879 5.68329 102.759 5.98531 102.99L5.97878 103.395C5.68102 103.571 4.69011 103.449 4.32555 103.437C4.32798 104.112 4.46074 107.734 4.23371 108.04L3.81008 108.054C3.64144 107.893 3.69386 107.682 3.68841 107.457L3.69718 103.447L2 103.459V102.877Z" fill="white"/>
<path d="M107.544 104.203C107.836 104.221 108.165 104.226 108.428 104.368C108.711 104.522 108.82 104.743 108.894 105.043C109.06 105.715 108.981 106.538 108.972 107.229C108.969 107.491 109.009 107.81 108.872 108.039L108.487 108.064C108.332 107.849 108.381 107.615 108.379 107.355C108.374 106.695 108.539 105.367 108.063 104.882C107.747 104.729 107.496 104.764 107.172 104.861L107.1 104.884C106.361 105.363 106.548 106.54 106.54 107.325C106.537 107.581 106.577 107.809 106.446 108.035L106.099 108.048C105.898 107.826 105.979 107.295 105.977 106.989L105.987 104.38C106.179 104.3 106.281 104.334 106.484 104.359L106.553 104.765L106.74 104.611C107.012 104.385 107.198 104.289 107.544 104.203Z" fill="white"/>
<path d="M82.2489 104.203C82.5796 104.229 82.9078 104.246 83.1827 104.455C83.4223 104.638 83.4987 104.921 83.5439 105.204C83.6504 105.877 83.5871 106.644 83.5808 107.327C83.5788 107.543 83.6225 107.85 83.4919 108.028L83.1453 108.064C82.685 107.675 83.187 105.785 82.9011 105.164C82.8308 105.011 82.7121 104.887 82.5557 104.831C82.244 104.717 81.9535 104.771 81.6659 104.915L81.6048 104.946C81.0002 105.457 81.1667 106.584 81.1625 107.306C81.161 107.573 81.2021 107.807 81.0658 108.042C80.8451 108.04 80.7636 108.083 80.6036 107.922C80.5507 107.064 80.5753 106.192 80.5753 105.332C80.5753 105.07 80.5059 104.575 80.642 104.352L80.9501 104.317C81.3159 104.476 81.001 104.526 81.1714 104.776C81.5129 104.403 81.7654 104.292 82.2489 104.203Z" fill="white"/>
<path d="M139.964 104.294C140.147 104.28 140.224 104.295 140.392 104.371C140.39 105.558 140.496 106.82 140.375 107.996C140.193 108.034 140.074 108.046 139.891 108.007C139.833 107.855 139.792 107.712 139.759 107.553L139.628 107.679C139.455 107.849 139.328 107.974 139.085 108.031C138.576 108.151 138.185 108.11 137.736 107.833C137.286 107.207 137.395 106.489 137.4 105.756C137.401 105.395 137.297 104.601 137.487 104.323C137.627 104.311 137.762 104.288 137.898 104.339C137.994 104.374 137.986 104.463 137.99 104.555C138.029 105.35 137.829 106.525 138.094 107.256C138.288 107.452 138.448 107.564 138.739 107.559C138.997 107.555 139.253 107.485 139.436 107.294C139.994 106.712 139.794 105.198 139.8 104.412L139.964 104.294Z" fill="white"/>
<path d="M60.1765 104.207C60.4235 104.239 60.7519 104.254 60.9561 104.406C61.258 104.631 61.3539 104.999 61.3854 105.355C61.4413 105.983 61.3969 106.648 61.3918 107.279C61.3907 107.422 61.433 107.795 61.3859 107.916C61.3647 107.972 61.309 108.006 61.2705 108.051L60.9239 108.049C60.7703 107.852 60.8105 107.68 60.8027 107.433L60.7794 105.762C60.776 105.567 60.8039 105.3 60.7119 105.123C60.6141 104.933 60.4213 104.813 60.2142 104.776C59.9458 104.729 59.6369 104.813 59.4139 104.96L59.3679 104.993C58.8294 105.525 59.0015 106.669 59.0023 107.381C59.0025 107.64 59.0611 107.853 58.8829 108.051C58.673 108.043 58.5799 108.078 58.4206 107.934C58.3516 107.038 58.3952 106.115 58.3943 105.214C58.3941 105.07 58.3404 104.567 58.3937 104.454C58.417 104.405 58.4631 104.37 58.4976 104.328L58.8057 104.319C59.1132 104.516 58.8294 104.536 58.9875 104.774C59.3675 104.365 59.6312 104.282 60.1765 104.207Z" fill="white"/>
<path d="M16.9359 104.203C17.2222 104.208 17.6298 104.279 17.8578 104.464C18.0864 104.649 18.2054 104.992 18.2333 105.278C18.2974 105.935 18.251 106.639 18.2483 107.3C18.2477 107.447 18.2897 107.792 18.245 107.92C18.2266 107.973 18.1729 108.005 18.1369 108.048L17.7518 108.043C17.5854 107.852 17.6446 107.574 17.6439 107.324C17.642 106.658 17.7376 105.81 17.5696 105.169C17.537 105.044 17.3727 104.889 17.2581 104.835C16.9853 104.708 16.6502 104.777 16.3882 104.895L16.3364 104.92C15.3899 105.517 16.1596 107.178 15.7855 108.026C15.6102 108.063 15.5011 108.08 15.3268 108.032C15.1766 107.758 15.244 107.287 15.2429 106.978C15.2398 106.12 15.1941 105.234 15.2707 104.381L15.4777 104.301C16.0006 104.437 15.6193 104.44 15.8647 104.726L16.1165 104.535C16.3917 104.328 16.6068 104.27 16.9359 104.203Z" fill="white"/>
<path d="M50.142 102.762C50.4704 102.784 50.7874 102.826 51.0879 102.965C51.717 103.256 51.9569 103.678 52.1797 104.308L52.1046 104.443C51.921 104.449 51.7476 104.441 51.5654 104.42C51.456 104.176 51.309 103.887 51.1096 103.702C50.8557 103.467 50.4441 103.344 50.1018 103.35C49.6476 103.357 49.2877 103.49 48.9769 103.823C48.5249 104.307 48.4076 105.032 48.4457 105.674C48.4804 106.259 48.6506 106.821 49.1047 107.214C49.3855 107.458 49.836 107.591 50.2065 107.561C50.6634 107.523 50.938 107.371 51.2269 107.024C51.3898 106.737 51.469 106.302 51.7193 106.092C51.9429 106.074 52.0083 106.058 52.2174 106.154C52.1543 106.643 52.0077 107.11 51.6981 107.502C51.371 107.916 50.8278 108.076 50.3254 108.138C49.7289 108.212 49.052 108.047 48.586 107.66C48.1067 107.262 47.8356 106.534 47.7777 105.931C47.6966 105.087 47.8445 104.178 48.4026 103.51C48.8916 102.925 49.4145 102.828 50.142 102.762Z" fill="white"/>
<path d="M114.746 104.203C115.19 104.243 115.585 104.289 115.935 104.596C116.422 105.025 116.499 105.754 116.551 106.361C115.712 106.353 114.669 106.224 113.856 106.382C113.848 106.447 113.841 106.474 113.844 106.535C113.859 106.842 114.034 107.165 114.263 107.363C114.479 107.549 114.848 107.597 115.12 107.554C115.544 107.485 115.665 107.25 115.898 106.921C116.044 106.817 116.21 106.834 116.382 106.83L116.451 106.96C116.283 107.374 116.115 107.63 115.791 107.939C115.225 108.098 114.634 108.215 114.086 107.922C113.665 107.697 113.392 107.286 113.275 106.83C113.12 106.221 113.164 105.517 113.501 104.975C113.796 104.503 114.223 104.313 114.746 104.203ZM114.798 104.767C114.511 104.834 114.26 104.88 114.092 105.145L113.755 105.805L115.092 105.802L115.804 105.788C115.879 105.622 115.863 105.582 115.8 105.406C115.725 105.199 115.45 104.94 115.252 104.849C115.112 104.785 114.95 104.775 114.798 104.767Z" fill="white"/>
<path d="M89.3238 104.203C89.7222 104.23 90.1149 104.252 90.4461 104.501C91.0048 104.92 91.1175 105.714 91.2092 106.354L89.1862 106.341C88.9638 106.34 88.6487 106.291 88.4604 106.416L88.4615 106.49C88.4763 106.792 88.6223 107.154 88.8627 107.344C89.102 107.533 89.4006 107.599 89.7004 107.558C90.1179 107.5 90.2743 107.254 90.5195 106.945C90.6713 106.815 90.7682 106.836 90.9637 106.818L91.0655 106.919L90.9089 107.347C90.7559 107.655 90.4616 107.933 90.127 108.019C89.6682 108.139 89.0607 108.162 88.6432 107.903C88.2244 107.644 87.9695 107.185 87.8613 106.717C87.734 106.166 87.7974 105.441 88.1165 104.96C88.4119 104.515 88.8172 104.317 89.3238 104.203ZM89.3929 104.747C89.0338 104.85 88.7708 104.98 88.5829 105.327C88.5048 105.471 88.476 105.603 88.4687 105.765C88.8483 105.841 89.285 105.801 89.6735 105.799L90.4148 105.778L90.4821 105.649C90.3864 105.35 90.2789 105.069 90.0009 104.891C89.8384 104.787 89.5815 104.769 89.3929 104.747Z" fill="white"/>
<path d="M7.68201 104.203C8.09728 104.229 8.48605 104.25 8.82739 104.516C9.37944 104.946 9.46793 105.74 9.55059 106.382C8.68083 106.277 7.73144 106.336 6.85278 106.356L6.79526 106.495C6.88727 106.863 6.97926 107.238 7.33947 107.439C7.58619 107.578 7.92648 107.593 8.19403 107.524L8.27774 107.5C8.53682 107.427 8.6565 107.204 8.80325 106.995C9.00614 106.817 9.113 106.825 9.37406 106.818C9.3973 107.024 9.35131 107.153 9.25522 107.332C9.075 107.668 8.86195 107.896 8.48958 108.007C8.03215 108.143 7.44837 108.152 7.0249 107.909C6.58988 107.661 6.36352 107.285 6.23912 106.807C6.09118 106.239 6.12819 105.519 6.44712 105.011C6.75897 104.514 7.12237 104.328 7.68201 104.203ZM7.73508 104.763C7.34398 104.861 7.14825 104.957 6.9404 105.309C6.86025 105.445 6.8171 105.57 6.79522 105.725C7.02509 105.89 7.77211 105.801 8.07193 105.799L8.76141 105.776C8.83171 105.646 8.83704 105.649 8.79368 105.504C8.70599 105.212 8.49471 104.982 8.21942 104.85C8.06794 104.777 7.90032 104.77 7.73508 104.763Z" fill="white"/>
<path d="M102.889 104.203C103.208 104.225 103.551 104.25 103.835 104.409C104.251 104.642 104.493 105.194 104.602 105.639C104.657 105.868 104.721 106.152 104.597 106.354L102.055 106.345L101.961 106.457L102.029 106.828C102.088 107.083 102.281 107.3 102.508 107.426C102.777 107.575 103.093 107.607 103.387 107.515C103.712 107.414 103.859 107.195 104.02 106.918C104.168 106.807 104.343 106.82 104.52 106.809L104.581 106.918L104.405 107.38C104.236 107.695 103.926 107.929 103.584 108.023C103.111 108.153 102.561 108.138 102.132 107.881C101.706 107.626 101.481 107.164 101.371 106.698C101.243 106.156 101.314 105.434 101.63 104.961C101.952 104.478 102.346 104.313 102.889 104.203ZM102.91 104.742C102.527 104.852 102.291 104.956 102.088 105.328C102.014 105.464 101.979 105.573 101.965 105.726C102.233 105.873 102.8 105.799 103.12 105.8L103.904 105.788L103.985 105.687C103.914 105.364 103.775 105.093 103.491 104.905C103.317 104.79 103.112 104.768 102.91 104.742Z" fill="white"/>
<path d="M129.499 104.203C129.764 104.207 130.079 104.222 130.331 104.309C130.683 104.43 130.94 104.684 131.094 105.017L131.118 105.072C131.317 105.504 131.379 105.914 131.437 106.383C130.837 106.307 130.193 106.343 129.588 106.339C129.322 106.338 128.95 106.289 128.702 106.38L128.726 106.703C128.759 106.971 128.922 107.216 129.145 107.368C129.387 107.534 129.712 107.609 130 107.543C130.4 107.45 130.538 107.243 130.744 106.919C130.859 106.808 131.057 106.82 131.209 106.805L131.29 106.899L131.17 107.264C131.042 107.571 130.781 107.86 130.466 107.974C130 108.144 129.391 108.162 128.943 107.933C128.527 107.721 128.266 107.318 128.138 106.878C127.956 106.249 127.986 105.609 128.312 105.032C128.584 104.551 128.982 104.345 129.499 104.203ZM129.296 104.841C129.028 104.994 128.839 105.168 128.745 105.472C128.715 105.569 128.702 105.664 128.697 105.765C129.18 105.864 129.769 105.8 130.265 105.8L130.67 105.784C130.711 105.575 130.665 105.408 130.549 105.226C130.412 105.01 130.152 104.824 129.9 104.786C129.694 104.755 129.495 104.785 129.296 104.841Z" fill="white"/>
<path d="M39.5942 104.207C39.9258 104.192 40.4641 104.211 40.7434 104.404C41.494 104.923 40.9815 106.523 41.1622 107.323C41.2103 107.536 41.3597 107.576 41.5317 107.687C41.5086 107.907 41.5027 107.923 41.3537 108.086L40.9743 108.105C40.7384 108.077 40.659 107.849 40.5507 107.669C40.0621 107.981 39.4717 108.22 38.8807 108.066C38.5715 107.986 38.3527 107.811 38.1965 107.533C38.1002 107.279 38.0734 106.954 38.1383 106.687C38.3679 105.741 39.8289 106.037 40.4737 105.615C40.5029 105.532 40.5412 105.43 40.5388 105.34C40.5337 105.152 40.4679 104.994 40.3103 104.891C40.0479 104.722 39.6073 104.729 39.3183 104.822C39.1369 104.88 39.0442 104.986 38.9545 105.149C38.9012 105.245 38.8631 105.324 38.7844 105.404C38.6786 105.511 38.5027 105.471 38.3555 105.475L38.2528 105.34C38.2926 105.14 38.3372 104.948 38.4534 104.775C38.7201 104.38 39.1524 104.286 39.5942 104.207ZM40.3052 106.225C39.7673 106.306 39.1896 106.295 38.817 106.725C38.759 106.996 38.759 107.06 38.8379 107.325L39.0872 107.493C39.4156 107.589 39.7827 107.582 40.0894 107.411C40.2567 107.317 40.4271 107.169 40.4775 106.976C40.5348 106.759 40.5168 106.489 40.5151 106.264C40.414 106.217 40.4248 106.208 40.3052 106.225Z" fill="white"/>
<path d="M153.142 104.217C153.522 104.18 154.132 104.206 154.446 104.434C155.161 104.954 154.649 106.604 154.836 107.382C154.877 107.555 155.019 107.585 155.164 107.665V107.913C154.988 108.122 154.941 108.093 154.664 108.126C154.385 108.009 154.33 107.88 154.163 107.639L154.039 107.73L153.825 107.901C153.526 108.106 152.952 108.141 152.595 108.078C152.229 108.013 152.038 107.831 151.837 107.538C151.786 107.311 151.732 107.088 151.784 106.855C152.06 105.596 153.311 106.176 154.063 105.66C154.194 105.57 154.175 105.456 154.202 105.306C154.137 105.114 154.123 105.017 153.951 104.893C153.715 104.724 153.336 104.748 153.063 104.808C152.831 104.859 152.723 104.977 152.606 105.175L152.506 105.345C152.377 105.521 152.202 105.485 152.006 105.496L151.901 105.345C151.95 105.146 152.003 104.946 152.118 104.774C152.352 104.424 152.754 104.307 153.142 104.217ZM153.959 106.229C153.382 106.321 152.849 106.301 152.452 106.768C152.426 106.973 152.399 107.115 152.488 107.307C152.581 107.378 152.67 107.457 152.776 107.507C153.182 107.605 153.512 107.548 153.873 107.336C153.992 107.267 154.115 107.046 154.151 106.916C154.212 106.7 154.199 106.452 154.195 106.229C154.116 106.227 154.038 106.223 153.959 106.229Z" fill="white"/>
<path d="M124.684 102.762C125.007 102.783 125.338 102.802 125.646 102.911C125.994 103.034 126.304 103.338 126.444 103.68C126.543 103.924 126.631 104.159 126.538 104.406C126.287 104.415 126.202 104.441 125.979 104.313L125.796 103.911C125.656 103.657 125.399 103.461 125.118 103.393C124.671 103.285 124.259 103.393 123.873 103.621C123.748 103.797 123.598 104.006 123.63 104.236C123.75 105.091 125.639 105.094 126.304 105.553C126.629 105.777 126.763 106.057 126.819 106.442C126.871 106.799 126.754 107.251 126.525 107.535C126.112 108.044 125.347 108.116 124.745 108.176C124.344 108.137 123.89 108.039 123.547 107.82C123.144 107.563 122.949 107.23 122.843 106.772C122.799 106.581 122.761 106.546 122.868 106.376C123.047 106.358 123.234 106.305 123.39 106.429C123.409 106.444 123.479 106.706 123.494 106.745C123.582 106.984 123.689 107.129 123.892 107.28C124.25 107.547 124.789 107.607 125.22 107.543C125.534 107.496 125.799 107.423 125.983 107.147C126.11 106.956 126.176 106.707 126.128 106.481C125.955 105.666 124.085 105.641 123.407 105.202C123.173 105.051 123.064 104.905 123.007 104.631C122.934 104.285 122.959 103.768 123.173 103.467C123.539 102.953 124.1 102.845 124.684 102.762Z" fill="white"/>
<path d="M21.1803 104.203C21.5487 104.22 21.97 104.246 22.2961 104.43C22.7038 104.661 22.9675 105.077 23.0756 105.525C23.2115 106.089 23.1764 106.826 22.8627 107.328C22.5644 107.806 22.2116 107.979 21.6779 108.102C21.2894 108.126 20.8087 108.096 20.469 107.888C20.0731 107.646 19.8013 107.22 19.6945 106.773C19.5591 106.206 19.6137 105.467 19.9406 104.971C20.2614 104.484 20.6267 104.323 21.1803 104.203ZM21.3406 104.738C20.9185 104.864 20.6488 104.958 20.4332 105.38C20.2283 105.781 20.2192 106.427 20.3794 106.843C20.4879 107.126 20.7479 107.389 21.0277 107.504C21.1669 107.561 21.3007 107.57 21.449 107.567C21.8377 107.463 22.1065 107.359 22.3096 106.98C22.5373 106.554 22.5612 105.984 22.3995 105.534C22.2935 105.238 22.1242 105.008 21.8341 104.865C21.7296 104.813 21.6111 104.793 21.4981 104.77L21.3999 104.749L21.3406 104.738Z" fill="white"/>
<path d="M27.976 104.207C28.3708 104.189 28.8313 104.231 29.1764 104.431C29.5806 104.665 29.8491 105.068 29.959 105.516C30.113 106.142 30.0387 106.867 29.6906 107.417C29.4046 107.869 29.029 107.988 28.5406 108.1C28.1406 108.128 27.6526 108.072 27.3027 107.858C26.955 107.644 26.681 107.177 26.5836 106.792C26.4313 106.189 26.5024 105.473 26.8318 104.941C27.0932 104.518 27.5085 104.32 27.976 104.207ZM28.1988 104.738C27.8202 104.85 27.5259 104.985 27.3331 105.357C27.1228 105.762 27.1065 106.416 27.2715 106.839C27.3837 107.127 27.5913 107.368 27.8804 107.489C28.0333 107.553 28.2213 107.574 28.3857 107.583C28.767 107.449 29.0438 107.334 29.2289 106.943C29.4329 106.512 29.4545 105.925 29.2698 105.484C29.1703 105.246 28.9284 104.949 28.684 104.842C28.5403 104.779 28.3543 104.758 28.1988 104.738Z" fill="white"/>
<path d="M55.0481 104.207C55.4835 104.226 55.8731 104.259 56.2538 104.494C56.6455 104.736 56.8581 105.179 56.9525 105.615C57.0979 106.286 56.9805 106.933 56.5987 107.503C56.2993 107.951 55.8875 108.007 55.397 108.103C55.0893 108.115 54.6286 108.067 54.366 107.908C53.9179 107.637 53.6457 107.21 53.537 106.705C53.4187 106.156 53.4875 105.395 53.8207 104.926C54.1388 104.478 54.5239 104.309 55.0481 104.207ZM55.1744 104.735C54.809 104.841 54.5265 104.967 54.3364 105.316C54.1072 105.737 54.0848 106.367 54.2327 106.818C54.3214 107.089 54.5385 107.341 54.7962 107.465C54.9837 107.555 55.2121 107.576 55.4169 107.551C55.7698 107.455 56.0041 107.295 56.1867 106.971C56.4225 106.553 56.4057 105.98 56.272 105.531C56.2024 105.297 55.9546 104.963 55.7286 104.859C55.5644 104.783 55.3521 104.762 55.1744 104.735Z" fill="white"/>
<path d="M70.0783 104.203C70.4645 104.225 70.8628 104.265 71.2011 104.472C71.6137 104.723 71.8154 105.108 71.9269 105.566C72.0708 106.157 72.0272 106.856 71.688 107.379C71.3895 107.838 70.9453 107.99 70.4343 108.101C70.0733 108.122 69.6568 108.082 69.3375 107.901C68.9466 107.679 68.6102 107.179 68.5109 106.744C68.3848 106.194 68.4636 105.392 68.7989 104.917C69.1362 104.439 69.5262 104.297 70.0783 104.203ZM70.1393 104.763C69.8035 104.833 69.5639 104.956 69.369 105.249C69.1255 105.614 69.0685 106.202 69.1673 106.622C69.2454 106.953 69.434 107.295 69.7495 107.456C69.9014 107.533 70.1126 107.57 70.2823 107.564C70.6384 107.485 70.8888 107.42 71.1002 107.092C71.3588 106.69 71.3971 106.128 71.2915 105.668C71.2191 105.353 71.057 105.072 70.7756 104.9C70.5805 104.781 70.3644 104.757 70.1393 104.763Z" fill="white"/>
<path d="M149.779 102.914C149.996 102.893 150.142 102.833 150.323 102.97L150.346 106.932C150.346 107.128 150.411 107.764 150.345 107.915C150.322 107.968 150.271 108.004 150.234 108.048L149.82 108.008C149.769 107.916 149.719 107.827 149.657 107.742C149.517 107.834 149.375 107.929 149.216 107.983C148.607 108.191 148.158 108.096 147.609 107.819C147.292 107.507 147.072 107.153 146.976 106.718C146.839 106.096 146.93 105.371 147.289 104.837C147.501 104.52 147.812 104.317 148.188 104.247C148.82 104.127 149.218 104.3 149.724 104.654L149.773 102.977L149.779 102.914ZM148.573 104.738C148.243 104.832 147.998 104.894 147.816 105.211C147.584 105.616 147.492 106.208 147.626 106.658C147.721 106.978 147.869 107.282 148.176 107.445C148.337 107.53 148.531 107.558 148.708 107.589C149.095 107.488 149.337 107.421 149.549 107.051C149.773 106.66 149.823 106.056 149.694 105.625C149.615 105.36 149.451 105.031 149.198 104.893C149.022 104.796 148.769 104.767 148.573 104.738Z" fill="white"/>
<path d="M159.657 107.861L159.516 108.015C159.327 108.033 159.235 108.04 159.071 107.938L159.015 107.697C158.76 107.869 158.536 107.99 158.228 108.053C157.78 108.144 157.309 108.088 156.927 107.819C156.547 107.551 156.323 107.048 156.241 106.603C156.129 106.003 156.269 105.277 156.627 104.781C156.881 104.43 157.203 104.281 157.622 104.217C158.19 104.131 158.605 104.362 159.042 104.681L159.064 102.989C159.259 102.836 159.377 102.888 159.611 102.905L159.747 102.89V107.896L159.657 107.861ZM157.894 104.746C157.607 104.813 157.34 104.859 157.165 105.124C156.896 105.532 156.802 106.115 156.907 106.593C156.976 106.91 157.146 107.251 157.434 107.421C157.582 107.508 157.752 107.535 157.919 107.566L158.02 107.585C158.397 107.481 158.637 107.406 158.849 107.048C159.088 106.647 159.112 105.993 158.972 105.554C158.894 105.31 158.702 105.003 158.468 104.881C158.303 104.794 158.078 104.774 157.894 104.746ZM159.611 102.905L159.633 106.399C159.633 106.822 159.549 107.464 159.657 107.861L159.747 107.896V102.89L159.611 102.905Z" fill="white"/>
<path d="M159.61 102.913L159.746 102.898V107.905L159.657 107.87C159.549 107.472 159.633 106.83 159.633 106.407L159.61 102.913Z" fill="white" fill-opacity="0.0196078"/>
<path d="M98.2135 104.203C98.7685 104.231 98.9027 104.465 99.3481 104.686L99.365 104.378C99.5567 104.308 99.6598 104.307 99.8598 104.343L99.8892 104.398C99.992 104.661 99.918 105.22 99.9165 105.51L99.9118 107.423C99.9082 107.864 99.9419 108.291 99.7586 108.703C99.6061 109.047 99.3246 109.301 98.9702 109.42C98.4934 109.581 97.8508 109.578 97.3966 109.351C97.0168 109.162 96.8943 108.975 96.7646 108.571L96.8558 108.45L97.1639 108.456C97.3882 108.532 97.4817 108.795 97.6918 108.912C97.9435 109.053 98.3453 109.075 98.6208 108.993C98.88 108.917 99.0593 108.735 99.1858 108.502C99.3257 108.243 99.4027 107.821 99.3206 107.538C99.0938 107.759 98.8701 107.948 98.5505 108.02C98.1549 108.109 97.7012 108.068 97.3594 107.839C96.972 107.578 96.7168 107.076 96.6435 106.626C96.5483 106.042 96.6393 105.271 97.0098 104.792C97.3395 104.365 97.7113 104.278 98.2135 104.203ZM98.2164 104.763C97.9183 104.83 97.665 104.891 97.4942 105.171C97.2299 105.605 97.1954 106.241 97.3368 106.724C97.4246 107.025 97.5369 107.275 97.8296 107.422C98.0376 107.526 98.2482 107.511 98.4733 107.494C98.8113 107.353 99.0093 107.25 99.1684 106.898C99.3828 106.423 99.375 105.762 99.1602 105.289C99.0726 105.097 98.9509 104.938 98.7484 104.857C98.5893 104.793 98.3865 104.739 98.2164 104.763Z" fill="white"/>
<path d="M134.041 104.203C134.435 104.229 134.706 104.303 135.018 104.545L135.097 104.607L135.171 104.663L135.214 104.698L135.262 104.377C135.488 104.296 135.533 104.309 135.77 104.36C135.881 105.044 135.802 105.852 135.801 106.549C135.8 107.139 135.897 107.994 135.69 108.546C135.545 108.933 135.349 109.209 134.954 109.381C134.437 109.606 133.762 109.581 133.25 109.349C132.88 109.18 132.767 108.936 132.638 108.569L132.711 108.473L132.946 108.454L133.168 108.51C133.363 108.747 133.535 108.941 133.848 109.012C134.136 109.077 134.505 109.048 134.752 108.881C135.18 108.593 135.224 107.915 135.312 107.446C135.051 107.687 134.818 107.923 134.461 108.005C134.028 108.106 133.619 108.069 133.236 107.833C132.867 107.607 132.616 107.16 132.535 106.744C132.413 106.106 132.495 105.355 132.87 104.814C133.172 104.38 133.554 104.287 134.041 104.203ZM134.176 104.741C133.83 104.827 133.528 104.889 133.34 105.227C133.071 105.711 133.065 106.293 133.235 106.81C133.321 107.072 133.491 107.332 133.749 107.45C133.871 107.506 134.005 107.507 134.136 107.504C134.383 107.477 134.554 107.445 134.766 107.313C135.106 106.863 135.249 106.37 135.174 105.801C135.129 105.469 135.006 105.116 134.719 104.915C134.57 104.811 134.352 104.772 134.176 104.741Z" fill="white"/>
<path d="M32.7208 104.203C33.1936 104.235 33.4729 104.303 33.8476 104.602L33.9268 104.665C33.9608 104.587 33.9814 104.526 33.9943 104.44L34.0038 104.364C34.2239 104.31 34.3293 104.293 34.5423 104.378L34.5624 106.418C34.5644 107.19 34.6776 108.216 34.2628 108.896C34.0832 109.191 33.8155 109.379 33.4801 109.459C32.9424 109.585 32.3181 109.566 31.8393 109.263C31.5489 109.079 31.4732 108.899 31.3955 108.571L31.4984 108.456L31.7701 108.466C32.0035 108.529 32.1438 108.808 32.3626 108.926C32.5913 109.049 32.9652 109.083 33.2164 109.005C33.504 108.915 33.6911 108.759 33.817 108.478C33.927 108.233 34.0248 107.807 33.9268 107.548C33.7082 107.753 33.5188 107.914 33.2217 107.998C32.8378 108.106 32.3888 108.084 32.0397 107.879C31.6353 107.641 31.3911 107.201 31.2859 106.757C31.1515 106.191 31.2267 105.426 31.5403 104.926C31.8465 104.438 32.1899 104.326 32.7208 104.203ZM32.8994 104.738C32.5695 104.807 32.2828 104.879 32.0905 105.188C31.8393 105.592 31.8067 106.259 31.9406 106.704C32.0248 106.983 32.1889 107.287 32.4542 107.428C32.6237 107.519 32.8239 107.527 33.0118 107.537C33.3959 107.388 33.5797 107.325 33.7624 106.919C33.9611 106.478 34.0152 105.9 33.8354 105.445C33.7393 105.202 33.6054 104.957 33.3508 104.856L32.8994 104.738Z" fill="white"/>
<path d="M42.2843 78.8994C44.4404 78.7169 46.5893 79.1465 48.3617 80.4364C49.942 81.5863 50.4769 83.3626 50.7554 85.2025L47.0194 85.1957C46.9665 84.8584 46.8688 84.5004 46.7458 84.1823C46.3937 83.2725 45.8408 82.6389 44.9411 82.2459C43.9429 81.8097 42.4718 81.8224 41.4641 82.2262C40.5036 82.6111 39.7052 83.5923 39.3159 84.524C38.4377 86.6267 38.3873 89.4091 39.2808 91.5087C39.7154 92.5297 40.3803 93.5111 41.4582 93.9211C42.4741 94.3077 43.7931 94.3032 44.7815 93.8348C45.8277 93.339 46.3722 92.4117 46.753 91.3688L47.036 90.2399L50.7249 90.2352C50.5002 91.8207 49.9686 93.4274 48.9775 94.7032C47.7901 96.2321 46.0549 96.9831 44.1687 97.2072C42.1121 97.4518 39.7749 97.0124 38.13 95.7042C36.4001 94.3283 35.3013 92.1264 35.0514 89.949C34.7113 86.9832 35.1658 83.8853 37.0771 81.4945C38.4373 79.7931 40.1797 79.1364 42.2843 78.8994Z" fill="white"/>
<path d="M2.101 72.6234C2.69243 72.5238 3.33404 72.5764 3.93521 72.5761L7.29916 72.5753L20.8007 72.5655L20.8009 76.2673L13.481 76.2576L13.503 96.8086L9.40682 96.8029L9.40424 76.2552L4.04259 76.2464C3.59349 76.2466 2.51819 76.3735 2.13309 76.1904L2 76.2387V72.612L2.101 72.6234ZM2 72.612V76.2387L2.13309 76.1904C2.0666 75.797 2.10692 75.3266 2.10561 74.9241L2.101 72.6234L2 72.612Z" fill="white"/>
<path d="M2 72.6211L2.101 72.6325L2.10561 74.9332C2.10692 75.3356 2.0666 75.8061 2.13309 76.1995L2 76.2477V72.6211Z" fill="white" fill-opacity="0.0352941"/>
<path d="M159.747 92.4582C159.476 93.3533 159.261 94.1367 158.656 94.8767C157.498 96.2907 155.118 97.0583 153.347 97.2219C151.113 97.428 148.549 97.0504 146.788 95.5628C145.435 94.4203 144.962 92.9003 144.823 91.1955C145.091 91.1054 145.531 91.1647 145.828 91.1639L148.541 91.1586C148.638 91.9613 148.918 92.8376 149.585 93.348C150.665 94.174 151.992 94.323 153.311 94.1511C154.152 94.0413 155.168 93.8067 155.701 93.0888C156.016 92.6644 156.13 92.0056 156.026 91.4905C155.637 89.5691 151.543 89.2687 149.993 88.8617C149.016 88.605 148.067 88.2519 147.205 87.718C146.282 87.1463 145.584 86.089 145.352 85.0359C145.085 83.822 145.208 82.4313 145.905 81.375C146.742 80.1069 148.256 79.3334 149.716 79.0334C151.975 78.569 154.891 78.7322 156.858 80.0308C158.398 81.0469 158.894 82.5059 159.232 84.2322C158.732 84.1588 155.462 84.2693 155.362 84.1864C155.336 84.1643 155.261 83.8629 155.244 83.8141C155.035 83.192 154.708 82.6254 154.111 82.3073C152.951 81.6892 151.295 81.8174 150.08 82.1754C149.685 82.2918 149.308 82.5716 149.114 82.9402C148.932 83.2859 148.882 83.7838 149.006 84.155C149.122 84.5003 149.333 84.7424 149.618 84.9605C150.136 85.3566 150.73 85.533 151.344 85.7199C152.491 86.0686 153.67 86.2804 154.835 86.5566C155.637 86.7467 156.439 86.9616 157.172 87.3479C158.61 88.1056 159.263 89.079 159.747 90.596V92.4582Z" fill="white"/>
<path d="M129.309 72.5945L132.977 72.582C133.07 72.7982 133.015 73.2393 133.015 73.4843L133.014 75.888L133.024 86.3439L139.629 79.2778L144.18 79.2593C143.628 80.0016 142.799 80.6791 142.142 81.3383L137.828 85.6663C137.921 85.9821 138.159 86.2894 138.334 86.5678L139.345 88.1617L142.868 93.7303L144.8 96.7394L144.856 96.8119L140.31 96.8043C139.639 95.907 139.097 94.8362 138.519 93.8721L135.202 88.3468L133.906 89.6493C133.689 89.8727 133.162 90.2918 133.05 90.5347C132.92 90.8185 133.011 91.6723 133.01 92.0145L133.026 96.8297L129.308 96.8119L129.309 72.5945Z" fill="white"/>
<path d="M52.9853 72.582L56.6736 72.583L56.67 81.6694L57.3177 80.802C58.2926 79.6627 59.7083 78.9974 61.198 78.8943C62.8077 78.7829 64.6504 79.0832 65.8938 80.1814C66.7791 80.9634 67.2381 81.949 67.4901 83.0871C67.7872 84.4294 67.6749 85.902 67.6761 87.2721L67.6723 93.423C67.6698 94.5536 67.6194 95.7004 67.6861 96.8285L63.9758 96.8204L63.9571 88.4651C63.9626 86.926 64.1683 85.035 63.5549 83.604C63.2773 82.9561 62.7988 82.4456 62.1369 82.183C61.2196 81.8193 59.9374 81.8579 59.0394 82.2669C58.0051 82.7377 57.1876 83.922 56.8863 84.989C56.5198 86.2878 56.6778 87.875 56.6766 89.2263L56.6762 94.7656L56.6787 96.1777C56.6791 96.3778 56.713 96.6404 56.6444 96.8301L52.9792 96.8225L52.9853 72.582Z" fill="white"/>
<path d="M101.259 78.8982C101.729 78.8441 102.236 78.8524 102.708 78.8874C104.758 79.0389 106.505 79.9143 107.844 81.4704C109.701 83.628 110.13 86.305 109.928 89.0531L97.6063 89.0355C97.704 89.9183 97.7902 90.6914 98.1302 91.5257C98.5348 92.5186 99.2917 93.4552 100.306 93.8643C101.37 94.2934 102.872 94.3421 103.929 93.8893C105.174 93.3552 105.72 92.487 106.213 91.2849L107.502 91.2703L109.727 91.2682C109.438 92.3458 109.055 93.3732 108.386 94.2774C107.154 95.9431 105.391 96.8897 103.35 97.1799C101.275 97.4748 98.8947 97.0383 97.2108 95.7534C95.3973 94.3694 94.353 92.162 94.0637 89.9336C93.6951 87.0945 94.1399 84.1554 95.9164 81.843C97.3147 80.0225 99.0116 79.1898 101.259 78.8982ZM101.375 81.966C100.061 82.2678 99.1049 82.8056 98.3693 83.9824C97.9025 84.7294 97.7377 85.6139 97.6298 86.4739L102.633 86.4697L106.22 86.4769C106.031 84.9742 105.626 83.6486 104.379 82.6693C103.522 81.9963 102.427 81.8746 101.375 81.966Z" fill="white"/>
<path d="M25.0463 78.9057C25.4422 78.8597 25.8496 78.8684 26.2478 78.8817C28.1811 78.946 30.0455 79.748 31.3569 81.1743C33.4446 83.4449 33.8668 86.1007 33.7256 89.064L21.4467 89.0447C21.241 89.5187 21.6528 90.8816 21.8303 91.3348C22.2512 92.4095 22.9624 93.4038 24.059 93.8582C25.1553 94.3123 26.6501 94.3417 27.7456 93.8778C28.9674 93.3608 29.515 92.461 29.9977 91.2848L31.3846 91.2778L33.4909 91.2727C33.2169 92.4188 32.8136 93.4483 32.1002 94.3981C30.9133 95.9777 29.0556 96.9222 27.1226 97.1967C24.9852 97.4999 22.6321 97.0081 20.9064 95.6909C19.1935 94.3835 18.1519 92.1824 17.8682 90.0867C17.4768 87.1965 17.8813 84.218 19.7019 81.8544C21.1072 80.03 22.7884 79.1982 25.0463 78.9057ZM25.2092 81.9718C23.9076 82.2372 22.9876 82.7325 22.2262 83.8661C21.709 84.6364 21.5275 85.5788 21.4026 86.4837L26.3014 86.4773L29.9943 86.4827C29.8617 85.012 29.3965 83.7182 28.2342 82.7391C27.2923 81.9457 26.3433 81.9998 25.2092 81.9718Z" fill="white"/>
<path d="M118.507 78.8972C118.934 78.8461 119.394 78.8536 119.824 78.8797C121.716 78.9947 123.573 79.7758 124.839 81.2028C126.859 83.4781 127.337 86.0952 127.162 89.0562L114.859 89.0297C114.899 89.8244 114.978 90.5726 115.272 91.3227C115.691 92.39 116.378 93.3682 117.462 93.8333C118.59 94.317 120.109 94.3272 121.235 93.8594C122.412 93.3704 122.97 92.393 123.437 91.2772L124.717 91.2693L126.921 91.2723C126.644 92.3985 126.246 93.4414 125.551 94.3808C124.342 96.0151 122.432 96.9278 120.451 97.1991C118.381 97.4823 116.026 96.9865 114.364 95.7011C112.548 94.2969 111.558 92.0725 111.277 89.8432C110.904 86.8852 111.42 84.0234 113.294 81.6484C114.635 79.9478 116.387 79.1355 118.507 78.8972ZM118.639 81.9653C117.371 82.227 116.413 82.7163 115.684 83.8424C115.161 84.6517 114.987 85.5399 114.848 86.4742L119.81 86.4693L123.448 86.474C123.232 84.9656 122.821 83.5561 121.517 82.61C120.667 81.9934 119.658 81.8739 118.639 81.9653Z" fill="white"/>
<path d="M80.3719 72.0592C82.8911 71.7849 85.6032 72.4743 87.6774 73.9161C89.9272 75.4801 90.7724 77.7255 91.2417 80.3126L87.2652 80.2982C87.1173 79.917 87.0659 79.4861 86.9467 79.0923C86.7948 78.5899 86.532 78.081 86.2163 77.6613C85.2721 76.4054 83.7874 75.736 82.2571 75.5268C80.608 75.3012 78.6792 75.7106 77.3645 76.7469C75.5794 78.1541 74.6466 80.7495 74.3831 82.9357C74.0224 85.9269 74.5636 89.3862 76.4984 91.7931C77.4747 93.0073 78.9063 93.7066 80.4502 93.8558C82.1862 94.0235 84.2551 93.6816 85.6216 92.5431C87.259 91.1786 87.6133 89.3057 87.7625 87.3016L81.5848 87.3122L81.5878 85.5895L81.5926 84.0718L91.4728 84.0619L91.4957 96.783C90.6909 96.9276 89.6763 96.8106 88.8482 96.8095L88.2356 93.9974C88.0847 94.0512 87.7534 94.5368 87.6127 94.6808C86.2237 96.1035 84.41 97.0955 82.4234 97.3268C79.8325 97.6284 76.8742 96.8806 74.8208 95.2577C72.1426 93.1412 70.7054 89.9087 70.3237 86.5766C69.8848 82.7432 70.7196 78.787 73.1565 75.7415C75.0385 73.3899 77.4386 72.3929 80.3719 72.0592Z" fill="white"/>
<defs>
<linearGradient id="paint0_linear_1601_126" x1="33" y1="34.5027" x2="102.004" y2="34.5027" gradientUnits="userSpaceOnUse">
<stop stop-color="#6CE9F1"/>
<stop offset="1" stop-color="#42ABCC"/>
</linearGradient>
<linearGradient id="paint1_linear_1601_126" x1="58.0736" y1="34.4972" x2="127.078" y2="34.4972" gradientUnits="userSpaceOnUse">
<stop stop-color="#306AB7"/>
<stop offset="1" stop-color="#3A92CC"/>
</linearGradient>
</defs>
</svg>
