<svg width="203" height="80" viewBox="0 0 203 80" fill="none" xmlns="http://www.w3.org/2000/svg">
<path d="M38.7171 34.1261L38.7545 34.0926C38.7545 34.0926 38.5523 34.1031 38.2077 34.0985C38.1689 34.0985 38.1315 34.0926 38.0928 34.0926C38.0757 34.0926 38.0593 34.0926 38.0429 34.0926C36.4227 34.0526 32.4426 33.6843 30.4279 31.1293C30.4279 31.1293 27.418 28.0754 27.7022 23.9082C27.7022 22.3412 27.0798 20.8385 25.9718 19.7305C24.8638 18.6225 23.361 18 21.794 18C20.2271 18 18.7243 18.6225 17.6163 19.7305C16.5083 20.8385 15.8858 22.3412 15.8858 23.9082C15.8858 23.9082 15.8412 28.3151 13.2744 31.1293C13.2744 31.1293 10.812 33.8576 5.9082 34.09C4.34125 34.09 2.83847 34.7125 1.73047 35.8205C0.622469 36.9285 0 38.4312 0 39.9982C0 41.5651 0.622469 43.0679 1.73047 44.1759C2.83847 45.2839 4.34125 45.9064 5.9082 45.9064C5.9082 45.9064 10.8317 46.4683 13.0243 48.6596C13.0243 48.6596 15.7224 51.3853 15.9528 55.2512C15.911 55.5291 15.889 55.8097 15.8871 56.0908C15.8876 56.3053 15.8998 56.5197 15.9239 56.7328C16.0919 58.232 16.827 59.6101 17.9784 60.5847C19.1299 61.5593 20.6106 62.0565 22.1169 61.9744C23.6232 61.8923 25.0411 61.2371 26.0798 60.1432C27.1186 59.0492 27.6995 57.5994 27.7035 56.0908C27.7035 54.8396 27.1751 53.6973 26.5383 52.6516C25.9258 51.6452 24.7383 51.227 23.6571 50.8378C22.0619 50.2634 20.4562 50.176 18.8498 49.7218C17.3446 49.294 15.9586 48.5242 14.8 47.4723C13.6415 46.4205 12.7417 45.1151 12.1709 43.6581C11.6001 42.2011 11.3738 40.6319 11.5096 39.073C11.6455 37.514 12.1397 36.0076 12.9539 34.6713C13.768 33.3349 14.88 32.2048 16.203 31.3692C17.526 30.5335 19.0243 30.015 20.5808 29.854C22.1373 29.693 23.7099 29.8939 25.176 30.441C26.642 30.9882 27.9618 31.8667 29.0322 33.0081C31.2695 35.3944 31.8439 38.6537 32.7275 41.6965C33.0964 42.9648 33.5087 43.9626 34.5905 44.7569C35.3213 45.2954 36.1662 45.6583 37.0599 45.8174C37.9535 45.9766 38.8718 45.9276 39.7435 45.6744C40.6152 45.4213 41.4169 44.9706 42.0862 44.3575C42.7556 43.7444 43.2747 42.9853 43.6032 42.1392C43.9318 41.293 44.0609 40.3825 43.9806 39.4783C43.9004 38.5742 43.6129 37.7007 43.1404 36.9256C42.668 36.1505 42.0233 35.4947 41.2564 35.0091C40.4895 34.5235 39.621 34.2211 38.7184 34.1254L38.7171 34.1261Z" fill="url(#paint0_linear_1598_61)"/>
<path d="M21.2722 45.8721L21.2348 45.9055C21.2348 45.9055 21.437 45.8957 21.7816 45.9003C21.8204 45.9003 21.8578 45.9055 21.8965 45.9055C21.9136 45.9055 21.93 45.9055 21.9464 45.9055C23.5666 45.9462 27.5467 46.3139 29.5614 48.8688C29.5614 48.8688 32.5713 51.9227 32.2871 56.09C32.2871 57.6569 32.9095 59.1597 34.0175 60.2677C35.1255 61.3757 36.6283 61.9981 38.1953 61.9981C39.7622 61.9981 41.265 61.3757 42.373 60.2677C43.481 59.1597 44.1035 57.6569 44.1035 56.09C44.1035 56.09 44.1481 51.6831 46.7149 48.8688C46.7149 48.8688 49.1773 46.1405 54.0811 45.9082C55.648 45.9082 57.1508 45.2857 58.2588 44.1777C59.3668 43.0697 59.9893 41.5669 59.9893 40C59.9893 38.433 59.3668 36.9302 58.2588 35.8222C57.1508 34.7142 55.648 34.0918 54.0811 34.0918C54.0811 34.0918 49.1576 33.5298 46.965 31.3392C46.965 31.3392 44.2669 28.6129 44.0365 24.747C44.0783 24.469 44.1003 24.1884 44.1022 23.9073C44.1017 23.693 44.0895 23.4789 44.0654 23.266C43.8974 21.7669 43.1624 20.3888 42.011 19.4142C40.8596 18.4396 39.379 17.9424 37.8727 18.0244C36.3665 18.1064 34.9486 18.7614 33.9098 19.8553C32.871 20.9491 32.29 22.3989 32.2858 23.9073C32.2858 25.1586 32.8142 26.3008 33.451 27.3466C34.0635 28.3529 35.251 28.7711 36.3322 29.1604C37.9274 29.7348 39.5331 29.8221 41.1395 30.2764C42.6451 30.7039 44.0315 31.4736 45.1905 32.5254C46.3495 33.5773 47.2496 34.8828 47.8207 36.34C48.3917 37.7972 48.6182 39.3667 48.4825 40.9259C48.3467 42.4852 47.8524 43.9919 47.0381 45.3285C46.2238 46.6651 45.1115 47.7954 43.7882 48.6311C42.4649 49.4668 40.9663 49.9854 39.4095 50.1462C37.8527 50.3071 36.2797 50.1059 34.8135 49.5584C33.3473 49.0109 32.0274 48.1319 30.9571 46.99C28.7198 44.6038 28.1454 41.3444 27.2618 38.3017C26.8929 37.0334 26.4806 36.0356 25.3988 35.2412C24.6679 34.7038 23.823 34.342 22.9297 34.1837C22.0364 34.0254 21.1186 34.075 20.2476 34.3285C19.3765 34.5821 18.5755 35.0329 17.9068 35.6459C17.238 36.2589 16.7194 37.0177 16.3911 37.8634C16.0628 38.7091 15.9337 39.6191 16.0138 40.5228C16.0939 41.4265 16.381 42.2996 16.8529 43.0744C17.3248 43.8492 17.9688 44.505 18.7349 44.9908C19.5011 45.4767 20.3688 45.7796 21.2709 45.876L21.2722 45.8721Z" fill="url(#paint1_linear_1598_61)"/>
<path d="M188.63 50.3043C188.824 50.2883 188.859 50.2747 189.036 50.3709C189.057 50.6011 189.105 50.7207 188.976 50.9267C188.82 50.9295 188.709 50.9424 188.575 50.8471C188.57 50.6515 188.566 50.4923 188.63 50.3043Z" fill="#2C2C2C" fill-opacity="0.984314"/>
<path d="M145.032 50.3016C145.141 50.2606 145.253 50.2914 145.365 50.3083C145.477 50.4851 145.446 50.6424 145.446 50.8464L145.371 50.8851C145.201 50.9527 145.12 50.9188 144.966 50.8495C144.948 50.6474 144.977 50.4961 145.032 50.3016Z" fill="#2C2C2C"/>
<path d="M95.0813 50.1641C95.1433 50.1782 95.1692 50.1961 95.221 50.2309C94.999 50.5326 94.7209 50.9379 94.3703 51.0635C94.2509 51.0326 94.2592 51.0369 94.1953 50.931L94.5491 50.3308C94.6831 50.1555 94.8816 50.1821 95.0813 50.1641Z" fill="#2C2C2C"/>
<path d="M166.513 52.4983C166.683 52.4601 166.779 52.506 166.936 52.5705C167.103 52.7945 167.106 52.8183 167.109 53.0984C166.995 53.2976 166.95 53.3145 166.744 53.4236C166.62 53.4348 166.483 53.3866 166.377 53.3193C166.209 53.2129 166.213 53.0741 166.184 52.8984C166.284 52.6745 166.312 52.6394 166.513 52.4983Z" fill="#2C2C2C"/>
<path d="M101.726 52.4979C101.909 52.4626 102.004 52.4998 102.174 52.5706C102.295 52.7447 102.339 52.8392 102.325 53.053C102.188 53.2762 102.149 53.3026 101.915 53.4229C101.814 53.4278 101.701 53.392 101.615 53.3377C101.434 53.2245 101.422 53.0896 101.368 52.8979C101.483 52.6597 101.498 52.63 101.726 52.4979Z" fill="#2C2C2C"/>
<path d="M94.3632 51.5014C94.4924 51.4935 94.6025 51.5198 94.727 51.548C94.8202 51.8271 94.7704 52.2423 94.7693 52.5385L94.7578 54.6356L94.6597 54.7277C94.4782 54.7433 94.4343 54.7691 94.2764 54.669C94.2394 54.0631 94.1193 51.8975 94.3632 51.5014Z" fill="#2C2C2C"/>
<path d="M188.584 51.5621C188.62 51.546 188.636 51.5368 188.679 51.5296C188.839 51.5034 188.949 51.4924 189.069 51.5954C189.091 52.5874 189.187 53.7246 189.043 54.7001L188.71 54.7571L188.591 54.663L188.584 51.5621Z" fill="#2C2C2C"/>
<path d="M145.086 51.4957C145.219 51.4733 145.319 51.5056 145.446 51.5404L145.458 51.5985C145.503 51.8287 145.472 52.1049 145.472 52.3415L145.473 53.87C145.472 54.1565 145.535 54.4984 145.379 54.7376C145.245 54.7519 145.147 54.7427 145.014 54.7196C144.888 54.4934 144.946 54.1208 144.945 53.8607L144.947 51.6291L145.086 51.4957Z" fill="#2C2C2C"/>
<path d="M143.091 50.2961C143.212 50.2682 143.351 50.2749 143.476 50.2695C143.697 50.5168 143.58 54.0597 143.576 54.5844L143.474 54.7387C143.292 54.7454 143.24 54.7695 143.086 54.664L143.091 50.2961Z" fill="#2C2C2C"/>
<path d="M84.2201 50.3017C84.3386 50.2702 84.4669 50.2751 84.5892 50.2695C84.8257 50.5421 84.7039 54.0142 84.6893 54.6489L84.5798 54.7357C84.3967 54.7517 84.3571 54.7868 84.2105 54.6671C84.1576 53.9116 84.1862 53.1389 84.1857 52.3811C84.1852 51.6936 84.1509 50.9855 84.2201 50.3017Z" fill="#2C2C2C"/>
<path d="M187.335 51.4291L187.466 51.418L187.556 51.4959C187.574 51.6155 187.613 51.8573 187.508 51.9528C187.484 51.9748 187.287 52.0156 187.242 52.0299C186.918 52.1342 186.666 52.2878 186.546 52.6246C186.394 53.0486 186.462 53.6987 186.455 54.1554C186.452 54.3586 186.478 54.553 186.373 54.7343L186.039 54.7468L185.943 54.5634L185.953 51.5625C186.134 51.4908 186.199 51.5168 186.389 51.5468C186.41 51.7211 186.434 51.8586 186.507 52.0192C186.709 51.6662 186.963 51.5399 187.335 51.4291Z" fill="#2C2C2C"/>
<path d="M126.575 50.2964C126.785 50.2712 126.844 50.2328 127.027 50.3487L127.048 52.9452C127.048 53.5192 127.09 54.1298 127.013 54.6976C126.896 54.7315 126.773 54.7324 126.652 54.742L126.529 54.6309L126.517 51.7061C126.518 51.2671 126.454 50.7099 126.575 50.2964Z" fill="#2C2C2C"/>
<path d="M121.312 51.4318L121.51 51.418C121.541 51.4654 121.572 51.5069 121.578 51.5652C121.583 51.6105 121.583 51.8879 121.562 51.9232C121.512 52.0081 121.131 52.0597 121.023 52.1068C120.763 52.2192 120.642 52.4094 120.542 52.6625C120.373 53.0917 120.454 53.7683 120.452 54.238C120.451 54.4124 120.485 54.5847 120.375 54.7319C120.197 54.7398 120.111 54.7662 119.954 54.6758L119.927 54.4327L119.929 51.6024L120.041 51.5213C120.233 51.5263 120.304 51.4892 120.44 51.632L120.401 51.9987L120.469 52.032C120.706 51.6991 120.931 51.5599 121.312 51.4318Z" fill="#2C2C2C"/>
<path d="M130.759 50.295C130.973 50.2758 131.107 50.2315 131.302 50.3396L131.321 52.9968C131.322 53.5542 131.363 54.1489 131.291 54.7003C131.085 54.7206 130.916 54.7877 130.746 54.6596L130.759 50.295Z" fill="#2C2C2C"/>
<path d="M158.996 50.5699C159.115 50.5359 159.199 50.5546 159.32 50.5699C159.472 50.7745 159.4 51.0919 159.423 51.3367C159.452 51.6391 159.861 51.4553 160.096 51.6368C160 52.1883 159.731 51.8167 159.429 52.0702L159.43 53.5942C159.436 53.8728 159.382 54.0413 159.589 54.2376C159.746 54.2463 159.922 54.232 160.047 54.3375L160.068 54.6061L159.992 54.7233C159.761 54.7412 159.544 54.75 159.316 54.6954C159.243 54.678 159.06 54.6166 159.011 54.5541C158.939 54.4614 158.924 54.1974 158.918 54.0782C158.895 53.5705 158.919 53.0582 158.926 52.55C158.928 52.3618 158.966 52.1608 158.866 51.9949C158.684 51.9946 158.555 51.995 158.389 51.9141L158.364 51.6701C158.517 51.4545 158.678 51.6099 158.871 51.4737C158.907 51.4483 158.961 50.7039 158.996 50.5699Z" fill="#2C2C2C"/>
<path d="M117.77 50.5643C117.884 50.5248 117.957 50.5481 118.072 50.571C118.256 50.7917 118.172 51.0561 118.213 51.3311C118.255 51.6042 118.628 51.4816 118.854 51.6313L118.807 51.8918C118.64 51.9885 118.46 51.9785 118.272 51.9873C118.178 52.1634 118.211 52.3874 118.211 52.5827L118.247 54.1319C118.398 54.2658 118.565 54.2581 118.76 54.288C118.86 54.466 118.828 54.5034 118.795 54.6987C118.616 54.741 118.325 54.7596 118.148 54.7153C117.19 54.4757 118.01 52.6171 117.638 51.9934C117.466 51.9967 117.335 52.0049 117.177 51.9286C117.137 51.7579 117.128 51.7376 117.192 51.5645C117.313 51.5435 117.471 51.5285 117.582 51.4739C117.73 51.4005 117.696 50.7737 117.77 50.5643Z" fill="#2C2C2C"/>
<path d="M136.998 50.5645C137.112 50.5248 137.186 50.5479 137.301 50.5707C137.485 50.7918 137.401 51.0556 137.442 51.3313C137.483 51.6036 137.859 51.4828 138.085 51.6315L138.051 51.862C137.939 51.9542 137.878 51.9621 137.732 51.972C137.625 51.9792 137.556 51.9765 137.461 52.0315C137.411 52.4608 137.339 53.9152 137.553 54.2322L137.992 54.2855C138.086 54.4646 138.057 54.5051 138.024 54.6989C137.826 54.7506 137.511 54.7578 137.315 54.7007C136.467 54.4528 137.22 52.5857 136.867 51.9939C136.695 51.9969 136.563 52.0049 136.406 51.9293C136.365 51.7581 136.356 51.7381 136.42 51.5647C136.541 51.5438 136.7 51.5291 136.81 51.4739C136.959 51.3996 136.925 50.7737 136.998 50.5645Z" fill="#2C2C2C"/>
<path d="M73.4319 51.4141L73.7461 51.4274C74.1041 51.46 74.4513 51.5944 74.6798 51.8812C74.8091 52.0435 74.92 52.2962 74.8993 52.4999C74.7191 52.5562 74.6013 52.5352 74.4179 52.4999C74.289 52.2902 74.1473 52.0429 73.9049 51.952C73.6751 51.8656 73.3607 51.8904 73.1455 52.0055C72.9156 52.1282 72.7969 52.3468 72.7251 52.5883C72.5998 53.0091 72.5926 53.5414 72.8269 53.9285C72.9451 54.1238 73.1604 54.2761 73.3855 54.3179C73.7069 54.3778 73.9338 54.2514 74.1788 54.0683C74.262 53.9196 74.3417 53.7583 74.4538 53.6292C74.5448 53.5245 74.7061 53.5555 74.8415 53.5476L74.9192 53.6335C74.876 53.8496 74.7872 54.0688 74.6746 54.2587C74.5045 54.5453 74.2864 54.6632 73.9735 54.7413C73.5596 54.8448 73.1085 54.8192 72.7427 54.5903C72.4201 54.3885 72.1888 53.994 72.1142 53.6248C72.0139 53.1289 72.0782 52.4213 72.384 52.0028C72.6786 51.5995 72.954 51.4996 73.4319 51.4141Z" fill="#2C2C2C"/>
<path d="M64.6265 50.2637C65.1606 50.2652 67.8191 50.1619 68.0809 50.3614L68.0753 50.7124C67.8172 50.8657 66.9583 50.7595 66.6423 50.7491C66.6444 51.3345 66.7594 54.4736 66.5626 54.7393L66.1954 54.7511C66.0493 54.612 66.0947 54.4285 66.09 54.2336L66.0976 50.7575L64.6265 50.7685V50.2637Z" fill="#2C2C2C"/>
<path d="M156.112 51.4141C156.365 51.4298 156.651 51.4339 156.878 51.5572C157.124 51.6901 157.218 51.8822 157.282 52.1417C157.426 52.7245 157.358 53.4377 157.35 54.0368C157.347 54.2639 157.382 54.5401 157.263 54.7386L156.929 54.761C156.795 54.5747 156.837 54.3717 156.836 54.1463C156.832 53.5737 156.975 52.4228 156.562 52.0025C156.288 51.8696 156.071 51.9006 155.79 51.9845L155.728 52.0038C155.087 52.4197 155.249 53.4398 155.242 54.1203C155.24 54.3419 155.274 54.5394 155.16 54.7352L154.86 54.7469C154.686 54.5545 154.755 54.0938 154.754 53.8287L154.763 51.5675C154.929 51.4979 155.017 51.5278 155.193 51.5491L155.253 51.9009L155.415 51.7675C155.651 51.5718 155.812 51.4881 156.112 51.4141Z" fill="#2C2C2C"/>
<path d="M134.186 51.4141C134.473 51.4369 134.757 51.4511 134.996 51.6328C135.203 51.791 135.27 52.036 135.309 52.282C135.401 52.8648 135.346 53.5301 135.341 54.1216C135.339 54.3092 135.377 54.5752 135.264 54.7298L134.963 54.761C134.564 54.4231 134.999 52.7854 134.752 52.2473C134.691 52.1148 134.588 52.0073 134.452 51.9579C134.182 51.8596 133.93 51.9065 133.681 52.0307L133.628 52.0583C133.104 52.501 133.248 53.4782 133.245 54.1033C133.243 54.3346 133.279 54.5378 133.161 54.7419C132.969 54.7396 132.899 54.7769 132.76 54.6377C132.714 53.8937 132.736 53.1377 132.736 52.3922C132.736 52.1651 132.675 51.7367 132.793 51.5427L133.06 51.5125C133.377 51.6502 133.104 51.6935 133.252 51.9108C133.548 51.5872 133.767 51.491 134.186 51.4141Z" fill="#2C2C2C"/>
<path d="M184.213 51.4924C184.373 51.4801 184.439 51.4931 184.585 51.5591C184.583 52.5883 184.675 53.6821 184.57 54.7018C184.412 54.7346 184.309 54.7446 184.15 54.711C184.1 54.5794 184.065 54.455 184.036 54.3172L183.922 54.4266C183.773 54.574 183.662 54.6825 183.451 54.732C183.011 54.8356 182.672 54.8001 182.282 54.5599C181.893 54.0174 181.987 53.3953 181.991 52.7594C181.992 52.447 181.902 51.7584 182.066 51.5175C182.188 51.5069 182.305 51.4873 182.423 51.5312C182.506 51.5623 182.499 51.6391 182.503 51.7187C182.537 52.4076 182.363 53.4265 182.593 54.0599C182.761 54.2299 182.9 54.3272 183.152 54.3229C183.376 54.3191 183.598 54.2581 183.756 54.0932C184.24 53.5883 184.066 52.2758 184.071 51.5945L184.213 51.4924Z" fill="#2C2C2C"/>
<path d="M115.054 51.418C115.268 51.4454 115.553 51.4588 115.73 51.5908C115.991 51.7859 116.074 52.1041 116.102 52.4131C116.15 52.9577 116.112 53.5337 116.107 54.0811C116.106 54.2051 116.143 54.5278 116.102 54.6331C116.084 54.681 116.035 54.7112 116.002 54.7503L115.702 54.7486C115.569 54.5776 115.603 54.4285 115.597 54.2145L115.576 52.7657C115.573 52.5965 115.598 52.3658 115.518 52.2119C115.433 52.0476 115.266 51.9431 115.087 51.9114C114.854 51.8704 114.586 51.9431 114.393 52.0709L114.353 52.099C113.886 52.5607 114.035 53.5517 114.036 54.1695C114.036 54.394 114.087 54.578 113.932 54.7498C113.751 54.7434 113.67 54.7734 113.532 54.6489C113.472 53.8722 113.51 53.0717 113.509 52.2911C113.509 52.1656 113.462 51.7302 113.508 51.6323C113.529 51.5895 113.569 51.5591 113.599 51.5225L113.866 51.5148C114.132 51.6854 113.886 51.7028 114.023 51.9098C114.353 51.5545 114.581 51.4826 115.054 51.418Z" fill="#2C2C2C"/>
<path d="M77.573 51.4141C77.8211 51.4187 78.1744 51.4799 78.3721 51.6399C78.5702 51.8003 78.6733 52.0977 78.6975 52.3455C78.7532 52.9149 78.7129 53.5255 78.7106 54.0987C78.7101 54.2258 78.7464 54.5248 78.7077 54.6359C78.6918 54.6815 78.6452 54.7098 78.614 54.7467L78.2802 54.7423C78.136 54.5767 78.1873 54.3363 78.1866 54.1193C78.185 53.5416 78.2678 52.8072 78.1223 52.2509C78.094 52.1428 77.9516 52.0084 77.8523 51.9621C77.6158 51.8519 77.3253 51.9116 77.0982 52.014L77.0533 52.0352C76.2329 52.553 76.9001 53.9925 76.5758 54.7273C76.4239 54.7598 76.3293 54.7746 76.1782 54.7331C76.048 54.4958 76.1064 54.0868 76.1054 53.819C76.1028 53.0757 76.0632 52.3081 76.1296 51.5683L76.309 51.4991C76.7623 51.6169 76.4318 51.619 76.6444 51.8673L76.8627 51.7017C77.1012 51.5227 77.2877 51.4717 77.573 51.4141Z" fill="#2C2C2C"/>
<path d="M106.356 50.1641C106.641 50.1831 106.916 50.2195 107.176 50.3401C107.721 50.5924 107.929 50.958 108.122 51.5044L108.057 51.6217C107.898 51.6263 107.748 51.6199 107.59 51.6019C107.495 51.3902 107.368 51.1396 107.195 50.9791C106.975 50.775 106.618 50.6692 106.321 50.6741C105.927 50.6805 105.616 50.7955 105.346 51.084C104.954 51.5031 104.853 52.1316 104.886 52.688C104.916 53.1957 105.063 53.6824 105.457 54.0236C105.7 54.2346 106.091 54.3503 106.412 54.3237C106.808 54.2911 107.046 54.1591 107.296 53.8585C107.438 53.6094 107.506 53.2327 107.723 53.0507C107.917 53.0352 107.974 53.0216 108.155 53.1048C108.1 53.528 107.973 53.9333 107.705 54.2732C107.421 54.6319 106.951 54.7702 106.515 54.8244C105.998 54.8886 105.411 54.745 105.007 54.4097C104.592 54.0649 104.357 53.4342 104.307 52.9115C104.236 52.1796 104.365 51.3918 104.848 50.8131C105.272 50.3057 105.726 50.2217 106.356 50.1641Z" fill="#2C2C2C"/>
<path d="M162.355 51.4141C162.74 51.4484 163.082 51.4882 163.385 51.7549C163.807 52.1261 163.874 52.7585 163.919 53.2844C163.192 53.2779 162.288 53.1661 161.583 53.3031C161.576 53.3594 161.57 53.3821 161.573 53.4354C161.586 53.7012 161.737 53.9813 161.937 54.1533C162.123 54.3145 162.444 54.3563 162.679 54.3182C163.046 54.2585 163.152 54.0553 163.353 53.77C163.48 53.6801 163.624 53.6948 163.773 53.6907L163.833 53.8033C163.687 54.1627 163.541 54.3844 163.26 54.652C162.77 54.7903 162.258 54.8916 161.783 54.6379C161.417 54.4425 161.181 54.086 161.08 53.6911C160.945 53.1632 160.983 52.5531 161.276 52.0834C161.531 51.6743 161.902 51.5096 162.355 51.4141ZM162.4 51.9027C162.151 51.9612 161.933 52.0005 161.788 52.2306L161.496 52.8022L162.654 52.8002L163.272 52.7877C163.337 52.6441 163.323 52.6088 163.268 52.4571C163.204 52.277 162.965 52.0526 162.793 51.9743C162.672 51.9188 162.532 51.9098 162.4 51.9027Z" fill="#2C2C2C"/>
<path d="M140.319 51.4141C140.664 51.4372 141.004 51.4562 141.292 51.672C141.776 52.0358 141.874 52.7237 141.953 53.278L140.2 53.2672C140.007 53.2662 139.734 53.2239 139.57 53.3322L139.571 53.3963C139.584 53.6577 139.711 53.9717 139.919 54.1362C140.127 54.3 140.385 54.3576 140.645 54.3218C141.007 54.272 141.143 54.0585 141.355 53.7905C141.487 53.6781 141.571 53.6961 141.74 53.6806L141.829 53.7679L141.693 54.1392C141.56 54.406 141.305 54.6468 141.015 54.7221C140.617 54.8253 140.091 54.8456 139.729 54.6213C139.366 54.3962 139.145 53.9987 139.051 53.5929C138.941 53.1156 138.996 52.4874 139.272 52.0704C139.528 51.6848 139.88 51.5124 140.319 51.4141ZM140.379 51.8852C140.067 51.9751 139.839 52.0875 139.677 52.3881C139.609 52.513 139.584 52.6274 139.578 52.7675C139.907 52.834 140.285 52.7994 140.622 52.7977L141.264 52.7789L141.323 52.6676C141.24 52.4082 141.147 52.1645 140.906 52.0102C140.765 51.9201 140.542 51.9046 140.379 51.8852Z" fill="#2C2C2C"/>
<path d="M69.5517 51.4141C69.9117 51.4364 70.2487 51.4548 70.5445 51.6852C71.023 52.0577 71.0997 52.7459 71.1714 53.3028C70.4175 53.2119 69.5946 53.2633 68.8329 53.2803L68.7831 53.4003C68.8628 53.7196 68.9426 54.0444 69.2548 54.2193C69.4687 54.3391 69.7636 54.3525 69.9955 54.2928L70.0681 54.2718C70.2927 54.2085 70.3964 54.0151 70.5236 53.8337C70.6995 53.6799 70.7921 53.6868 71.0184 53.681C71.0385 53.8596 70.9987 53.971 70.9154 54.1262C70.7592 54.4175 70.5745 54.6151 70.2517 54.7112C69.8552 54.8294 69.3492 54.8366 68.9821 54.6266C68.6051 54.4109 68.4088 54.0852 68.301 53.671C68.1728 53.1784 68.2049 52.5549 68.4813 52.1143C68.7516 51.6833 69.0666 51.5224 69.5517 51.4141ZM69.5977 51.8998C69.2587 51.984 69.0891 52.0672 68.9089 52.3727C68.8394 52.4905 68.802 52.599 68.783 52.7334C68.9823 52.8767 69.6298 52.7994 69.8897 52.7976L70.4873 52.7774C70.5483 52.6646 70.5529 52.6673 70.5153 52.5419C70.4393 52.2887 70.2562 52.089 70.0175 51.9748C69.8862 51.9118 69.7409 51.9057 69.5977 51.8998Z" fill="#2C2C2C"/>
<path d="M152.077 51.4141C152.354 51.4328 152.651 51.4549 152.898 51.5928C153.258 51.7941 153.468 52.2729 153.562 52.6591C153.61 52.8571 153.665 53.1029 153.558 53.2784L151.354 53.2703L151.273 53.3675L151.331 53.6889C151.383 53.91 151.551 54.0982 151.747 54.2073C151.98 54.3368 152.254 54.3647 152.509 54.2851C152.79 54.1971 152.918 54.0076 153.058 53.7675C153.186 53.6712 153.337 53.6822 153.491 53.6732L153.544 53.7675L153.392 54.1676C153.245 54.4407 152.976 54.644 152.679 54.7254C152.269 54.8381 151.793 54.825 151.421 54.602C151.052 54.3808 150.857 53.9804 150.762 53.5767C150.65 53.107 150.712 52.4813 150.986 52.0713C151.265 51.6522 151.607 51.5091 152.077 51.4141ZM152.096 51.8814C151.763 51.9768 151.559 52.0663 151.383 52.389C151.319 52.5069 151.289 52.6015 151.276 52.7339C151.509 52.8614 152 52.7972 152.278 52.7982L152.957 52.788L153.027 52.7006C152.965 52.4206 152.845 52.1853 152.599 52.0224C152.448 51.9226 152.271 51.9034 152.096 51.8814Z" fill="#2C2C2C"/>
<path d="M175.142 51.4141C175.372 51.417 175.645 51.4306 175.864 51.5058C176.169 51.6107 176.392 51.8305 176.525 52.1197L176.546 52.1674C176.718 52.5416 176.773 52.8968 176.822 53.3036C176.303 53.2375 175.744 53.2693 175.219 53.2657C174.989 53.2642 174.667 53.2224 174.452 53.301L174.473 53.5813C174.501 53.8131 174.643 54.0257 174.836 54.1574C175.046 54.3012 175.327 54.3663 175.577 54.3087C175.923 54.2286 176.043 54.0488 176.222 53.7679C176.321 53.6719 176.493 53.6827 176.625 53.6697L176.695 53.7505L176.592 54.0672C176.48 54.3333 176.254 54.5837 175.981 54.683C175.577 54.8299 175.049 54.8455 174.661 54.6472C174.3 54.4631 174.074 54.1143 173.963 53.7329C173.805 53.1878 173.831 52.6323 174.114 52.1323C174.349 51.7158 174.695 51.5368 175.142 51.4141ZM174.967 51.9674C174.735 52.1 174.57 52.2505 174.489 52.5143C174.463 52.5983 174.452 52.6802 174.447 52.7675C174.866 52.854 175.377 52.7985 175.807 52.7981L176.158 52.7839C176.194 52.6029 176.153 52.458 176.053 52.3007C175.934 52.1138 175.709 51.9521 175.49 51.9193C175.311 51.8924 175.139 51.918 174.967 51.9674Z" fill="#2C2C2C"/>
<path d="M97.2132 51.4177C97.5006 51.4044 97.9672 51.4209 98.2093 51.5882C98.8599 52.0378 98.4157 53.4247 98.5723 54.118C98.614 54.303 98.7436 54.3381 98.8926 54.4339C98.8726 54.6243 98.8675 54.6384 98.7383 54.7797L98.4094 54.7964C98.205 54.7718 98.1361 54.5742 98.0423 54.4185C97.6188 54.6886 97.107 54.8957 96.5947 54.7626C96.3267 54.6928 96.137 54.5414 96.0016 54.3005C95.9181 54.0799 95.895 53.7985 95.9512 53.567C96.1502 52.7472 97.4166 53.0038 97.9756 52.638C98.0009 52.5655 98.0341 52.4774 98.0319 52.3999C98.0275 52.2363 97.9705 52.0993 97.8339 52.0107C97.6064 51.8635 97.2245 51.8696 96.974 51.9503C96.8168 52.001 96.7364 52.0927 96.6587 52.2337C96.6125 52.3176 96.5795 52.3858 96.5113 52.4549C96.4195 52.5475 96.267 52.5135 96.1395 52.5161L96.0504 52.3999C96.0849 52.2262 96.1236 52.0594 96.2243 51.9099C96.4555 51.567 96.8302 51.4856 97.2132 51.4177ZM97.8295 53.1668C97.3632 53.2368 96.8625 53.2276 96.5395 53.6003C96.4892 53.8348 96.4892 53.8906 96.5576 54.12L96.7737 54.266C97.0584 54.3486 97.3765 54.3432 97.6424 54.1945C97.7874 54.1134 97.9351 53.9846 97.9789 53.8179C98.0285 53.6292 98.0129 53.3952 98.0114 53.2002C97.9238 53.1595 97.9332 53.1518 97.8295 53.1668Z" fill="#2C2C2C"/>
<path d="M195.637 51.4262C195.966 51.3939 196.494 51.4162 196.767 51.6144C197.386 52.0647 196.943 53.4948 197.104 54.1696C197.14 54.3199 197.264 54.3452 197.389 54.4149V54.6294C197.236 54.8114 197.196 54.7856 196.955 54.8141C196.714 54.7132 196.666 54.6013 196.521 54.3919L196.414 54.4709L196.229 54.6195C195.97 54.7969 195.472 54.8273 195.163 54.7725C194.845 54.7162 194.68 54.5585 194.505 54.3051C194.461 54.1076 194.414 53.9151 194.459 53.7126C194.699 52.6218 195.783 53.1243 196.435 52.6765C196.548 52.5987 196.532 52.5001 196.556 52.3703C196.499 52.2035 196.487 52.1195 196.337 52.012C196.134 51.8652 195.805 51.8867 195.568 51.9384C195.367 51.9822 195.274 52.0847 195.172 52.2561L195.085 52.4036C194.973 52.5567 194.822 52.5252 194.652 52.5345L194.561 52.4036C194.603 52.2318 194.649 52.0583 194.749 51.9093C194.952 51.6056 195.3 51.5037 195.637 51.4262ZM196.345 53.1704C195.844 53.2502 195.382 53.2321 195.038 53.6373C195.016 53.8153 194.992 53.9379 195.069 54.1041C195.15 54.1663 195.227 54.2344 195.32 54.2781C195.671 54.3631 195.958 54.3138 196.27 54.13C196.373 54.0695 196.48 53.8783 196.511 53.7657C196.564 53.5787 196.553 53.3635 196.549 53.1704C196.48 53.1684 196.414 53.165 196.345 53.1704Z" fill="#2C2C2C"/>
<path d="M170.969 50.1641C171.249 50.1824 171.536 50.1992 171.803 50.2934C172.105 50.3999 172.373 50.6637 172.494 50.9601C172.581 51.1711 172.656 51.3752 172.576 51.5891C172.358 51.5969 172.285 51.6193 172.092 51.5088L171.933 51.16C171.812 50.9397 171.589 50.7701 171.345 50.711C170.958 50.6173 170.6 50.7116 170.266 50.9086C170.158 51.0617 170.028 51.2425 170.056 51.442C170.16 52.1833 171.797 52.1857 172.373 52.5833C172.655 52.7778 172.771 53.0205 172.82 53.3539C172.864 53.6639 172.764 54.0554 172.565 54.3012C172.207 54.7432 171.544 54.8053 171.022 54.8572C170.675 54.8232 170.281 54.7384 169.984 54.5489C169.634 54.3262 169.465 54.0375 169.374 53.6404C169.336 53.4744 169.302 53.4442 169.395 53.2971C169.55 53.2817 169.712 53.2356 169.847 53.3426C169.864 53.3556 169.925 53.583 169.937 53.617C170.014 53.8236 170.106 53.9493 170.283 54.0805C170.593 54.3118 171.06 54.3638 171.434 54.3083C171.706 54.2678 171.936 54.2048 172.095 53.9655C172.205 53.7998 172.263 53.5835 172.221 53.3876C172.071 52.6813 170.45 52.6598 169.862 52.2794C169.66 52.1486 169.565 52.0215 169.515 51.7845C169.452 51.4847 169.474 51.0362 169.659 50.7755C169.977 50.3296 170.463 50.2361 170.969 50.1641Z" fill="#2C2C2C"/>
<path d="M81.252 51.4141C81.5714 51.4288 81.9365 51.4511 82.2192 51.6111C82.5726 51.8112 82.8012 52.1717 82.8948 52.5599C83.0127 53.0489 82.9823 53.6874 82.7103 54.1228C82.4518 54.5366 82.1459 54.6869 81.6833 54.7936C81.3465 54.8143 80.9299 54.7885 80.6355 54.6085C80.2923 54.3986 80.0567 54.0288 79.9642 53.6415C79.8468 53.1502 79.894 52.5092 80.1775 52.0795C80.4555 51.6579 80.7721 51.5176 81.252 51.4141ZM81.3909 51.8781C81.0251 51.9871 80.7913 52.0686 80.6044 52.4342C80.4268 52.7818 80.4189 53.3414 80.5578 53.7025C80.6518 53.9472 80.8772 54.1758 81.1198 54.2752C81.2404 54.3248 81.3564 54.3327 81.4849 54.3295C81.8218 54.2396 82.0549 54.1499 82.2309 53.8209C82.4283 53.452 82.449 52.958 82.3088 52.5673C82.2169 52.311 82.0702 52.1121 81.8187 51.9874C81.7282 51.9425 81.6254 51.9257 81.5275 51.9055L81.4424 51.8872L81.3909 51.8781Z" fill="#2C2C2C"/>
<path d="M87.1424 51.4173C87.4846 51.4019 87.8838 51.438 88.1829 51.6114C88.5333 51.8147 88.766 52.1639 88.8613 52.5523C88.9947 53.0948 88.9303 53.7232 88.6286 54.2002C88.3807 54.5921 88.0552 54.6946 87.6318 54.7916C87.2851 54.8165 86.862 54.768 86.5588 54.5819C86.2574 54.3966 86.0199 53.9921 85.9355 53.6577C85.8035 53.1352 85.8651 52.5146 86.1506 52.0533C86.3772 51.6871 86.7371 51.5152 87.1424 51.4173ZM87.3355 51.8781C87.0073 51.9746 86.7523 52.0919 86.5851 52.4142C86.4029 52.7657 86.3887 53.3321 86.5317 53.6989C86.629 53.9483 86.809 54.1575 87.0596 54.262C87.192 54.3173 87.3551 54.3356 87.4976 54.3438C87.8281 54.2278 88.068 54.1281 88.2284 53.7888C88.4052 53.415 88.424 52.907 88.2639 52.5246C88.1776 52.3183 87.9679 52.0604 87.7561 51.9677C87.6315 51.9132 87.4703 51.8951 87.3355 51.8781Z" fill="#2C2C2C"/>
<path d="M110.609 51.418C110.986 51.4341 111.324 51.4626 111.654 51.6666C111.993 51.8763 112.178 52.2606 112.259 52.6385C112.385 53.2204 112.284 53.7808 111.953 54.2752C111.693 54.663 111.336 54.7117 110.911 54.7954C110.644 54.8052 110.245 54.7636 110.017 54.626C109.629 54.3914 109.393 54.0212 109.299 53.5834C109.196 53.1075 109.256 52.4478 109.545 52.041C109.821 51.6526 110.154 51.5066 110.609 51.418ZM110.718 51.8756C110.401 51.9672 110.157 52.0766 109.992 52.3792C109.793 52.7444 109.774 53.2905 109.902 53.6813C109.979 53.9157 110.167 54.1349 110.39 54.2421C110.553 54.3202 110.751 54.3384 110.928 54.3169C111.234 54.233 111.437 54.0944 111.596 53.8136C111.8 53.4511 111.785 52.9549 111.67 52.5655C111.609 52.3628 111.394 52.0732 111.199 51.9829C111.056 51.9175 110.872 51.8994 110.718 51.8756Z" fill="#2C2C2C"/>
<path d="M123.637 51.4141C123.972 51.4328 124.317 51.4679 124.61 51.6468C124.968 51.865 125.143 52.1981 125.239 52.5952C125.364 53.1077 125.326 53.7139 125.032 54.1666C124.773 54.5649 124.388 54.6966 123.945 54.7925C123.633 54.8113 123.272 54.7762 122.995 54.6192C122.656 54.427 122.364 53.9933 122.278 53.6169C122.169 53.1395 122.237 52.4448 122.528 52.0327C122.82 51.6182 123.158 51.4956 123.637 51.4141ZM123.69 51.8993C123.399 51.9599 123.191 52.0668 123.022 52.3204C122.811 52.6371 122.762 53.1469 122.847 53.5104C122.915 53.7977 123.078 54.0941 123.352 54.2334C123.484 54.3003 123.667 54.3322 123.814 54.3273C124.122 54.2592 124.339 54.2025 124.523 53.918C124.747 53.57 124.78 53.0823 124.688 52.6838C124.626 52.4108 124.485 52.1676 124.241 52.0184C124.072 51.9151 123.885 51.8945 123.69 51.8993Z" fill="#2C2C2C"/>
<path d="M192.722 50.2965C192.91 50.2784 193.036 50.2266 193.193 50.3449L193.213 53.7791C193.213 53.9492 193.269 54.5006 193.212 54.6311C193.192 54.677 193.148 54.7084 193.116 54.7471L192.757 54.712C192.713 54.6322 192.67 54.5553 192.615 54.4817C192.495 54.561 192.371 54.6432 192.234 54.6901C191.706 54.8705 191.316 54.7884 190.841 54.5479C190.566 54.2781 190.375 53.9709 190.292 53.5938C190.173 53.0551 190.252 52.4264 190.563 51.9637C190.747 51.6888 191.017 51.5129 191.342 51.4517C191.89 51.3483 192.236 51.498 192.674 51.805L192.716 50.3508L192.722 50.2965ZM191.676 51.8774C191.39 51.9591 191.178 52.0131 191.02 52.2876C190.819 52.6384 190.739 53.1516 190.855 53.5423C190.938 53.8193 191.066 54.083 191.332 54.2239C191.471 54.2978 191.639 54.3222 191.793 54.3488C192.129 54.2617 192.338 54.2033 192.523 53.8821C192.716 53.5438 192.759 53.0201 192.648 52.6462C192.579 52.4166 192.438 52.1314 192.218 52.0116C192.066 51.9282 191.846 51.9031 191.676 51.8774Z" fill="#2C2C2C"/>
<path d="M201.284 54.585L201.161 54.7181C200.997 54.734 200.918 54.7394 200.775 54.6514L200.727 54.4427C200.506 54.5914 200.312 54.6964 200.045 54.7507C199.657 54.83 199.248 54.7816 198.917 54.5481C198.588 54.3159 198.394 53.8802 198.322 53.4941C198.226 52.9741 198.347 52.3446 198.658 51.9145C198.877 51.6106 199.157 51.4816 199.52 51.4263C200.012 51.3515 200.372 51.5515 200.751 51.8283L200.77 50.3615C200.939 50.2291 201.041 50.2743 201.244 50.2886L201.362 50.2757V54.615L201.284 54.585ZM199.756 51.8845C199.507 51.9422 199.275 51.9826 199.124 52.2118C198.89 52.5656 198.809 53.0712 198.9 53.4854C198.96 53.7602 199.107 54.0561 199.357 54.203C199.485 54.2786 199.633 54.3021 199.777 54.3287L199.865 54.3454C200.192 54.2551 200.399 54.19 200.584 53.88C200.79 53.5321 200.812 52.9658 200.69 52.5847C200.622 52.3735 200.456 52.1075 200.253 52.0015C200.11 51.9265 199.915 51.9084 199.756 51.8845ZM201.244 50.2886L201.263 53.3172C201.263 53.6839 201.19 54.2402 201.284 54.585L201.362 54.615V50.2757L201.244 50.2886Z" fill="#2C2C2C"/>
<path d="M201.243 50.2942L201.361 50.2812V54.6206L201.284 54.5906C201.19 54.2458 201.263 53.6895 201.263 53.3228L201.243 50.2942Z" fill="#2C2C2C" fill-opacity="0.0196078"/>
<path d="M148.024 51.4141C148.505 51.4379 148.622 51.6413 149.008 51.8323L149.022 51.5655C149.189 51.505 149.278 51.5043 149.451 51.5353L149.477 51.5831C149.566 51.8112 149.502 52.2954 149.501 52.5468L149.496 54.205C149.493 54.587 149.523 54.9571 149.364 55.3148C149.232 55.6128 148.987 55.8328 148.68 55.9362C148.267 56.0755 147.71 56.0729 147.316 55.8765C146.987 55.7124 146.881 55.5503 146.768 55.1999L146.848 55.0956L147.115 55.1006C147.309 55.1666 147.39 55.3945 147.572 55.4961C147.79 55.6177 148.139 55.6367 148.377 55.5662C148.602 55.4999 148.758 55.3425 148.867 55.14C148.988 54.916 149.055 54.5501 148.984 54.3046C148.787 54.4961 148.594 54.66 148.316 54.7226C147.974 54.8 147.58 54.7646 147.284 54.5654C146.948 54.3397 146.727 53.9044 146.663 53.5145C146.581 53.0079 146.66 52.3399 146.981 51.9241C147.267 51.5542 147.589 51.4794 148.024 51.4141ZM148.027 51.899C147.769 51.9571 147.549 52.0105 147.401 52.2534C147.172 52.6294 147.142 53.1806 147.264 53.5995C147.341 53.8601 147.438 54.0767 147.692 54.2039C147.872 54.2941 148.054 54.281 148.25 54.2665C148.543 54.1445 148.714 54.0555 148.852 53.7503C149.038 53.3384 149.031 52.7654 148.845 52.3555C148.769 52.1886 148.664 52.0508 148.488 51.9805C148.35 51.9254 148.174 51.8788 148.027 51.899Z" fill="#2C2C2C"/>
<path d="M179.079 51.4141C179.422 51.4369 179.656 51.5002 179.927 51.7106L179.995 51.7644L180.059 51.8128L180.097 51.8428L180.138 51.5644C180.334 51.495 180.373 51.5055 180.579 51.5503C180.675 52.1427 180.606 52.8437 180.605 53.447C180.604 53.9585 180.689 54.6996 180.509 55.1783C180.383 55.514 180.213 55.7531 179.871 55.9021C179.423 56.0975 178.838 56.076 178.394 55.8745C178.073 55.7283 177.975 55.5161 177.863 55.1988L177.927 55.1149L178.131 55.0988L178.323 55.1476C178.492 55.353 178.641 55.5211 178.912 55.5823C179.162 55.6385 179.482 55.6133 179.696 55.4689C180.067 55.2194 180.105 54.6315 180.181 54.2253C179.956 54.4341 179.753 54.638 179.443 54.7099C179.068 54.7971 178.714 54.7654 178.382 54.5608C178.062 54.3642 177.844 53.9767 177.775 53.6161C177.668 53.0639 177.74 52.4129 178.065 51.9439C178.326 51.5673 178.657 51.4868 179.079 51.4141ZM179.197 51.8806C178.897 51.9546 178.635 52.0087 178.472 52.3018C178.239 52.7214 178.234 53.2258 178.381 53.6737C178.456 53.9008 178.603 54.1257 178.827 54.2286C178.932 54.2774 179.048 54.2779 179.162 54.2752C179.376 54.2519 179.524 54.2245 179.708 54.1095C180.003 53.7196 180.127 53.2921 180.061 52.7995C180.023 52.5112 179.916 52.2055 179.667 52.0312C179.538 51.9411 179.349 51.9072 179.197 51.8806Z" fill="#2C2C2C"/>
<path d="M91.2553 51.4141C91.6652 51.4415 91.9073 51.5007 92.232 51.7595L92.3007 51.8148C92.3301 51.7465 92.348 51.6938 92.3592 51.6192L92.3674 51.5535C92.5582 51.5066 92.6496 51.4922 92.8342 51.5659L92.8516 53.3337C92.8534 54.0028 92.9515 54.8926 92.5919 55.4822C92.4363 55.7373 92.2042 55.9009 91.9135 55.9695C91.4474 56.0793 90.9062 56.0624 90.4913 55.7999C90.2395 55.6409 90.1739 55.4848 90.1065 55.2002L90.1958 55.1003L90.4313 55.1092C90.6336 55.1637 90.7552 55.4052 90.9448 55.5074C91.143 55.6141 91.4671 55.6441 91.6849 55.576C91.9342 55.4981 92.0964 55.363 92.2055 55.1198C92.3009 54.907 92.3857 54.5378 92.3007 54.3133C92.1112 54.4914 91.947 54.631 91.6895 54.7034C91.3567 54.7969 90.9675 54.7777 90.665 54.6C90.3144 54.3942 90.1027 54.0128 90.0115 53.628C89.895 53.1372 89.9603 52.4745 90.2321 52.0407C90.4975 51.6175 90.7951 51.5202 91.2553 51.4141ZM91.4101 51.878C91.1241 51.9374 90.8757 51.9997 90.709 52.2677C90.4913 52.6179 90.463 53.196 90.579 53.5814C90.652 53.824 90.7943 54.087 91.0242 54.2098C91.1711 54.2882 91.3447 54.2949 91.5076 54.3035C91.8405 54.175 91.9998 54.1203 92.1582 53.7685C92.3304 53.3862 92.3773 52.8847 92.2215 52.4905C92.1382 52.2798 92.0221 52.0673 91.8014 51.98L91.4101 51.878Z" fill="#2C2C2C"/>
<path d="M99.5449 29.48C101.414 29.3218 103.277 29.6942 104.813 30.8123C106.183 31.809 106.646 33.3487 106.888 34.9436L103.649 34.9377C103.603 34.6453 103.519 34.3349 103.412 34.0593C103.107 33.2706 102.628 32.7214 101.848 32.3807C100.983 32.0027 99.7074 32.0136 98.8339 32.3637C98.0014 32.6973 97.3093 33.5478 96.9719 34.3555C96.2107 36.1781 96.1669 38.5898 96.9415 40.4098C97.3182 41.2947 97.8945 42.1454 98.8288 42.5008C99.7094 42.8359 100.853 42.832 101.709 42.426C102.616 41.9963 103.088 41.1925 103.418 40.2885L103.664 39.31L106.861 39.3059C106.666 40.6802 106.206 42.0729 105.347 43.1787C104.317 44.504 102.813 45.1549 101.178 45.3492C99.3957 45.5612 97.3698 45.1804 95.9439 44.0465C94.4444 42.8538 93.4921 40.9452 93.2755 39.0578C92.9806 36.4871 93.3746 33.8018 95.0313 31.7294C96.2103 30.2547 97.7207 29.6855 99.5449 29.48Z" fill="#2C2C2C"/>
<path d="M64.714 24.0411C65.2267 23.9547 65.7828 24.0004 66.3039 24L69.2198 23.9994L80.9229 23.9908L80.9231 27.1996L74.5782 27.1912L74.5972 45.0048L71.0467 44.9999L71.0445 27.1891L66.397 27.1815C66.0077 27.1817 65.0756 27.2916 64.7418 27.133L64.6265 27.1748V24.0312L64.714 24.0411ZM64.6265 24.0312V27.1748L64.7418 27.133C64.6842 26.792 64.7191 26.3842 64.718 26.0353L64.714 24.0411L64.6265 24.0312Z" fill="#2C2C2C"/>
<path d="M64.6265 24.0391L64.714 24.0489L64.718 26.0432C64.7191 26.392 64.6842 26.7998 64.7418 27.1408L64.6265 27.1826V24.0391Z" fill="#2C2C2C" fill-opacity="0.0352941"/>
<path d="M201.361 41.2323C201.126 42.0081 200.941 42.6872 200.416 43.3286C199.413 44.5543 197.349 45.2197 195.814 45.3614C193.878 45.5401 191.655 45.2128 190.128 43.9233C188.956 42.933 188.546 41.6155 188.426 40.1378C188.658 40.0597 189.039 40.111 189.296 40.1104L191.648 40.1058C191.733 40.8016 191.975 41.5612 192.553 42.0036C193.49 42.7195 194.64 42.8486 195.783 42.6997C196.512 42.6045 197.393 42.4012 197.854 41.7789C198.127 41.411 198.227 40.8399 198.136 40.3934C197.8 38.728 194.25 38.4676 192.907 38.1148C192.06 37.8923 191.237 37.5863 190.49 37.1235C189.691 36.6279 189.085 35.7115 188.884 34.7986C188.653 33.7464 188.759 32.541 189.363 31.6253C190.089 30.5262 191.402 29.8557 192.667 29.5956C194.625 29.1931 197.152 29.3345 198.858 30.4602C200.192 31.3409 200.623 32.6056 200.915 34.102C200.482 34.0383 197.648 34.1342 197.561 34.0623C197.538 34.0431 197.473 33.7819 197.459 33.7395C197.278 33.2003 196.994 32.7092 196.477 32.4335C195.471 31.8977 194.035 32.0088 192.982 32.3191C192.64 32.42 192.313 32.6626 192.145 32.9821C191.987 33.2817 191.944 33.7133 192.051 34.0351C192.152 34.3344 192.335 34.5442 192.582 34.7333C193.031 35.0766 193.545 35.2295 194.078 35.3915C195.072 35.6937 196.094 35.8774 197.104 36.1168C197.8 36.2815 198.495 36.4678 199.13 36.8027C200.376 37.4594 200.942 38.3032 201.361 39.6181V41.2323Z" fill="#2C2C2C"/>
<path d="M174.979 24.0147L178.157 24.0039C178.238 24.1913 178.19 24.5737 178.19 24.786L178.19 26.8695L178.198 35.9327L183.923 29.8078L187.869 29.7917C187.39 30.4352 186.672 31.0225 186.102 31.5938L182.362 35.3454C182.443 35.6191 182.649 35.8854 182.801 36.1268L183.677 37.5083L186.731 42.3352L188.406 44.9435L188.454 45.0064L184.513 44.9998C183.932 44.222 183.462 43.2939 182.962 42.4581L180.086 37.6688L178.963 38.7978C178.775 38.9914 178.318 39.3547 178.221 39.5653C178.108 39.8113 178.187 40.5513 178.187 40.848L178.2 45.0218L174.978 45.0064L174.979 24.0147Z" fill="#2C2C2C"/>
<path d="M108.821 24.0039L112.018 24.0047L112.015 31.8808L112.576 31.1289C113.421 30.1414 114.648 29.5648 115.939 29.4754C117.335 29.3789 118.932 29.6391 120.01 30.591C120.777 31.2689 121.175 32.1232 121.393 33.1097C121.651 34.2732 121.554 35.5497 121.555 36.7373L121.551 42.0689C121.549 43.0489 121.505 44.043 121.563 45.0208L118.347 45.0138L118.331 37.7714C118.336 36.4373 118.514 34.7981 117.982 33.5577C117.742 32.9962 117.327 32.5536 116.753 32.326C115.958 32.0108 114.847 32.0443 114.068 32.3987C113.172 32.8068 112.463 33.8334 112.202 34.7583C111.884 35.8841 112.021 37.2599 112.02 38.4312L112.02 43.2327L112.022 44.4566C112.022 44.6301 112.052 44.8577 111.992 45.0221L108.815 45.0156L108.821 24.0039Z" fill="#2C2C2C"/>
<path d="M150.665 29.479C151.071 29.432 151.511 29.4393 151.92 29.4696C153.697 29.6009 155.211 30.3597 156.372 31.7086C157.982 33.5788 158.354 35.8992 158.179 38.2812L147.498 38.266C147.583 39.0312 147.658 39.7013 147.952 40.4245C148.303 41.2852 148.959 42.097 149.839 42.4516C150.761 42.8236 152.062 42.8658 152.978 42.4732C154.058 42.0103 154.531 41.2578 154.958 40.2158L156.075 40.2031L158.005 40.2013C157.754 41.1354 157.422 42.0259 156.842 42.8096C155.774 44.2535 154.245 45.074 152.476 45.3256C150.678 45.5812 148.615 45.2028 147.155 44.0891C145.583 42.8894 144.678 40.976 144.427 39.0445C144.108 36.5835 144.493 34.0359 146.033 32.0315C147.245 30.4535 148.716 29.7317 150.665 29.479ZM150.765 32.1382C149.626 32.3997 148.797 32.8659 148.159 33.8859C147.755 34.5335 147.612 35.3001 147.519 36.0456L151.855 36.042L154.964 36.0482C154.801 34.7456 154.449 33.5966 153.369 32.7478C152.626 32.1644 151.676 32.0589 150.765 32.1382Z" fill="#2C2C2C"/>
<path d="M84.603 29.487C84.9462 29.4472 85.2994 29.4547 85.6445 29.4662C87.3203 29.522 88.9363 30.2171 90.0731 31.4534C91.8827 33.4216 92.2487 35.7237 92.1263 38.2923L81.4829 38.2755C81.3046 38.6864 81.6616 39.8678 81.8154 40.2606C82.1803 41.1922 82.7967 42.054 83.7473 42.4478C84.6975 42.8415 85.9932 42.8669 86.9428 42.4649C88.0019 42.0168 88.4765 41.2368 88.8949 40.2173L90.0971 40.2112L91.9228 40.2068C91.6853 41.2002 91.3358 42.0926 90.7173 42.9158C89.6885 44.285 88.0783 45.1037 86.4028 45.3417C84.5501 45.6045 82.5104 45.1782 81.0146 44.0364C79.5299 42.9032 78.627 40.9953 78.381 39.1787C78.0418 36.6735 78.3924 34.0917 79.9705 32.043C81.1886 30.4616 82.6458 29.7406 84.603 29.487ZM84.7442 32.1447C83.616 32.3748 82.8186 32.8041 82.1586 33.7867C81.7102 34.4544 81.553 35.2713 81.4446 36.0556L85.691 36.0501L88.8919 36.0548C88.7771 34.78 88.3738 33.6585 87.3663 32.8098C86.5499 32.1221 85.7273 32.169 84.7442 32.1447Z" fill="#2C2C2C"/>
<path d="M165.615 29.4781C165.985 29.4338 166.384 29.4403 166.756 29.463C168.396 29.5626 170.006 30.2396 171.104 31.4766C172.854 33.4489 173.269 35.7173 173.117 38.2839L162.453 38.261C162.487 38.9498 162.556 39.5984 162.811 40.2485C163.174 41.1737 163.77 42.0216 164.709 42.4247C165.686 42.844 167.003 42.8529 167.979 42.4474C169 42.0235 169.483 41.1763 169.888 40.2091L170.998 40.2022L172.908 40.2049C172.668 41.1811 172.323 42.0851 171.721 42.8993C170.673 44.3159 169.017 45.1071 167.299 45.3422C165.506 45.5877 163.464 45.1579 162.024 44.0437C160.45 42.8266 159.592 40.8985 159.348 38.9661C159.025 36.4021 159.472 33.9215 161.096 31.8629C162.259 30.3888 163.777 29.6847 165.615 29.4781ZM165.729 32.1376C164.63 32.3644 163.8 32.7885 163.168 33.7646C162.714 34.4661 162.563 35.236 162.443 36.0458L166.744 36.0416L169.898 36.0457C169.71 34.7382 169.355 33.5165 168.224 32.6963C167.488 32.1619 166.612 32.0583 165.729 32.1376Z" fill="#2C2C2C"/>
<path d="M132.559 23.5513C134.743 23.3135 137.094 23.9112 138.892 25.1609C140.842 26.5165 141.575 28.4629 141.981 30.7054L138.535 30.6929C138.406 30.3624 138.362 29.9889 138.258 29.6476C138.127 29.2121 137.899 28.771 137.625 28.4072C136.807 27.3186 135.52 26.7384 134.193 26.557C132.764 26.3614 131.092 26.7164 129.953 27.6146C128.405 28.8344 127.597 31.0841 127.368 32.9791C127.056 35.5718 127.525 38.5703 129.202 40.6567C130.048 41.7092 131.289 42.3153 132.627 42.4446C134.132 42.59 135.925 42.2937 137.11 41.3068C138.529 40.124 138.836 38.5006 138.966 36.7635L133.611 36.7727L133.613 35.2794L133.617 33.9638L142.182 33.9553L142.202 44.9819C141.504 45.1073 140.624 45.0058 139.907 45.0049L139.376 42.5674C139.245 42.614 138.958 43.0349 138.836 43.1598C137.632 44.393 136.06 45.2528 134.338 45.4533C132.092 45.7147 129.528 45.0666 127.748 43.6598C125.426 41.8252 124.18 39.0232 123.85 36.135C123.469 32.8122 124.193 29.3829 126.305 26.7431C127.936 24.7047 130.017 23.8406 132.559 23.5513Z" fill="#2C2C2C"/>
<defs>
<linearGradient id="paint0_linear_1598_61" x1="0" y1="40.0008" x2="44.001" y2="40.0008" gradientUnits="userSpaceOnUse">
<stop stop-color="#6CE9F1"/>
<stop offset="1" stop-color="#42ABCC"/>
</linearGradient>
<linearGradient id="paint1_linear_1598_61" x1="15.9883" y1="39.998" x2="59.9893" y2="39.998" gradientUnits="userSpaceOnUse">
<stop stop-color="#306AB7"/>
<stop offset="1" stop-color="#3A92CC"/>
</linearGradient>
</defs>
</svg>
