<svg width="203" height="32" viewBox="0 0 203 32" fill="none" xmlns="http://www.w3.org/2000/svg">
<path d="M189.403 25.4107C189.58 25.3962 189.612 25.3838 189.773 25.4714C189.793 25.6811 189.836 25.79 189.719 25.9776C189.576 25.9802 189.476 25.992 189.354 25.9051C189.349 25.727 189.345 25.582 189.403 25.4107Z" fill="#2C2C2C" fill-opacity="0.984314"/>
<path d="M149.689 25.4131C149.788 25.3757 149.89 25.4038 149.992 25.4192C150.095 25.5802 150.066 25.7235 150.066 25.9093L149.998 25.9446C149.843 26.0062 149.769 25.9753 149.629 25.9122C149.612 25.728 149.639 25.5902 149.689 25.4131Z" fill="#2C2C2C"/>
<path d="M104.189 25.2891C104.246 25.3019 104.269 25.3182 104.316 25.3499C104.114 25.6248 103.861 25.994 103.542 26.1083C103.433 26.0802 103.44 26.0841 103.382 25.9877L103.705 25.4409C103.827 25.2813 104.007 25.3055 104.189 25.2891Z" fill="#2C2C2C"/>
<path d="M169.256 27.415C169.411 27.3802 169.498 27.422 169.642 27.4808C169.794 27.6848 169.797 27.7065 169.799 27.9617C169.696 28.1431 169.654 28.1585 169.467 28.2579C169.354 28.2681 169.229 28.2241 169.132 28.1629C168.979 28.066 168.983 27.9395 168.957 27.7794C169.048 27.5756 169.073 27.5436 169.256 27.415Z" fill="#2C2C2C"/>
<path d="M110.241 27.4166C110.409 27.3845 110.495 27.4184 110.65 27.4828C110.76 27.6414 110.8 27.7275 110.787 27.9223C110.663 28.1256 110.627 28.1496 110.414 28.2592C110.322 28.2637 110.219 28.2311 110.14 28.1816C109.976 28.0785 109.965 27.9556 109.916 27.781C110.02 27.564 110.034 27.5369 110.241 27.4166Z" fill="#2C2C2C"/>
<path d="M103.535 26.5052C103.653 26.498 103.753 26.5219 103.867 26.5476C103.951 26.8019 103.906 27.1801 103.905 27.4499L103.895 29.3602L103.805 29.444C103.64 29.4582 103.6 29.4817 103.456 29.3905C103.422 28.8386 103.313 26.866 103.535 26.5052Z" fill="#2C2C2C"/>
<path d="M189.361 26.5654C189.394 26.5508 189.408 26.5424 189.448 26.5358C189.593 26.5119 189.693 26.5019 189.803 26.5958C189.822 27.4993 189.91 28.5352 189.779 29.4238L189.475 29.4757L189.367 29.3901L189.361 26.5654Z" fill="#2C2C2C"/>
<path d="M149.738 26.5068C149.86 26.4863 149.951 26.5158 150.066 26.5474L150.077 26.6004C150.119 26.8101 150.09 27.0616 150.091 27.2772L150.091 28.6695C150.091 28.9305 150.148 29.2419 150.005 29.4598C149.884 29.4728 149.794 29.4644 149.673 29.4434C149.558 29.2374 149.611 28.8979 149.61 28.661L149.612 26.6283L149.738 26.5068Z" fill="#2C2C2C"/>
<path d="M147.921 25.4129C148.031 25.3875 148.158 25.3936 148.272 25.3887C148.473 25.6139 148.367 28.8411 148.364 29.3191L148.27 29.4596C148.104 29.4658 148.057 29.4877 147.917 29.3916L147.921 25.4129Z" fill="#2C2C2C"/>
<path d="M94.2959 25.4121C94.4039 25.3834 94.5208 25.3879 94.6321 25.3828C94.8476 25.6311 94.7366 28.7938 94.7233 29.372L94.6236 29.4511C94.4568 29.4656 94.4208 29.4976 94.2872 29.3886C94.239 28.7004 94.2651 27.9965 94.2646 27.3063C94.2642 26.68 94.2329 26.035 94.2959 25.4121Z" fill="#2C2C2C"/>
<path d="M188.222 26.4438L188.342 26.4336L188.424 26.5046C188.441 26.6136 188.476 26.8337 188.381 26.9207C188.359 26.9408 188.179 26.978 188.138 26.991C187.843 27.0861 187.613 27.226 187.504 27.5327C187.366 27.9189 187.427 28.5111 187.421 28.9271C187.419 29.1122 187.442 29.2893 187.347 29.4545L187.043 29.4658L186.955 29.2987L186.964 26.5653C187.129 26.5 187.188 26.5236 187.361 26.5509C187.38 26.7097 187.402 26.8349 187.468 26.9813C187.653 26.6597 187.884 26.5447 188.222 26.4438Z" fill="#2C2C2C"/>
<path d="M132.877 25.4131C133.068 25.3902 133.121 25.3553 133.288 25.4608L133.307 27.8259C133.308 28.3488 133.345 28.905 133.275 29.4222C133.169 29.4531 133.056 29.4539 132.946 29.4627L132.835 29.3615L132.824 26.6972C132.825 26.2974 132.766 25.7898 132.877 25.4131Z" fill="#2C2C2C"/>
<path d="M128.083 26.4442L128.264 26.4316C128.292 26.4748 128.32 26.5127 128.325 26.5657C128.33 26.607 128.33 26.8597 128.311 26.8919C128.266 26.9691 127.918 27.0162 127.82 27.0591C127.583 27.1615 127.472 27.3348 127.382 27.5653C127.228 27.9563 127.302 28.5726 127.299 29.0004C127.299 29.1593 127.33 29.3162 127.23 29.4503C127.067 29.4575 126.989 29.4815 126.846 29.3992L126.822 29.1778L126.824 26.5997L126.926 26.5258C127.101 26.5303 127.165 26.4965 127.289 26.6266L127.253 26.9606L127.315 26.991C127.531 26.6877 127.736 26.5609 128.083 26.4442Z" fill="#2C2C2C"/>
<path d="M136.688 25.4138C136.883 25.3963 137.006 25.3559 137.183 25.4544L137.2 27.8749C137.201 28.3827 137.239 28.9244 137.173 29.4266C136.985 29.4451 136.832 29.5063 136.677 29.3895L136.688 25.4138Z" fill="#2C2C2C"/>
<path d="M162.409 25.6561C162.518 25.6251 162.594 25.6422 162.704 25.6561C162.842 25.8425 162.777 26.1315 162.798 26.3545C162.824 26.63 163.197 26.4626 163.411 26.6279C163.324 27.1303 163.078 26.7918 162.804 27.0227L162.804 28.4109C162.81 28.6647 162.761 28.8182 162.949 28.997C163.092 29.0049 163.253 28.9919 163.367 29.088L163.385 29.3327L163.317 29.4394C163.106 29.4557 162.908 29.4638 162.7 29.414C162.634 29.3982 162.467 29.3423 162.423 29.2853C162.357 29.2009 162.343 28.9603 162.338 28.8518C162.317 28.3894 162.339 27.9227 162.345 27.4598C162.347 27.2883 162.382 27.1052 162.29 26.9541C162.124 26.9538 162.007 26.9542 161.856 26.8806L161.833 26.6583C161.973 26.4619 162.119 26.6034 162.295 26.4794C162.328 26.4562 162.378 25.7782 162.409 25.6561Z" fill="#2C2C2C"/>
<path d="M124.856 25.6562C124.96 25.6201 125.027 25.6414 125.131 25.6623C125.299 25.8633 125.222 26.1041 125.26 26.3546C125.298 26.6034 125.638 26.4917 125.844 26.628L125.8 26.8654C125.649 26.9535 125.485 26.9443 125.314 26.9524C125.228 27.1128 125.258 27.3168 125.258 27.4947L125.291 28.9059C125.428 29.0279 125.581 29.0208 125.758 29.048C125.849 29.2102 125.82 29.2443 125.79 29.4222C125.627 29.4607 125.362 29.4776 125.201 29.4373C124.328 29.219 125.075 27.5261 124.736 26.9579C124.579 26.9609 124.46 26.9684 124.316 26.8989C124.279 26.7434 124.272 26.7249 124.329 26.5672C124.44 26.5481 124.584 26.5345 124.685 26.4847C124.82 26.4179 124.789 25.8469 124.856 25.6562Z" fill="#2C2C2C"/>
<path d="M142.371 25.6563C142.475 25.6202 142.542 25.6412 142.647 25.662C142.814 25.8634 142.738 26.1037 142.775 26.3548C142.813 26.6028 143.155 26.4928 143.361 26.6282L143.33 26.8382C143.228 26.9222 143.172 26.9294 143.04 26.9384C142.942 26.945 142.879 26.9426 142.792 26.9926C142.747 27.3837 142.682 28.7085 142.877 28.9972L143.277 29.0458C143.362 29.2089 143.336 29.2458 143.306 29.4224C143.125 29.4694 142.838 29.476 142.66 29.424C141.887 29.1981 142.573 27.4974 142.251 26.9584C142.094 26.9611 141.975 26.9684 141.831 26.8995C141.794 26.7436 141.786 26.7254 141.845 26.5674C141.955 26.5484 142.1 26.5349 142.2 26.4847C142.335 26.417 142.304 25.8469 142.371 25.6563Z" fill="#2C2C2C"/>
<path d="M84.4689 26.4277L84.7551 26.4398C85.0812 26.4696 85.3974 26.592 85.6056 26.8533C85.7234 27.0011 85.8244 27.2313 85.8056 27.4168C85.6414 27.4681 85.5341 27.4489 85.3671 27.4168C85.2496 27.2258 85.1205 27.0005 84.8997 26.9177C84.6904 26.8391 84.404 26.8617 84.2081 26.9664C83.9986 27.0782 83.8905 27.2773 83.825 27.4974C83.7109 27.8806 83.7044 28.3655 83.9178 28.7181C84.0255 28.896 84.2216 29.0347 84.4266 29.0728C84.7194 29.1274 84.9261 29.0123 85.1493 28.8455C85.2251 28.7101 85.2976 28.5631 85.3997 28.4455C85.4826 28.3501 85.6296 28.3784 85.7529 28.3712L85.8237 28.4494C85.7843 28.6462 85.7035 28.8459 85.6009 29.0189C85.4459 29.28 85.2472 29.3873 84.9623 29.4585C84.5852 29.5528 84.1743 29.5295 83.8411 29.321C83.5472 29.1371 83.3366 28.7778 83.2686 28.4415C83.1772 27.9897 83.2358 27.3452 83.5143 26.964C83.7827 26.5966 84.0336 26.5056 84.4689 26.4277Z" fill="#2C2C2C"/>
<path d="M76.448 25.3826C76.9345 25.3839 79.3562 25.2898 79.5947 25.4715L79.5895 25.7912C79.3544 25.9308 78.572 25.8341 78.2842 25.8247C78.2861 26.3579 78.3909 29.2173 78.2117 29.4593L77.8772 29.4701C77.744 29.3434 77.7854 29.1762 77.7811 28.9987L77.788 25.8323L76.448 25.8424V25.3826Z" fill="#2C2C2C"/>
<path d="M159.782 26.4258C160.013 26.4401 160.273 26.4439 160.48 26.5561C160.704 26.6772 160.79 26.8522 160.848 27.0886C160.979 27.6195 160.917 28.2691 160.91 28.8148C160.907 29.0217 160.939 29.2733 160.831 29.4541L160.527 29.4745C160.404 29.3048 160.443 29.1199 160.441 28.9145C160.438 28.393 160.568 27.3446 160.192 26.9618C159.943 26.8407 159.744 26.869 159.489 26.9454L159.432 26.963C158.848 27.3418 158.996 28.271 158.989 28.8909C158.987 29.0927 159.018 29.2727 158.915 29.451L158.641 29.4616C158.483 29.2864 158.546 28.8667 158.545 28.6253L158.553 26.5655C158.704 26.5022 158.785 26.5294 158.945 26.5488L158.999 26.8693L159.147 26.7478C159.362 26.5694 159.509 26.4932 159.782 26.4258Z" fill="#2C2C2C"/>
<path d="M139.81 26.4277C140.071 26.4485 140.33 26.4615 140.548 26.627C140.737 26.7711 140.797 26.9942 140.833 27.2183C140.917 27.7492 140.867 28.3552 140.862 28.8941C140.86 29.0649 140.895 29.3072 140.792 29.448L140.518 29.4764C140.155 29.1687 140.551 27.6769 140.325 27.1868C140.27 27.066 140.176 26.9681 140.052 26.9231C139.806 26.8336 139.577 26.8763 139.35 26.9895L139.302 27.0146C138.824 27.4179 138.956 28.308 138.952 28.8773C138.951 29.0881 138.984 29.2731 138.876 29.4591C138.702 29.457 138.637 29.4909 138.511 29.3642C138.469 28.6865 138.489 27.9978 138.489 27.3188C138.489 27.1119 138.434 26.7216 138.542 26.5449L138.785 26.5174C139.074 26.6428 138.825 26.6823 138.959 26.8802C139.229 26.5854 139.428 26.4978 139.81 26.4277Z" fill="#2C2C2C"/>
<path d="M185.38 26.5077C185.525 26.4965 185.586 26.5083 185.718 26.5684C185.716 27.5059 185.8 28.5023 185.705 29.4311C185.561 29.461 185.467 29.4701 185.322 29.4395C185.277 29.3196 185.244 29.2063 185.218 29.0808L185.115 29.1805C184.978 29.3147 184.878 29.4135 184.686 29.4586C184.284 29.5529 183.976 29.5207 183.621 29.3018C183.266 28.8077 183.352 28.241 183.356 27.6618C183.356 27.3772 183.274 26.75 183.424 26.5306C183.535 26.5208 183.642 26.5031 183.748 26.543C183.824 26.5714 183.818 26.6413 183.822 26.7138C183.852 27.3413 183.694 28.2694 183.904 28.8464C184.057 29.0012 184.183 29.0899 184.413 29.086C184.617 29.0825 184.819 29.0269 184.963 28.8767C185.404 28.4168 185.246 27.2213 185.25 26.6007L185.38 26.5077Z" fill="#2C2C2C"/>
<path d="M122.382 26.4316C122.577 26.4566 122.837 26.4689 122.998 26.589C123.236 26.7668 123.312 27.0566 123.337 27.3381C123.381 27.8342 123.346 28.3588 123.342 28.8575C123.341 28.9705 123.375 29.2643 123.337 29.3603C123.321 29.404 123.277 29.4315 123.246 29.467L122.973 29.4655C122.851 29.3098 122.883 29.1739 122.877 28.979L122.858 27.6593C122.856 27.5052 122.878 27.295 122.805 27.1548C122.728 27.0052 122.576 26.91 122.412 26.8811C122.2 26.8437 121.956 26.91 121.78 27.0264L121.744 27.052C121.319 27.4726 121.455 28.3753 121.455 28.938C121.455 29.1425 121.502 29.3101 121.361 29.4666C121.195 29.4608 121.122 29.4881 120.996 29.3747C120.942 28.6672 120.976 27.9381 120.975 27.227C120.975 27.1127 120.933 26.7161 120.975 26.6269C120.993 26.5878 121.03 26.5602 121.057 26.5269L121.3 26.5198C121.543 26.6753 121.319 26.6911 121.444 26.8796C121.744 26.556 121.952 26.4905 122.382 26.4316Z" fill="#2C2C2C"/>
<path d="M88.2408 26.4258C88.4668 26.43 88.7886 26.4857 88.9687 26.6315C89.1491 26.7776 89.2431 27.0485 89.2651 27.2742C89.3158 27.7929 89.2791 28.3491 89.277 28.8712C89.2765 28.987 89.3096 29.2594 89.2744 29.3606C89.2599 29.4021 89.2175 29.4278 89.189 29.4615L88.8849 29.4574C88.7536 29.3066 88.8003 29.0876 88.7998 28.89C88.7983 28.3637 88.8737 27.6948 88.7411 27.1881C88.7153 27.0896 88.5856 26.9672 88.4952 26.925C88.2797 26.8246 88.0152 26.879 87.8083 26.9723L87.7674 26.9915C87.0201 27.4633 87.6278 28.7745 87.3325 29.4438C87.194 29.4734 87.1079 29.4869 86.9702 29.4491C86.8517 29.2329 86.9049 28.8604 86.904 28.6165C86.9015 27.9394 86.8655 27.2401 86.9259 26.5663L87.0894 26.5032C87.5023 26.6105 87.2012 26.6125 87.3949 26.8386L87.5938 26.6878C87.811 26.5247 87.9809 26.4782 88.2408 26.4258Z" fill="#2C2C2C"/>
<path d="M114.46 25.2871C114.719 25.3044 114.969 25.3376 115.206 25.4475C115.703 25.6772 115.893 26.0103 116.068 26.508L116.009 26.6149C115.864 26.6191 115.727 26.6133 115.583 26.5968C115.497 26.404 115.381 26.1757 115.224 26.0295C115.023 25.8436 114.698 25.7472 114.428 25.7517C114.069 25.7575 113.785 25.8623 113.54 26.1251C113.183 26.5068 113.09 27.0793 113.12 27.5862C113.148 28.0487 113.282 28.492 113.641 28.8028C113.862 28.995 114.218 29.1004 114.511 29.0761C114.871 29.0464 115.088 28.9262 115.316 28.6524C115.445 28.4255 115.507 28.0823 115.705 27.9165C115.881 27.9025 115.933 27.8901 116.098 27.9659C116.048 28.3513 115.933 28.7205 115.688 29.0301C115.43 29.3569 115.001 29.4829 114.604 29.5322C114.133 29.5906 113.599 29.4598 113.231 29.1545C112.853 28.8404 112.639 28.2658 112.593 27.7898C112.529 27.1231 112.646 26.4055 113.086 25.8783C113.472 25.4161 113.885 25.3396 114.46 25.2871Z" fill="#2C2C2C"/>
<path d="M165.469 26.4238C165.819 26.4551 166.131 26.4914 166.407 26.7343C166.792 27.0724 166.853 27.6485 166.894 28.1275C166.232 28.1216 165.408 28.0198 164.766 28.1446C164.76 28.1959 164.754 28.2165 164.757 28.2651C164.768 28.5072 164.906 28.7624 165.088 28.919C165.258 29.0658 165.55 29.1039 165.764 29.0692C166.099 29.0148 166.195 28.8298 166.378 28.5698C166.494 28.4879 166.625 28.5014 166.76 28.4976L166.815 28.6002C166.683 28.9275 166.55 29.1295 166.294 29.3733C165.847 29.4993 165.38 29.5915 164.948 29.3604C164.615 29.1824 164.4 28.8577 164.308 28.4979C164.185 28.0171 164.219 27.4613 164.486 27.0335C164.718 26.6609 165.056 26.5108 165.469 26.4238ZM165.51 26.869C165.283 26.9222 165.085 26.9581 164.953 27.1676L164.686 27.6882L165.742 27.6864L166.304 27.6751C166.364 27.5443 166.351 27.5122 166.301 27.3739C166.242 27.2099 166.025 27.0054 165.868 26.9341C165.757 26.8836 165.63 26.8754 165.51 26.869Z" fill="#2C2C2C"/>
<path d="M145.396 26.4258C145.711 26.4469 146.021 26.4642 146.282 26.6608C146.723 26.9921 146.812 27.6187 146.885 28.1237L145.287 28.1138C145.112 28.1129 144.863 28.0743 144.714 28.173L144.715 28.2314C144.727 28.4696 144.842 28.7555 145.032 28.9054C145.221 29.0546 145.457 29.1071 145.693 29.0745C146.023 29.029 146.147 28.8346 146.34 28.5905C146.46 28.4881 146.537 28.5045 146.691 28.4903L146.771 28.5698L146.648 28.9081C146.527 29.1512 146.294 29.3704 146.03 29.439C145.668 29.5331 145.188 29.5516 144.859 29.3473C144.528 29.1422 144.327 28.7802 144.241 28.4105C144.141 27.9757 144.191 27.4035 144.443 27.0237C144.676 26.6724 144.996 26.5153 145.396 26.4258ZM145.451 26.8549C145.167 26.9368 144.959 27.0392 144.811 27.3131C144.749 27.4268 144.727 27.531 144.721 27.6586C145.021 27.7192 145.365 27.6876 145.672 27.6862L146.257 27.669L146.311 27.5676C146.235 27.3313 146.15 27.1093 145.931 26.9688C145.802 26.8868 145.6 26.8726 145.451 26.8549Z" fill="#2C2C2C"/>
<path d="M80.9342 26.4277C81.2621 26.4481 81.569 26.4648 81.8386 26.6747C82.2744 27.014 82.3443 27.6409 82.4096 28.1482C81.7228 28.0654 80.9732 28.1122 80.2795 28.1277L80.2341 28.237C80.3067 28.5279 80.3793 28.8237 80.6637 28.983C80.8585 29.0921 81.1272 29.1044 81.3385 29.05L81.4046 29.0308C81.6091 28.9731 81.7036 28.7971 81.8195 28.6317C81.9797 28.4917 82.0641 28.498 82.2702 28.4927C82.2885 28.6554 82.2522 28.7569 82.1764 28.8983C82.0341 29.1636 81.8658 29.3435 81.5718 29.4311C81.2107 29.5388 80.7497 29.5453 80.4154 29.354C80.0719 29.1576 79.8932 28.8609 79.7949 28.4836C79.6781 28.0349 79.7074 27.4669 79.9592 27.0655C80.2054 26.673 80.4923 26.5264 80.9342 26.4277ZM80.9761 26.8702C80.6673 26.9469 80.5128 27.0227 80.3486 27.301C80.2854 27.4083 80.2513 27.5071 80.234 27.6295C80.4155 27.76 81.0053 27.6896 81.2421 27.688L81.7865 27.6696C81.842 27.5669 81.8462 27.5693 81.8119 27.4551C81.7427 27.2244 81.5759 27.0425 81.3585 26.9385C81.2389 26.8811 81.1066 26.8756 80.9761 26.8702Z" fill="#2C2C2C"/>
<path d="M156.107 26.4258C156.359 26.4428 156.63 26.463 156.854 26.5886C157.182 26.772 157.374 27.2081 157.459 27.5598C157.503 27.7403 157.553 27.9642 157.455 28.124L155.449 28.1166L155.374 28.2051L155.428 28.4979C155.474 28.6993 155.627 28.8707 155.806 28.9701C156.019 29.0881 156.268 29.1135 156.5 29.041C156.757 28.9609 156.873 28.7882 157 28.5695C157.117 28.4818 157.255 28.4918 157.395 28.4836L157.443 28.5695L157.304 28.934C157.171 29.1827 156.926 29.3679 156.655 29.442C156.282 29.5447 155.848 29.5328 155.509 29.3296C155.173 29.1281 154.996 28.7634 154.908 28.3957C154.807 27.9679 154.864 27.398 155.113 27.0244C155.367 26.6427 155.678 26.5123 156.107 26.4258ZM156.124 26.8515C155.821 26.9383 155.635 27.0199 155.475 27.3138C155.416 27.4213 155.389 27.5074 155.377 27.628C155.589 27.7442 156.037 27.6857 156.29 27.6866L156.908 27.6773L156.972 27.5977C156.916 27.3427 156.806 27.1283 156.582 26.9799C156.445 26.889 156.283 26.8715 156.124 26.8515Z" fill="#2C2C2C"/>
<path d="M177.117 26.4258C177.326 26.4285 177.575 26.4409 177.774 26.5093C178.052 26.6049 178.255 26.8051 178.376 27.0685L178.396 27.112C178.552 27.4528 178.602 27.7764 178.647 28.147C178.174 28.0867 177.665 28.1157 177.187 28.1125C176.977 28.1111 176.684 28.073 176.488 28.1446L176.507 28.3999C176.533 28.6111 176.662 28.8047 176.837 28.9247C177.029 29.0556 177.285 29.115 177.512 29.0625C177.828 28.9896 177.937 28.8257 178.1 28.5698C178.191 28.4824 178.347 28.4923 178.467 28.4805L178.531 28.554L178.437 28.8425C178.335 29.0849 178.129 29.313 177.881 29.4035C177.513 29.5373 177.032 29.5515 176.678 29.3709C176.35 29.2032 176.143 28.8854 176.043 28.538C175.899 28.0415 175.922 27.5355 176.18 27.08C176.394 26.7007 176.709 26.5376 177.117 26.4258ZM176.957 26.9298C176.745 27.0506 176.596 27.1877 176.521 27.428C176.498 27.5045 176.488 27.5791 176.484 27.6586C176.865 27.7374 177.33 27.6869 177.722 27.6865L178.042 27.6736C178.074 27.5087 178.037 27.3767 177.946 27.2334C177.838 27.0631 177.633 26.9159 177.434 26.886C177.271 26.8615 177.113 26.8848 176.957 26.9298Z" fill="#2C2C2C"/>
<path d="M106.131 26.431C106.393 26.4189 106.818 26.434 107.039 26.5863C107.631 26.9959 107.227 28.2592 107.369 28.8908C107.407 29.0592 107.525 29.0912 107.661 29.1785C107.643 29.3519 107.638 29.3648 107.521 29.4934L107.221 29.5087C107.035 29.4863 106.972 29.3063 106.887 29.1645C106.501 29.4105 106.035 29.5991 105.568 29.4779C105.324 29.4144 105.151 29.2764 105.028 29.057C104.952 28.8561 104.931 28.5997 104.982 28.3888C105.163 27.6421 106.317 27.8758 106.826 27.5426C106.849 27.4766 106.879 27.3963 106.877 27.3258C106.873 27.1767 106.821 27.0519 106.697 26.9712C106.49 26.8371 106.142 26.8427 105.914 26.9162C105.77 26.9624 105.697 27.0459 105.626 27.1743C105.584 27.2507 105.554 27.3129 105.492 27.3758C105.409 27.4601 105.27 27.4292 105.153 27.4316L105.072 27.3258C105.104 27.1675 105.139 27.0156 105.231 26.8794C105.441 26.567 105.783 26.4929 106.131 26.431ZM106.693 28.0243C106.268 28.0881 105.812 28.0797 105.518 28.4192C105.472 28.6328 105.472 28.6836 105.534 28.8926L105.731 29.0256C105.99 29.1008 106.28 29.0958 106.522 28.9604C106.654 28.8866 106.789 28.7692 106.829 28.6174C106.874 28.4455 106.86 28.2323 106.859 28.0548C106.779 28.0177 106.787 28.0107 106.693 28.0243Z" fill="#2C2C2C"/>
<path d="M195.785 26.4349C196.085 26.4055 196.566 26.4258 196.815 26.6064C197.378 27.0165 196.975 28.3192 197.122 28.9338C197.155 29.0707 197.267 29.0938 197.381 29.1573V29.3527C197.242 29.5184 197.205 29.495 196.986 29.521C196.766 29.429 196.723 29.3271 196.591 29.1364L196.493 29.2083L196.324 29.3437C196.088 29.5053 195.634 29.5329 195.353 29.483C195.064 29.4317 194.913 29.2881 194.754 29.0573C194.714 28.8773 194.672 28.702 194.712 28.5175C194.931 27.524 195.918 27.9817 196.512 27.5738C196.615 27.5029 196.6 27.4131 196.622 27.2948C196.57 27.143 196.559 27.0664 196.423 26.9685C196.237 26.8348 195.938 26.8543 195.722 26.9014C195.539 26.9413 195.454 27.0348 195.361 27.1908L195.282 27.3252C195.181 27.4646 195.043 27.4359 194.888 27.4445L194.805 27.3252C194.844 27.1687 194.885 27.0107 194.976 26.875C195.161 26.5983 195.478 26.5055 195.785 26.4349ZM196.43 28.0237C195.974 28.0963 195.553 28.0799 195.24 28.4489C195.219 28.6111 195.198 28.7228 195.268 28.8742C195.342 28.9308 195.412 28.9929 195.496 29.0326C195.816 29.1101 196.077 29.0652 196.362 28.8978C196.456 28.8426 196.553 28.6685 196.582 28.566C196.629 28.3956 196.619 28.1996 196.616 28.0237C196.553 28.0219 196.493 28.0187 196.43 28.0237Z" fill="#2C2C2C"/>
<path d="M173.315 25.2812C173.571 25.298 173.832 25.3132 174.075 25.399C174.35 25.496 174.594 25.7364 174.705 26.0064C174.783 26.1986 174.852 26.3845 174.779 26.5793C174.581 26.5865 174.514 26.6068 174.338 26.5062L174.193 26.1884C174.083 25.9878 173.88 25.8333 173.658 25.7795C173.305 25.6941 172.979 25.78 172.675 25.9594C172.576 26.0989 172.458 26.2636 172.483 26.4454C172.578 27.1205 174.069 27.1228 174.594 27.485C174.851 27.6621 174.957 27.8832 175.001 28.1869C175.042 28.4692 174.95 28.8259 174.769 29.0498C174.443 29.4523 173.839 29.509 173.364 29.5562C173.047 29.5253 172.689 29.448 172.418 29.2754C172.1 29.0725 171.945 28.8096 171.862 28.4479C171.827 28.2966 171.797 28.2691 171.881 28.1352C172.023 28.1211 172.171 28.0791 172.294 28.1766C172.308 28.1884 172.364 28.3956 172.376 28.4265C172.445 28.6147 172.529 28.7292 172.69 28.8488C172.973 29.0594 173.399 29.1068 173.739 29.0562C173.986 29.0193 174.196 28.9619 174.341 28.744C174.442 28.593 174.494 28.396 174.456 28.2175C174.319 27.5742 172.842 27.5546 172.307 27.2081C172.123 27.089 172.036 26.9732 171.991 26.7573C171.933 26.4842 171.953 26.0757 172.122 25.8382C172.411 25.4321 172.854 25.3469 173.315 25.2812Z" fill="#2C2C2C"/>
<path d="M91.5919 26.4258C91.8828 26.4392 92.2154 26.4596 92.4729 26.6053C92.7948 26.7875 93.003 27.1159 93.0883 27.4696C93.1957 27.915 93.168 28.4966 92.9202 28.8932C92.6847 29.2701 92.4062 29.4071 91.9847 29.5042C91.678 29.523 91.2985 29.4996 91.0303 29.3356C90.7177 29.1444 90.5031 28.8075 90.4188 28.4547C90.3118 28.0072 90.3549 27.4234 90.6131 27.0319C90.8663 26.6479 91.1548 26.5201 91.5919 26.4258ZM91.7184 26.8485C91.3852 26.9477 91.1722 27.022 91.002 27.3551C90.8402 27.6717 90.833 28.1814 90.9595 28.5104C91.0452 28.7332 91.2505 28.9414 91.4714 29.032C91.5813 29.0772 91.687 29.0843 91.8041 29.0815C92.1109 28.9996 92.3232 28.9178 92.4835 28.6181C92.6633 28.2821 92.6822 27.8322 92.5545 27.4763C92.4708 27.2428 92.3371 27.0616 92.1081 26.948C92.0256 26.9071 91.932 26.8918 91.8428 26.8735L91.7653 26.8567L91.7184 26.8485Z" fill="#2C2C2C"/>
<path d="M96.9579 26.4326C97.2696 26.4186 97.6332 26.4515 97.9057 26.6095C98.2248 26.7947 98.4368 27.1127 98.5236 27.4665C98.6452 27.9607 98.5865 28.533 98.3117 28.9676C98.0859 29.3245 97.7894 29.4179 97.4037 29.5063C97.0879 29.529 96.7025 29.4848 96.4263 29.3152C96.1518 29.1465 95.9355 28.778 95.8585 28.4734C95.7383 27.9975 95.7944 27.4322 96.0545 27.012C96.2609 26.6784 96.5887 26.5219 96.9579 26.4326ZM97.1338 26.8524C96.8349 26.9402 96.6025 27.0471 96.4503 27.3407C96.2843 27.6609 96.2714 28.1768 96.4016 28.5109C96.4902 28.7381 96.6542 28.9287 96.8825 29.0239C97.0031 29.0743 97.1516 29.0909 97.2814 29.0984C97.5825 28.9927 97.801 28.9019 97.9471 28.5928C98.1082 28.2523 98.1253 27.7896 97.9795 27.4413C97.9009 27.2534 97.7099 27.0184 97.5169 26.934C97.4034 26.8843 97.2566 26.8679 97.1338 26.8524Z" fill="#2C2C2C"/>
<path d="M118.333 26.4297C118.677 26.4443 118.984 26.4703 119.285 26.6561C119.594 26.8472 119.762 27.1972 119.837 27.5415C119.951 28.0715 119.859 28.582 119.557 29.0323C119.321 29.3856 118.996 29.4299 118.608 29.5062C118.365 29.5151 118.002 29.4772 117.794 29.3519C117.441 29.1382 117.226 28.801 117.14 28.4022C117.046 27.9687 117.101 27.3678 117.364 26.9972C117.615 26.6434 117.919 26.5104 118.333 26.4297ZM118.433 26.8466C118.144 26.93 117.921 27.0297 117.771 27.3053C117.59 27.6379 117.572 28.1353 117.689 28.4914C117.759 28.7048 117.931 28.9045 118.134 29.0021C118.282 29.0733 118.462 29.0899 118.624 29.0703C118.903 28.9939 119.088 28.8676 119.232 28.6119C119.418 28.2817 119.405 27.8297 119.299 27.475C119.244 27.2904 119.049 27.0265 118.87 26.9443C118.741 26.8847 118.573 26.8682 118.433 26.8466Z" fill="#2C2C2C"/>
<path d="M130.201 26.4277C130.506 26.4448 130.82 26.4768 131.087 26.6397C131.413 26.8385 131.572 27.1419 131.66 27.5037C131.774 27.9705 131.74 28.5226 131.472 28.935C131.236 29.2978 130.885 29.4178 130.482 29.5051C130.197 29.5223 129.868 29.4903 129.616 29.3473C129.307 29.1722 129.042 28.7772 128.963 28.4343C128.864 27.9995 128.926 27.3666 129.191 26.9913C129.457 26.6137 129.765 26.502 130.201 26.4277ZM130.249 26.8697C129.984 26.9249 129.795 27.0223 129.641 27.2533C129.448 27.5418 129.403 28.0062 129.481 28.3373C129.543 28.599 129.692 28.869 129.941 28.9959C130.061 29.0569 130.228 29.0858 130.362 29.0814C130.643 29.0193 130.841 28.9678 131.008 28.7086C131.212 28.3915 131.242 27.9473 131.159 27.5844C131.101 27.3357 130.973 27.1141 130.751 26.9783C130.597 26.8841 130.427 26.8654 130.249 26.8697Z" fill="#2C2C2C"/>
<path d="M193.13 25.4132C193.301 25.3968 193.416 25.3495 193.559 25.4573L193.578 28.5855C193.577 28.7405 193.628 29.2428 193.577 29.3616C193.558 29.4034 193.518 29.432 193.489 29.4673L193.162 29.4353C193.121 29.3626 193.082 29.2925 193.033 29.2256C192.923 29.2978 192.81 29.3726 192.685 29.4154C192.204 29.5797 191.85 29.5049 191.416 29.2858C191.166 29.0401 190.993 28.7603 190.917 28.4168C190.808 27.926 190.88 27.3534 191.163 26.9319C191.331 26.6815 191.577 26.5213 191.873 26.4655C192.372 26.3713 192.687 26.5077 193.087 26.7873L193.125 25.4627L193.13 25.4132ZM192.177 26.8532C191.917 26.9277 191.724 26.9769 191.58 27.2269C191.396 27.5465 191.324 28.0139 191.43 28.3698C191.505 28.6221 191.621 28.8623 191.864 28.9907C191.991 29.058 192.144 29.0803 192.284 29.1045C192.59 29.0251 192.781 28.9719 192.948 28.6794C193.125 28.3712 193.164 27.8942 193.062 27.5535C193 27.3444 192.871 27.0846 192.671 26.9755C192.532 26.8996 192.332 26.8767 192.177 26.8532Z" fill="#2C2C2C"/>
<path d="M200.929 29.3216L200.817 29.4428C200.668 29.4573 200.596 29.4622 200.466 29.3821L200.422 29.192C200.221 29.3274 200.044 29.4231 199.801 29.4725C199.447 29.5447 199.075 29.5006 198.773 29.2879C198.473 29.0764 198.297 28.6796 198.232 28.3279C198.144 27.8542 198.254 27.2808 198.537 26.889C198.737 26.6122 198.992 26.4947 199.322 26.4443C199.771 26.3762 200.098 26.5584 200.444 26.8105L200.461 25.4744C200.615 25.3538 200.708 25.395 200.892 25.408L201 25.3962V29.3489L200.929 29.3216ZM199.537 26.8617C199.31 26.9143 199.1 26.951 198.962 27.1599C198.749 27.4821 198.675 27.9427 198.758 28.3199C198.812 28.5703 198.947 28.8398 199.174 28.9736C199.291 29.0425 199.425 29.0639 199.557 29.0881L199.637 29.1033C199.935 29.0211 200.123 28.9618 200.291 28.6794C200.48 28.3625 200.499 27.8467 200.388 27.4995C200.326 27.3071 200.175 27.0648 199.99 26.9682C199.86 26.8999 199.682 26.8835 199.537 26.8617ZM200.892 25.408L200.91 28.1667C200.91 28.5008 200.844 29.0075 200.929 29.3216L201 29.3489V25.3962L200.892 25.408Z" fill="#2C2C2C"/>
<path d="M200.892 25.4083L201 25.3965V29.3492L200.929 29.3218C200.844 29.0078 200.91 28.5011 200.91 28.167L200.892 25.4083Z" fill="#2C2C2C" fill-opacity="0.0196078"/>
<path d="M152.415 26.4277C152.853 26.4494 152.959 26.6348 153.311 26.8087L153.324 26.5657C153.476 26.5105 153.557 26.5099 153.715 26.5382L153.738 26.5817C153.82 26.7895 153.761 27.2306 153.76 27.4596L153.756 28.97C153.753 29.318 153.78 29.655 153.635 29.9809C153.515 30.2523 153.293 30.4528 153.013 30.547C152.636 30.6739 152.129 30.6715 151.77 30.4926C151.47 30.3431 151.374 30.1954 151.271 29.8763L151.343 29.7812L151.587 29.7858C151.764 29.8459 151.837 30.0535 152.003 30.1461C152.202 30.2568 152.519 30.2742 152.737 30.2099C152.942 30.1495 153.083 30.0062 153.183 29.8217C153.293 29.6177 153.354 29.2843 153.289 29.0607C153.11 29.2352 152.934 29.3845 152.681 29.4414C152.369 29.512 152.011 29.4797 151.741 29.2982C151.435 29.0927 151.234 28.6962 151.176 28.341C151.1 27.8796 151.172 27.2711 151.465 26.8923C151.725 26.5554 152.019 26.4872 152.415 26.4277ZM152.418 26.8694C152.182 26.9223 151.982 26.9711 151.847 27.1923C151.639 27.5347 151.611 28.0368 151.723 28.4184C151.792 28.6558 151.881 28.8531 152.112 28.969C152.276 29.0512 152.443 29.0392 152.62 29.0261C152.887 28.9148 153.044 28.8338 153.169 28.5558C153.339 28.1806 153.332 27.6587 153.163 27.2853C153.094 27.1333 152.998 27.0077 152.838 26.9437C152.712 26.8935 152.552 26.851 152.418 26.8694Z" fill="#2C2C2C"/>
<path d="M180.703 26.4297C181.015 26.4505 181.228 26.5082 181.475 26.6998L181.537 26.7488L181.596 26.7929L181.63 26.8203L181.668 26.5666C181.846 26.5034 181.882 26.5129 182.069 26.5538C182.156 27.0934 182.094 27.7319 182.093 28.2815C182.092 28.7474 182.169 29.4225 182.005 29.8585C181.891 30.1643 181.736 30.3821 181.424 30.5178C181.016 30.6958 180.483 30.6763 180.079 30.4927C179.786 30.3595 179.697 30.1663 179.595 29.8772L179.653 29.8008L179.839 29.7861L180.014 29.8305C180.168 30.0177 180.304 30.1707 180.551 30.2265C180.778 30.2778 181.07 30.2547 181.265 30.1232C181.603 29.896 181.637 29.3604 181.706 28.9905C181.501 29.1806 181.317 29.3664 181.035 29.4319C180.693 29.5113 180.37 29.4824 180.068 29.296C179.777 29.1169 179.578 28.764 179.515 28.4355C179.418 27.9325 179.482 27.3395 179.779 26.9123C180.017 26.5693 180.318 26.4959 180.703 26.4297ZM180.81 26.8546C180.537 26.9221 180.298 26.9714 180.15 27.2383C179.938 27.6205 179.933 28.08 180.067 28.4879C180.135 28.6948 180.269 28.8998 180.473 28.9935C180.569 29.0379 180.675 29.0383 180.778 29.0359C180.973 29.0147 181.108 28.9897 181.275 28.885C181.544 28.5298 181.657 28.1404 181.597 27.6917C181.562 27.4291 181.465 27.1506 181.238 26.9919C181.121 26.9098 180.949 26.8789 180.81 26.8546Z" fill="#2C2C2C"/>
<path d="M100.704 26.4277C101.077 26.4527 101.298 26.5067 101.594 26.7424L101.656 26.7928C101.683 26.7306 101.699 26.6826 101.71 26.6146L101.717 26.5548C101.891 26.512 101.974 26.4989 102.142 26.566L102.158 28.1763C102.16 28.7858 102.249 29.5963 101.922 30.1334C101.78 30.3658 101.569 30.5148 101.304 30.5773C100.879 30.6773 100.386 30.6619 100.008 30.4228C99.7788 30.2779 99.7191 30.1358 99.6577 29.8766L99.739 29.7855L99.9535 29.7936C100.138 29.8432 100.249 30.0633 100.421 30.1564C100.602 30.2535 100.897 30.2809 101.095 30.2189C101.323 30.1479 101.47 30.0248 101.57 29.8033C101.657 29.6095 101.734 29.2731 101.656 29.0687C101.484 29.2308 101.334 29.358 101.1 29.424C100.796 29.5092 100.442 29.4917 100.166 29.3298C99.8471 29.1424 99.6543 28.795 99.5712 28.4444C99.465 27.9974 99.5245 27.3936 99.7721 26.9986C100.014 26.6131 100.285 26.5244 100.704 26.4277ZM100.845 26.8503C100.585 26.9044 100.358 26.9612 100.207 27.2053C100.008 27.5243 99.9824 28.0509 100.088 28.402C100.155 28.6229 100.284 28.8625 100.494 28.9743C100.627 29.0458 100.786 29.0519 100.934 29.0597C101.237 28.9427 101.382 28.8929 101.527 28.5724C101.683 28.2241 101.726 27.7673 101.584 27.4083C101.508 27.2164 101.403 27.0228 101.202 26.9433L100.845 26.8503Z" fill="#2C2C2C"/>
<path d="M108.255 6.45348C109.958 6.30938 111.654 6.64854 113.054 7.66707C114.302 8.57498 114.724 9.9775 114.944 11.4302L111.994 11.4249C111.952 11.1585 111.875 10.8758 111.778 10.6247C111.5 9.90635 111.063 9.40605 110.353 9.09574C109.565 8.75135 108.403 8.76137 107.608 9.0802C106.849 9.38408 106.219 10.1588 105.912 10.8945C105.218 12.5547 105.178 14.7516 105.884 16.4094C106.227 17.2155 106.752 17.9904 107.603 18.3142C108.405 18.6194 109.447 18.6158 110.227 18.246C111.053 17.8545 111.483 17.1224 111.784 16.2989L112.007 15.4076L114.92 15.4039C114.742 16.6557 114.323 17.9243 113.54 18.9316C112.602 20.1388 111.232 20.7318 109.743 20.9087C108.119 21.1019 106.274 20.7549 104.975 19.7221C103.609 18.6357 102.742 16.8971 102.544 15.1779C102.276 12.8362 102.635 10.3902 104.144 8.50248C105.218 7.15915 106.594 6.64062 108.255 6.45348Z" fill="#2C2C2C"/>
<path d="M76.5277 1.4973C76.9947 1.41867 77.5013 1.46023 77.976 1.45993L80.632 1.45933L91.2924 1.45156L91.2926 4.37438L85.513 4.36676L85.5304 20.5932L82.2962 20.5887L82.2942 4.36482L78.0608 4.35794C77.7062 4.35809 76.8571 4.45824 76.5531 4.3137L76.448 4.35181V1.48833L76.5277 1.4973ZM76.448 1.48833V4.35181L76.5531 4.3137C76.5006 4.00309 76.5324 3.63164 76.5314 3.31386L76.5277 1.4973L76.448 1.48833Z" fill="#2C2C2C"/>
<path d="M76.448 1.48828L76.5277 1.49725L76.5314 3.31381C76.5324 3.6316 76.5006 4.00305 76.5531 4.31366L76.448 4.35177V1.48828Z" fill="#2C2C2C" fill-opacity="0.0352941"/>
<path d="M201 17.1577C200.786 17.8644 200.617 18.4829 200.139 19.0672C199.225 20.1836 197.345 20.7898 195.947 20.9189C194.183 21.0817 192.159 20.7835 190.768 19.6089C189.7 18.7068 189.327 17.5067 189.217 16.1607C189.429 16.0895 189.776 16.1363 190.01 16.1357L192.153 16.1315C192.229 16.7653 192.45 17.4572 192.977 17.8602C193.83 18.5124 194.877 18.63 195.918 18.4943C196.583 18.4076 197.385 18.2224 197.805 17.6556C198.054 17.3205 198.145 16.8003 198.062 16.3936C197.756 14.8765 194.522 14.6393 193.299 14.318C192.527 14.1153 191.778 13.8365 191.098 13.415C190.369 12.9636 189.818 12.1287 189.635 11.2972C189.424 10.3388 189.52 9.24074 190.071 8.40667C190.732 7.40549 191.928 6.79473 193.08 6.55781C194.864 6.19115 197.166 6.32 198.72 7.3454C199.935 8.14763 200.327 9.29963 200.594 10.6627C200.199 10.6047 197.617 10.692 197.538 10.6265C197.517 10.609 197.458 10.3711 197.445 10.3325C197.28 9.84133 197.022 9.39395 196.55 9.14283C195.635 8.6548 194.327 8.75599 193.368 9.03865C193.056 9.13058 192.758 9.3515 192.605 9.64252C192.461 9.91547 192.421 10.3086 192.52 10.6017C192.611 10.8744 192.778 11.0655 193.003 11.2377C193.412 11.5504 193.881 11.6897 194.365 11.8373C195.271 12.1126 196.202 12.2799 197.122 12.4979C197.756 12.648 198.389 12.8177 198.968 13.1228C200.103 13.7209 200.618 14.4895 201 15.6873V17.1577Z" fill="#2C2C2C"/>
<path d="M176.968 1.46104L179.863 1.45117C179.937 1.62187 179.893 1.97015 179.893 2.16357L179.893 4.06145L179.901 12.3171L185.116 6.73795L188.709 6.7233C188.273 7.30939 187.619 7.84436 187.1 8.36484L183.693 11.7821C183.767 12.0315 183.955 12.274 184.093 12.4939L184.892 13.7524L187.673 18.1492L189.199 20.5251L189.243 20.5823L185.653 20.5763C185.124 19.8678 184.695 19.0224 184.24 18.2611L181.62 13.8985L180.597 14.9269C180.426 15.1033 180.01 15.4342 179.921 15.626C179.818 15.8501 179.89 16.5242 179.89 16.7945L179.902 20.5964L176.967 20.5823L176.968 1.46104Z" fill="#2C2C2C"/>
<path d="M116.704 1.45312L119.616 1.45387L119.613 8.62821L120.125 7.94332C120.895 7.04378 122.012 6.51853 123.189 6.43706C124.46 6.34917 125.915 6.58624 126.896 7.45334C127.595 8.07082 127.958 8.84899 128.157 9.74763C128.391 10.8074 128.303 11.9702 128.303 13.0519L128.3 17.9085C128.299 18.8012 128.259 19.7067 128.311 20.5974L125.382 20.591L125.367 13.9939C125.371 12.7787 125.534 11.2856 125.05 10.1557C124.83 9.64419 124.453 9.24106 123.93 9.03374C123.206 8.7466 122.193 8.77709 121.484 9.09996C120.668 9.4717 120.022 10.4068 119.784 11.2493C119.495 12.2748 119.62 13.528 119.619 14.5949L119.618 18.9686L119.62 20.0835C119.621 20.2415 119.647 20.4488 119.593 20.5986L116.699 20.5926L116.704 1.45312Z" fill="#2C2C2C"/>
<path d="M154.82 6.45254C155.191 6.40979 155.591 6.41637 155.964 6.44402C157.583 6.5636 158.962 7.25477 160.019 8.48346C161.485 10.187 161.824 12.3007 161.665 14.4705L151.936 14.4566C152.013 15.1536 152.081 15.7641 152.35 16.4228C152.669 17.2068 153.267 17.9463 154.068 18.2693C154.908 18.6081 156.093 18.6465 156.928 18.289C157.911 17.8673 158.342 17.1818 158.732 16.2327L159.749 16.2212L161.506 16.2195C161.278 17.0703 160.976 17.8815 160.447 18.5954C159.474 19.9107 158.082 20.658 156.471 20.8872C154.832 21.1201 152.953 20.7754 151.624 19.7609C150.192 18.6681 149.367 16.9252 149.139 15.1657C148.848 12.9241 149.199 10.6035 150.602 8.77762C151.706 7.34027 153.046 6.68273 154.82 6.45254ZM154.912 8.87478C153.874 9.11304 153.119 9.5377 152.538 10.4668C152.17 11.0567 152.04 11.755 151.955 12.4341L155.905 12.4308L158.737 12.4365C158.588 11.2499 158.268 10.2033 157.283 9.43008C156.607 8.89869 155.742 8.80258 154.912 8.87478Z" fill="#2C2C2C"/>
<path d="M94.6446 6.45117C94.9572 6.41485 95.2789 6.42172 95.5932 6.43219C97.1197 6.48301 98.5918 7.11618 99.6272 8.24233C101.276 10.0351 101.609 12.1321 101.497 14.4718L91.8025 14.4566C91.6401 14.8309 91.9652 15.9069 92.1053 16.2648C92.4377 17.1134 92.9992 17.8984 93.8651 18.2571C94.7307 18.6157 95.9109 18.6389 96.7759 18.2727C97.7406 17.8645 98.1729 17.154 98.554 16.2253L99.6491 16.2198L101.312 16.2158C101.096 17.1207 100.777 17.9335 100.214 18.6834C99.2769 19.9307 97.8102 20.6764 96.284 20.8931C94.5964 21.1326 92.7384 20.7443 91.3758 19.7042C90.0234 18.6719 89.201 16.934 88.9769 15.2793C88.6679 12.9973 88.9873 10.6456 90.4248 8.77939C91.5344 7.3389 92.8618 6.68211 94.6446 6.45117ZM94.7732 8.87206C93.7455 9.08163 93.0191 9.47265 92.4179 10.3677C92.0095 10.9759 91.8663 11.72 91.7676 12.4345L95.6356 12.4294L98.5513 12.4337C98.4467 11.2725 98.0793 10.251 97.1617 9.47789C96.4179 8.85144 95.6687 8.89419 94.7732 8.87206Z" fill="#2C2C2C"/>
<path d="M168.438 6.45367C168.775 6.41331 169.138 6.41929 169.478 6.43992C170.971 6.53065 172.438 7.14738 173.438 8.27412C175.032 10.0707 175.41 12.137 175.272 14.4749L165.558 14.454C165.589 15.0815 165.652 15.6722 165.884 16.2644C166.214 17.1072 166.757 17.8795 167.613 18.2468C168.503 18.6287 169.703 18.6368 170.592 18.2674C171.521 17.8813 171.962 17.1096 172.33 16.2286L173.342 16.2223L175.081 16.2247C174.863 17.1139 174.549 17.9374 174 18.6791C173.045 19.9695 171.537 20.6901 169.973 20.9043C168.339 21.1279 166.479 20.7364 165.167 19.7215C163.733 18.6128 162.951 16.8565 162.729 15.0963C162.435 12.7608 162.843 10.5011 164.322 8.62598C165.381 7.28325 166.764 6.64186 168.438 6.45367ZM168.542 8.87621C167.541 9.08278 166.785 9.46917 166.209 10.3582C165.796 10.9973 165.658 11.6986 165.549 12.4362L169.467 12.4324L172.34 12.4361C172.168 11.2451 171.845 10.1322 170.815 9.38517C170.144 8.89833 169.347 8.80401 168.542 8.87621Z" fill="#2C2C2C"/>
<path d="M138.328 1.04673C140.317 0.830138 142.459 1.37453 144.096 2.51293C145.873 3.74774 146.54 5.52066 146.911 7.56338L143.771 7.55203C143.654 7.25098 143.614 6.91077 143.52 6.59987C143.4 6.20316 143.192 5.80137 142.943 5.46999C142.197 4.47837 141.025 3.94983 139.817 3.78466C138.515 3.60649 136.992 3.9298 135.954 4.74803C134.544 5.85907 133.808 7.90837 133.6 9.63451C133.315 11.9962 133.742 14.7276 135.27 16.628C136.041 17.5867 137.171 18.1389 138.39 18.2567C139.761 18.3891 141.394 18.1191 142.473 17.2202C143.766 16.1428 144.046 14.664 144.164 13.0817L139.286 13.0901L139.288 11.7298L139.292 10.5315L147.093 10.5237L147.111 20.5678C146.476 20.682 145.675 20.5897 145.021 20.5888L144.537 18.3685C144.418 18.4109 144.157 18.7943 144.045 18.9081C142.949 20.0314 141.517 20.8146 139.948 20.9973C137.902 21.2354 135.567 20.645 133.945 19.3635C131.831 17.6924 130.696 15.1401 130.395 12.5092C130.048 9.48249 130.707 6.35877 132.631 3.95416C134.117 2.09739 136.012 1.31025 138.328 1.04673Z" fill="#2C2C2C"/>
<path d="M30.8261 16.0083C31.1439 15.956 31.4442 15.9955 31.7305 16.1444C32.0792 16.3257 32.2965 16.6233 32.4067 16.9948C32.5132 17.3544 32.4269 17.7292 32.2453 18.0501C32.0647 18.3691 31.7373 18.5332 31.4006 18.6342C31.0621 18.681 30.6709 18.6566 30.3799 18.4589C30.0462 18.2322 29.8459 17.9057 29.7706 17.5144C29.7188 17.245 29.7842 16.9603 29.905 16.7167C30.0997 16.324 30.4247 16.1381 30.8261 16.0083Z" fill="#2D6CB6"/>
<path d="M52.3513 2.44336C52.7749 2.47659 53.2088 2.46517 53.634 2.47791L55.7901 2.58737C59.5516 2.86437 63.3935 3.41939 66.9481 4.72528C68.4044 5.26031 69.8096 5.91893 71.0753 6.82658C71.4273 7.07899 71.7493 7.37929 72.0749 7.66383C73.0028 8.47484 73.7222 9.66186 74.0633 10.8386C74.1103 11.001 74.1847 11.1854 74.1879 11.3541C74.1912 11.5318 74.1007 11.615 73.9837 11.7309C73.887 11.7805 73.7978 11.8109 73.6878 11.7869C73.5205 11.7503 73.3304 11.623 73.1889 11.5291C72.7665 11.2492 72.3916 10.9051 71.9895 10.598C71.0118 9.85095 69.9926 9.25392 68.8494 8.79457C67.4674 8.23925 65.9968 7.88083 64.5331 7.62013C61.9628 7.16235 59.355 7.0283 56.7476 7.02836L52.347 7.15235L52.3513 2.44336Z" fill="#4094F6"/>
<path d="M43.1343 1H44.7872L44.8282 1.00802L49.3979 1.55793L49.373 5.42909L49.3739 12.104L49.3731 14.4299C49.3724 15.3069 49.3868 16.1356 49.1649 16.995C48.8433 18.2408 48.0966 19.4414 47.1424 20.304C44.3124 22.8625 40.647 23.5895 36.9506 23.8257C35.5049 23.9181 34.0323 23.953 32.5846 23.8767C31.5104 23.8201 30.4117 23.6947 29.3727 23.4104C28.5012 23.1719 27.6716 22.8295 27.0561 22.1459C26.9214 21.9963 26.8135 21.7788 26.7366 21.5943C26.5269 21.0908 26.3781 20.5454 26.1896 20.031L24.6608 15.8193L23.892 13.734L25.4304 11.8397L27.6845 17.9354L28.1912 19.3415C28.2995 19.6473 28.3998 19.9826 28.551 20.2695C28.6703 20.4955 28.8315 20.6687 29.0672 20.7786C29.5056 20.983 30.1717 20.9942 30.649 21.0543C32.596 21.2999 34.6135 21.3295 36.5574 21.0359C37.6285 20.8741 38.6996 20.6565 39.7067 20.2448C41.8372 19.3741 43.6388 17.9657 44.5463 15.7969C45.4388 13.6636 45.3648 11.4629 45.365 9.20056L45.3641 5.2513L45.3637 3.22232C45.1933 3.21169 43.7238 3.15456 43.7161 3.14756L43.6045 3.09764L43.5651 3.08873L43.6737 3.06291L43.6645 2.9548C43.4767 2.88949 43.2766 2.9508 43.0865 2.8685L43.1072 2.79725L43.2704 2.81273L43.2553 2.73888C43.1218 2.72443 43.0948 2.6797 43.0155 2.58277L43.0431 2.43302L42.983 2.39885L42.9801 2.12636C42.8913 2.02745 42.855 1.89626 42.8356 1.7676L42.8315 1.73729C42.6831 1.66344 42.669 1.53608 42.5477 1.46392C42.4472 1.40419 42.3049 1.4167 42.1937 1.37019C42.2338 1.30229 42.2897 1.24999 42.3445 1.19401C42.4733 1.22249 42.5728 1.20457 42.6992 1.18051L42.7247 1.0713C42.852 1.03019 42.9687 1.06502 43.1063 1.01148L43.1343 1Z" fill="url(#paint0_linear_475_72)"/>
<path d="M13.0443 22.541C13.3586 22.5195 13.6548 22.5872 13.9209 22.7549C14.2131 22.9389 14.4326 23.232 14.5054 23.5723C14.5807 23.9245 14.53 24.2958 14.328 24.6015C14.0859 24.9682 13.761 25.1261 13.3424 25.2128C13.0355 25.2234 12.7522 25.1729 12.4865 25.0112C12.1922 24.8322 11.9539 24.5039 11.8801 24.1677C11.8031 23.818 11.8811 23.4221 12.0778 23.1237C12.3071 22.7756 12.6495 22.6183 13.0443 22.541Z" fill="#2D6CB6"/>
<path d="M41.9136 1H43.1343L43.1062 1.01148C42.9687 1.06502 42.852 1.03019 42.7247 1.0713L42.6992 1.18051C42.5728 1.20457 42.4733 1.22249 42.3445 1.19401C42.2897 1.24999 42.2338 1.30229 42.1937 1.37019C42.3049 1.4167 42.4472 1.40419 42.5476 1.46392C42.669 1.53608 42.6831 1.66344 42.8315 1.73729L42.8356 1.7676C42.855 1.89626 42.8913 2.02745 42.9801 2.12636L42.983 2.39885L43.0431 2.43302L43.0155 2.58277C43.0948 2.6797 43.1218 2.72443 43.2552 2.73888L43.2704 2.81273L43.1072 2.79725L43.0865 2.8685C43.2765 2.9508 43.4767 2.88949 43.6645 2.9548L43.6737 3.06291L43.5651 3.08873L43.6045 3.09764L43.7161 3.14756C42.6329 3.17108 41.5507 3.19874 40.4724 3.31133C35.7933 3.79985 31.2482 5.35662 27.2019 7.74505C25.6859 8.6399 24.1782 9.63609 22.9543 10.9127C20.2257 13.7589 18.5778 17.7674 18.6658 21.7276C18.6787 22.3045 18.7161 22.8768 18.6893 23.455C18.6168 25.0234 18.1913 26.4753 17.0924 27.6326C16.6881 28.0583 16.1787 28.4127 15.6936 28.7409C14.3139 29.6745 12.8063 30.4203 11.172 30.7837C10.6886 30.8912 10.2028 30.9862 9.70609 30.9988C8.11223 31.039 6.64992 30.0879 5.54359 29.022C3.59699 27.1465 2.14856 24.7791 1 22.3496V21.8162C1.0779 21.6388 1.16808 21.4744 1.28473 21.3195C2.09844 20.239 3.1123 19.2646 4.11638 18.3629C6.6785 16.062 9.67038 14.1712 13.0099 13.2391C13.9203 12.9851 14.849 12.8274 15.7836 12.6952C16.1967 13.2977 16.4994 14.0293 16.7765 14.7043L15.2924 14.8982C14.5318 15.0015 13.7502 15.2085 13.0229 15.4453C10.1337 16.3856 7.55168 18.11 5.32828 20.1561C4.78395 20.657 4.15115 21.2015 3.71177 21.7952C3.56742 21.9902 3.48742 22.3075 3.52753 22.5459C3.59563 22.9508 3.92749 23.4027 4.14213 23.7482C4.7774 24.7708 5.45989 25.8092 6.26286 26.7093C6.74184 27.2461 7.27304 27.7675 7.86134 28.1841C8.30822 28.5005 8.85205 28.783 9.40439 28.8297C9.68969 28.8539 9.98192 28.8088 10.2629 28.7603C11.7386 28.506 13.1112 27.8631 14.3554 27.0462C15.1557 26.5208 15.9225 25.9553 16.2869 25.0356C16.5294 24.4235 16.5218 23.8062 16.5144 23.1614L16.5178 21.6326C16.6243 17.9821 17.6856 14.1883 19.8119 11.1934C21.159 9.29584 22.9911 7.85174 24.9284 6.59369C28.5514 4.24108 32.5729 2.5721 36.7993 1.67264C37.7852 1.46282 38.8051 1.28461 39.8079 1.18543C40.4857 1.1184 41.2107 1.1245 41.8776 1.00657L41.9136 1Z" fill="url(#paint1_linear_475_72)"/>
<defs>
<linearGradient id="paint0_linear_475_72" x1="26.5144" y1="21.1051" x2="52.1038" y2="6.67517" gradientUnits="userSpaceOnUse">
<stop stop-color="#2F70BC"/>
<stop offset="1" stop-color="#3C8CE9"/>
</linearGradient>
<linearGradient id="paint1_linear_475_72" x1="3.42803" y1="26.749" x2="44.6625" y2="3.92063" gradientUnits="userSpaceOnUse">
<stop stop-color="#255B9A"/>
<stop offset="1" stop-color="#3A87E1"/>
</linearGradient>
</defs>
</svg>
